<svg width="375" height="516" viewBox="0 0 375 516" fill="none" xmlns="http://www.w3.org/2000/svg">
<path fill-rule="evenodd" clip-rule="evenodd" d="M72.1806 127.165C127.454 63.7601 175.043 47.5422 229.036 43.9874C285.357 40.2794 341.671 70.9483 374.229 161.821C383.278 187.078 385.732 219.091 381.119 252.402C383.77 250.387 386.582 248.802 389.562 247.748C395.676 245.585 401.123 246.126 405.664 248.912C410.187 251.687 413.749 256.652 416.2 263.226C421.102 276.371 421.63 296.12 416.349 318.421C411.055 340.773 397.808 361.088 383.442 374.871C376.258 381.763 368.778 387.038 361.85 390.115C354.935 393.187 348.493 394.103 343.445 392.142C338.412 390.187 335.689 386.614 334.557 381.977C333.465 377.506 333.852 372.056 334.997 366.118C317.958 388.638 296.277 408.05 269.731 421.758C178.182 469.032 32.123 485.845 -17.0921 394.204C-39.2149 353.01 -41.5392 318.343 -31.3459 284.725C-32.6936 284.857 -33.9795 284.759 -35.2036 284.446C-39.0559 283.461 -42.1496 280.385 -44.5588 276.062C-49.3734 267.422 -51.6266 253.5 -51.6745 239.813C-51.7228 226.034 -45.6884 206.6 -34.1899 187.014C-22.6849 167.416 -5.68063 147.617 16.272 133.122C27.2402 125.88 36.9661 121.214 45.1006 118.718C53.2233 116.227 59.8103 115.884 64.4681 117.36C66.8043 118.1 68.6656 119.302 69.9776 120.928C71.2908 122.556 72.0302 124.58 72.1685 126.923C72.1732 127.003 72.1772 127.084 72.1806 127.165ZM71.1803 128.316C71.1991 127.858 71.1956 127.413 71.1701 126.982C71.0426 124.82 70.3658 123.002 69.1992 121.556C68.0315 120.108 66.3496 119.005 64.1661 118.313C59.7846 116.925 53.4265 117.21 45.394 119.674C37.3734 122.135 27.7342 126.752 16.8232 133.956C-4.98249 148.354 -21.887 168.033 -33.3274 187.52C-44.7743 207.018 -50.7218 226.274 -50.6744 239.81C-50.6267 253.439 -48.3763 267.157 -43.6852 275.575C-41.3415 279.781 -38.4318 282.588 -34.9559 283.477C-33.7348 283.789 -32.4256 283.869 -31.025 283.68C-18.991 244.996 9.53709 207.627 43.4461 163.209C46.1646 159.647 48.9177 156.041 51.6997 152.385C58.3109 143.697 64.7972 135.692 71.1803 128.316ZM380.917 253.829C375.445 291.727 360.837 331.201 336.403 364.238C336.29 364.762 336.181 365.282 336.078 365.798C334.865 371.895 334.458 377.356 335.528 381.74C336.589 386.086 339.103 389.383 343.807 391.21C348.495 393.031 354.635 392.226 361.444 389.202C368.239 386.183 375.626 380.984 382.75 374.149C397 360.478 410.133 340.326 415.375 318.191C420.63 296.004 420.072 276.471 415.263 263.575C412.86 257.129 409.411 252.384 405.141 249.764C400.889 247.155 395.762 246.615 389.895 248.691C386.72 249.814 383.73 251.569 380.917 253.829Z" fill="#E6F8FE" fill-opacity="0.5"/>
<mask id="mask0_4449_3125" style="mask-type:alpha" maskUnits="userSpaceOnUse" x="-52" y="43" width="473" height="418">
<path fill-rule="evenodd" clip-rule="evenodd" d="M72.1806 127.165C127.454 63.7601 175.043 47.5422 229.036 43.9874C285.357 40.2794 341.671 70.9483 374.229 161.821C383.278 187.078 385.732 219.091 381.119 252.402C383.77 250.387 386.582 248.802 389.562 247.748C395.676 245.585 401.123 246.126 405.664 248.912C410.187 251.687 413.749 256.652 416.2 263.226C421.102 276.371 421.63 296.12 416.349 318.421C411.055 340.773 397.808 361.088 383.442 374.871C376.258 381.763 368.778 387.038 361.85 390.115C354.935 393.187 348.493 394.103 343.445 392.142C338.412 390.187 335.689 386.614 334.557 381.977C333.465 377.506 333.852 372.056 334.997 366.118C317.958 388.638 296.277 408.05 269.731 421.758C178.182 469.032 32.123 485.845 -17.0921 394.204C-39.2149 353.01 -41.5392 318.343 -31.3459 284.725C-32.6936 284.857 -33.9795 284.759 -35.2036 284.446C-39.0559 283.461 -42.1496 280.385 -44.5588 276.062C-49.3734 267.422 -51.6266 253.5 -51.6745 239.813C-51.7228 226.034 -45.6884 206.6 -34.1899 187.014C-22.6849 167.416 -5.68063 147.617 16.272 133.122C27.2402 125.88 36.9661 121.214 45.1006 118.718C53.2233 116.227 59.8103 115.884 64.4681 117.36C66.8043 118.1 68.6656 119.302 69.9776 120.928C71.2908 122.556 72.0302 124.58 72.1685 126.923C72.1732 127.003 72.1772 127.084 72.1806 127.165ZM71.1803 128.316C71.1991 127.858 71.1956 127.413 71.1701 126.982C71.0426 124.82 70.3658 123.002 69.1992 121.556C68.0315 120.108 66.3496 119.005 64.1661 118.313C59.7846 116.925 53.4265 117.21 45.394 119.674C37.3734 122.135 27.7342 126.752 16.8232 133.956C-4.98249 148.354 -21.887 168.033 -33.3274 187.52C-44.7743 207.018 -50.7218 226.274 -50.6744 239.81C-50.6267 253.439 -48.3763 267.157 -43.6852 275.575C-41.3415 279.781 -38.4318 282.588 -34.9559 283.477C-33.7348 283.789 -32.4256 283.869 -31.025 283.68C-18.991 244.996 9.53709 207.627 43.4461 163.209C46.1646 159.647 48.9177 156.041 51.6997 152.385C58.3109 143.697 64.7972 135.692 71.1803 128.316ZM380.917 253.829C375.445 291.727 360.837 331.201 336.403 364.238C336.29 364.762 336.181 365.282 336.078 365.798C334.865 371.895 334.458 377.356 335.528 381.74C336.589 386.086 339.103 389.383 343.807 391.21C348.495 393.031 354.635 392.226 361.444 389.202C368.239 386.183 375.626 380.984 382.75 374.149C397 360.478 410.133 340.326 415.375 318.191C420.63 296.004 420.072 276.471 415.263 263.575C412.86 257.129 409.411 252.384 405.141 249.764C400.889 247.155 395.762 246.615 389.895 248.691C386.72 249.814 383.73 251.569 380.917 253.829Z" fill="white"/>
</mask>
<g mask="url(#mask0_4449_3125)">
</g>
</svg>
