<svg width="22" height="22" viewBox="0 0 22 22" fill="none" xmlns="http://www.w3.org/2000/svg">
<path fill-rule="evenodd" clip-rule="evenodd" d="M16.5649 4.26849C16.9228 4.62647 16.9228 5.20687 16.5649 5.56485L5.56485 16.5648C5.20687 16.9228 4.62647 16.9228 4.26849 16.5648C3.9105 16.2069 3.9105 15.6265 4.26849 15.2685L15.2685 4.26849C15.6265 3.9105 16.2069 3.9105 16.5649 4.26849Z" fill="white"/>
<path fill-rule="evenodd" clip-rule="evenodd" d="M4.26849 4.26849C4.62647 3.9105 5.20687 3.9105 5.56485 4.26849L16.5649 15.2685C16.9228 15.6265 16.9228 16.2069 16.5649 16.5648C16.2069 16.9228 15.6265 16.9228 15.2685 16.5648L4.26849 5.56485C3.9105 5.20687 3.9105 4.62647 4.26849 4.26849Z" fill="white"/>
<path fill-rule="evenodd" clip-rule="evenodd" d="M16.5649 4.26849C16.9228 4.62647 16.9228 5.20687 16.5649 5.56485L5.56485 16.5648C5.20687 16.9228 4.62647 16.9228 4.26849 16.5648C3.9105 16.2069 3.9105 15.6265 4.26849 15.2685L15.2685 4.26849C15.6265 3.9105 16.2069 3.9105 16.5649 4.26849Z" stroke="white" stroke-linecap="round" stroke-linejoin="round"/>
<path fill-rule="evenodd" clip-rule="evenodd" d="M4.26849 4.26849C4.62647 3.9105 5.20687 3.9105 5.56485 4.26849L16.5649 15.2685C16.9228 15.6265 16.9228 16.2069 16.5649 16.5648C16.2069 16.9228 15.6265 16.9228 15.2685 16.5648L4.26849 5.56485C3.9105 5.20687 3.9105 4.62647 4.26849 4.26849Z" stroke="white" stroke-linecap="round" stroke-linejoin="round"/>
</svg>
