<svg width="20" height="20" viewBox="0 0 20 20" fill="none" xmlns="http://www.w3.org/2000/svg">
<g clip-path="url(#clip0_3229_4160)">
<path d="M20 10.5025C20 10.9975 19.593 11.4025 19.0955 11.4025H3.07538L7.16834 15.4975C7.53015 15.8575 7.53015 16.42 7.16834 16.78C6.98744 16.96 6.7613 17.05 6.53517 17.05C6.30904 17.05 6.0603 16.96 5.90201 16.78L0.271357 11.155C-0.0904523 10.795 -0.0904523 10.2325 0.271357 9.895L5.90201 4.27C6.26382 3.91 6.82914 3.91 7.19095 4.27C7.55276 4.63 7.55276 5.1925 7.19095 5.5525L3.07538 9.6025H19.0955C19.593 9.6025 20 10.0075 20 10.5025Z" fill="#00B9F2" stroke="#00B9F2"/>
</g>
<defs>
<clipPath id="clip0_3229_4160">
<rect width="20" height="20" fill="white"/>
</clipPath>
</defs>
</svg>
