<svg width="21" height="21" viewBox="0 0 21 21" fill="none" xmlns="http://www.w3.org/2000/svg">
<path d="M14.4611 0H17.9398C19.3805 0 20.5479 1.18829 20.5479 2.65478V6.1958C20.5479 7.66229 19.3805 8.85058 17.9398 8.85058H14.4611C13.0204 8.85058 11.853 7.66229 11.853 6.1958V2.65478C11.853 1.18829 13.0204 0 14.4611 0Z" fill="white"/>
<path d="M6.0868 11.8902C7.52749 11.8902 8.69488 13.0785 8.69488 14.5449V18.086C8.69488 19.5515 7.52749 20.7407 6.0868 20.7407H2.60807C1.16739 20.7407 0 19.5515 0 18.086V14.5449C0 13.0785 1.16739 11.8902 2.60807 11.8902H6.0868ZM17.9399 11.8902C19.3806 11.8902 20.5479 13.0785 20.5479 14.5449V18.086C20.5479 19.5515 19.3806 20.7407 17.9399 20.7407H14.4611C13.0205 20.7407 11.8531 19.5515 11.8531 18.086V14.5449C11.8531 13.0785 13.0205 11.8902 14.4611 11.8902H17.9399ZM6.0868 0C7.52749 0 8.69488 1.18829 8.69488 2.65478V6.1958C8.69488 7.66229 7.52749 8.85058 6.0868 8.85058H2.60807C1.16739 8.85058 0 7.66229 0 6.1958V2.65478C0 1.18829 1.16739 0 2.60807 0H6.0868Z" fill="white"/>
</svg>
