<svg width="26" height="22" viewBox="0 0 26 22" fill="none" xmlns="http://www.w3.org/2000/svg">
<path d="M23.2736 6.19533C22.958 7.0673 22.6415 7.93844 22.3251 8.80935C21.7766 10.3194 21.2282 11.8287 20.6849 13.3405C20.6104 13.5516 20.4863 13.5702 20.3063 13.5702C19.0647 13.5702 17.8231 13.5695 16.5816 13.5688C14.0984 13.5675 11.6153 13.5661 9.13219 13.5702L23.2736 6.19533ZM23.2736 6.19533C23.2871 6.15484 23.2987 6.11251 23.3126 6.06237C23.3207 6.03295 23.3295 6.00084 23.3399 5.96484M23.2736 6.19533L23.3399 5.96484M22.988 5.89115L22.9883 5.84115C22.9882 5.84115 22.9882 5.84115 22.9881 5.84115C22.9881 5.84115 22.9881 5.84115 22.988 5.84115V5.89115ZM22.988 5.89115C23.0905 5.89115 23.193 5.90052 23.3036 5.91112C23.3045 5.90799 23.3054 5.90482 23.3064 5.90162L23.3543 5.91598L23.3495 5.96576C23.3463 5.96545 23.3431 5.96515 23.3399 5.96484M22.988 5.89115L23.3399 5.96484M25.2627 5.39013C24.7666 6.77189 24.2657 8.15104 23.7644 9.53096C23.4753 10.327 23.186 11.1233 22.8976 11.9205L22.8975 11.9206C22.7843 12.2348 22.6693 12.5493 22.5541 12.8643C22.3601 13.3946 22.1656 13.9263 21.9787 14.4599C21.8806 14.7324 21.7733 14.9057 21.6249 15.0125C21.4767 15.1192 21.2796 15.1653 20.9891 15.1653H20.9672H20.9453H20.9234H20.9015H20.8796H20.8577H20.8358H20.8139H20.792H20.7701H20.7483H20.7264H20.7045H20.6826H20.6607H20.6388H20.6169H20.595H20.5731H20.5512H20.5293H20.5074H20.4855H20.4636H20.4417H20.4198H20.3979H20.376H20.3542H20.3323H20.3104H20.2885H20.2666H20.2447H20.2228H20.2009H20.179H20.1571H20.1352H20.1133H20.0914H20.0696H20.0477H20.0258H20.0039H19.982H19.9601H19.9382H19.9163H19.8944H19.8725H19.8506H19.8288H19.8069H19.785H19.7631H19.7412H19.7193H19.6974H19.6755H19.6536H19.6317H19.6099H19.588H19.5661H19.5442H19.5223H19.5004H19.4785H19.4566H19.4347H19.4129H19.391H19.3691H19.3472H19.3253H19.3034H19.2815H19.2596H19.2378H19.2159H19.194H19.1721H19.1502H19.1283H19.1064H19.0845H19.0627H19.0408H19.0189H18.997H18.9751H18.9532H18.9313H18.9095H18.8876H18.8657H18.8438H18.8219H18.8H18.7781H18.7563H18.7344H18.7125H18.6906H18.6687H18.6468H18.6249H18.6031H18.5812H18.5593H18.5374H18.5155H18.4936H18.4717H18.4499H18.428H18.4061H18.3842H18.3623H18.3404H18.3186H18.2967H18.2748H18.2529H18.231H18.2091H18.1873H18.1654H18.1435H18.1216H18.0997H18.0778H18.056H18.0341H18.0122H17.9903H17.9684H17.9465H17.9247H17.9028H17.8809H17.859H17.8371H17.8152H17.7934H17.7715H17.7496H17.7277H17.7058H17.684H17.6621H17.6402H17.6183H17.5964H17.5745H17.5527H17.5308H17.5089H17.487H17.4651H17.4433H17.4214H17.3995H17.3776H17.3557H17.3338H17.312H17.2901H17.2682H17.2463H17.2244H17.2026H17.1807H17.1588H17.1369H17.115H17.0932H17.0713H17.0494H17.0275H17.0056H16.9838H16.9619H16.94H16.9181H16.8962H16.8744H16.8525H16.8306H16.8087H16.7868H16.765H16.7431H16.7212H16.6993H16.6774H16.6556H16.6337H16.6118H16.5899H16.568H16.5462H16.5243H16.5024H16.4805H16.4586H16.4368H16.4149H16.393H16.3711H16.3492H16.3274H16.3055H16.2836H16.2617H16.2398H16.218H16.1961H16.1742H16.1523H16.1304H16.1086H16.0867H16.0648H16.0429H16.0211H15.9992H15.9773H15.9554H15.9335H15.9117H15.8898H15.8679H15.846H15.8241H15.8023H15.7804H15.7585H15.7366H15.7147H15.6929H15.671H15.6491H15.6272H15.6054H15.5835H15.5616H15.5397H15.5178H15.496H15.4741H15.4522H15.4303H15.4084H15.3866H15.3647H15.3428H15.3209H15.299H15.2772H15.2553H15.2334H15.2115H15.1897H15.1678H15.1459H15.124H15.1021H15.0803H15.0584H15.0365H15.0146H14.9927H14.9709H14.949H14.9271H14.9052H14.8833H14.8615H14.8396H14.8177H14.7958H14.774H14.7521H14.7302H14.7083H14.6864H14.6646H14.6427H14.6208H14.5989H14.577H14.5552H14.5333H14.5114H14.4895H14.4676H14.4458H14.4239H14.402H14.3801H14.3582H14.3364H14.3145H14.2926H14.2707H14.2488H14.227H14.2051H14.1832H14.1613H14.1394H14.1176H14.0957H14.0738H14.0519H14.03H14.0082H13.9863H13.9644H13.9425H13.9206H13.8988H13.8769H13.855H13.8331H13.8112H13.7894H13.7675H13.7456H13.7237H13.7018H13.68H13.6581H13.6362H13.6143H13.5924H13.5706H13.5487H13.5268H13.5049H13.483H13.4612H13.4393H13.4174H13.3955H13.3736H13.3518H13.3299H13.308H13.2861H13.2642H13.2423H13.2205H13.1986H13.1767H13.1548H13.1329H13.1111H13.0892H13.0673H13.0454H13.0235H13.0016H12.9798H12.9579H12.936H12.9141H12.8922H12.8703H12.8485H12.8266H12.8047H12.7828H12.7609H12.7391H12.7172H12.6953H12.6734H12.6515H12.6296H12.6078H12.5859H12.564H12.5421H12.5202H12.4983H12.4765H12.4546H12.4327H12.4108H12.3889H12.367H12.3451H12.3233H12.3014H12.2795H12.2576H12.2357H12.2138H12.192H12.1701H12.1482H12.1263H12.1044H12.0825H12.0606H12.0388H12.0169H11.995H11.9731H11.9512H11.9293H11.9074H11.8856H11.8637H11.8418H11.8199H11.798H11.7761H11.7542H11.7324H11.7105H11.6886H11.6667H11.6448H11.6229H11.601H11.5791H11.5573H11.5354H11.5135H11.4916H11.4697H11.4478H11.4259H11.404H11.3822H11.3603H11.3384H11.3165H11.2946H11.2727H11.2508H11.2289H11.207H11.1852H11.1633H11.1414H11.1195H11.0976H11.0757H11.0538H11.0319H11.01H10.9882H10.9663H10.9444H10.9225H10.9006H10.8787H10.8568H10.8349H10.813H10.7911H10.7692H10.7474H10.7255H10.7036H10.6817H10.6598H10.6379H10.616H10.5941H10.5722H10.5503H10.5284H10.5065H10.4846H10.4628H10.4409H10.419H10.3971H10.3752H10.3533H10.3314H10.3095H10.2876H10.2657H10.2438H10.2219H10.2H10.1781H10.1562H10.1343H10.1125H10.0906H10.0687H10.0468H10.0249H10.003H9.98108H9.95918H9.93729H9.91539H9.8935H9.8716H9.8497H9.82781H9.80591H9.78401H9.78328H9.78256H9.78183H9.7811H9.78038H9.77965H9.77892H9.7782H9.77747H9.77674H9.77602H9.77529H9.77457H9.77384H9.77311H9.77239H9.77166H9.77094H9.77021H9.76949H9.76876H9.76804H9.76731H9.76659H9.76586H9.76514H9.76441H9.76369H9.76296H9.76224H9.76151H9.76079H9.76007H9.75934H9.75862H9.75789H9.75717H9.75644H9.75572H9.755H9.75427H9.75355H9.75282H9.7521H9.75138H9.75065H9.74993H9.74921H9.74848H9.74776H9.74703H9.74631H9.74559H9.74486H9.74414H9.74341H9.74269H9.74197H9.74124H9.74052H9.73979H9.73907H9.73835H9.73762H9.7369H9.73617H9.73545H9.73473H9.734H9.73328H9.73255H9.73183H9.7311H9.73038H9.72966H9.72893H9.72821H9.72748H9.72676H9.72603H9.72531H9.72458H9.72386H9.72313H9.72241H9.72168H9.72095H9.72023H9.7195H9.71878H9.71805H9.71733H9.7166H9.71587H9.71515H9.71442H9.71369H9.71297H9.71224H9.71151H9.71078H9.71006H9.70933H9.7086H9.70787H9.70715H9.70642H9.70569H9.70496H9.70423H9.7035H9.70278H9.70205H9.70132H9.70059H9.69986H9.69913H9.6984H9.69767H9.69694H9.69621H9.69548H9.69475H9.69402H9.69328H9.69255H9.69182H9.69109H9.69036H9.68962H9.68889H9.68816H9.68743H9.68669H9.68596H9.68523H9.68449H9.68376H9.68302H9.68229H9.68155H9.68082H9.68008H9.67935H9.67861H9.67787H9.67714H9.6764H9.67566H9.67493H9.67419H9.67345H9.67271H9.67198H9.67124H9.6705H9.66976H9.66902H9.66828H9.66754H9.6668H9.66606H9.66532H9.66458H9.66383H9.66309H9.66235H9.66161H9.66086H9.66012H9.65938H9.65863H9.65789H9.65714H9.6564H9.65565H9.65491H9.65416H9.65342H9.65267H9.65192H9.65118H9.65043H9.64968H9.64893H9.64818H9.64743H9.64668H9.64593H9.64518H9.64443H9.64368H9.64293H9.64218H9.64143H9.64067H9.63992H9.63917H9.63841H9.63766H9.6369H9.63615H9.63539H9.63464H9.63388H9.63312H9.63237H9.63161H9.63085H9.63009H9.62933H9.62857H9.62781H9.62705H9.62629H9.62553H9.62477H9.62401H9.62324H9.62248H9.62172H9.62095H9.62019H9.61942H9.61866H9.61789H9.61712H9.61636H9.61559H9.61482H9.61405H9.61329H9.61252H9.61175H9.61098H9.6102H9.60943H9.60866H9.60789H9.60711H9.60634H9.60557H9.60479H9.60402H9.60324H9.60247H9.60169H9.60091H9.60013H9.59936H9.59858H9.5978H9.59702H9.59624H9.59546H9.59467H9.59389H9.59311H9.59232H9.59154H9.59076H9.58997H9.58918H9.5884H9.58761H9.58682H9.58604H9.58525H9.58446H9.58367H9.58288H9.58209H9.58129H9.5805H9.57971H9.57892H9.57812H9.57733H9.57653H9.57573H9.57494H9.57414H9.57334H9.57254H9.57174H9.57094H9.57014H9.56934H9.56854H9.56774H9.56693H9.56613H9.56533H9.56452H9.56371H9.56291H9.5621H9.56129H9.56048H9.55967H9.55886H9.55805H9.55724H9.55643H9.55562H9.5548H9.55399H9.55317H9.55236H9.55154H9.55072H9.54991H9.54909H9.54827H9.54745H9.54663H9.54581H9.54498H9.54416H9.54334H9.54251H9.54169H9.54086H9.54004H9.53921H9.53838H9.53755H9.53672H9.53589H9.53506H9.53423H9.53339H9.53256H9.53173H9.53089H9.53005H9.52922H9.52838H9.52754H9.5267H9.52586H9.52502H9.52418H9.52334H9.52249H9.52165H9.52081H9.51996H9.51911H9.51827H9.51742H9.51657H9.51572H9.51487H9.51402H9.51317H9.51231H9.51146H9.5106H9.50975H9.50889H9.50803H9.50717H9.50632H9.50546H9.50459H9.50373H9.50287H9.50201H9.50114H9.50028H9.49941H9.49854H9.49768H9.49681H9.49594H9.49507H9.49419H9.49332H9.49245H9.49157H9.4907H9.48982H9.48895H9.48807H9.48719H9.48631H9.48543H9.48455H9.48366H9.48278H9.4819H9.48101H9.48012H9.47924H9.47835H9.47746H9.47657H9.47568H9.47479H9.47389H9.473H9.4721H9.47121H9.47031H9.46941H9.46851H9.46761H9.46671H9.46581H9.46491H9.464H9.4631H9.46219H9.46129H9.46038H9.45947H9.45856H9.45765H9.45674H9.45582H9.45491H9.45399H9.45308H9.45216H9.45124H9.45032H9.4494H9.44848H9.44756H9.44663H9.44571H9.44478H9.44386H9.44293H9.442H9.44107H9.44014H9.43921H9.43828H9.43734H9.43641H9.43547H9.43453H9.43359H9.43265H9.43171H9.43077H9.42983H9.42889H9.42794H9.42699H9.42605H9.4251H9.42415H9.4232H9.42225H9.42129H9.42034H9.41938H9.41843H9.41747H9.41651H9.41555H9.41459H9.41363H9.41267H9.4117H9.41074H9.40977H9.4088H9.40783H9.40686H9.40589H9.40492H9.40395H9.40297H9.40199H9.40102H9.40004H9.39906H9.39808H9.3971H9.39611H9.39513H9.39414H9.39316H9.39217H9.39118H9.39019H9.3892H9.38821H9.38721H9.38622H9.38522H9.38422H9.38322H9.38222H9.38122H9.38022H9.37921H9.37821H9.3772H9.37619H9.37519H9.37418H9.37316H9.37215H9.37114H9.37012H9.36911H9.36809H9.2999L9.3204 15.2303C9.3583 15.3506 9.39514 15.4687 9.43143 15.5851C9.56717 16.0205 9.69522 16.4313 9.84257 16.834M9.84257 16.834C9.84257 16.834 9.84256 16.834 9.84256 16.834L9.88954 16.8169L9.84259 16.8341C9.84258 16.8341 9.84258 16.834 9.84257 16.834ZM9.84257 16.834C9.85518 16.8687 9.88583 16.8913 9.91297 16.9061C9.94193 16.9219 9.97723 16.9342 10.0135 16.9436C10.0861 16.9626 10.1711 16.9724 10.2372 16.9724M10.2372 16.9724C10.2371 16.9724 10.2371 16.9724 10.237 16.9724L10.2372 16.9224V16.9724ZM6.42189 5.86612L6.35874 5.8708L8.13894 16.7548C7.30708 14.1434 6.48073 11.5264 5.65439 8.90938C5.24124 7.60096 4.82809 6.29254 4.41425 4.98481C4.32874 4.71253 4.24242 4.44106 4.15616 4.16982C4.00447 3.69279 3.85299 3.21645 3.70656 2.73758C3.65069 2.55135 3.55758 2.49548 3.37755 2.49548C2.55191 2.50169 1.72006 2.50789 0.894425 2.49548C0.19915 2.50169 -0.204358 1.84366 0.106033 1.27875C0.261228 0.999396 0.503333 0.856617 0.819931 0.856617C1.96838 0.850409 3.11682 0.850409 4.26527 0.862824C4.67498 0.869032 4.93571 1.08631 5.06607 1.51464C5.09514 1.60984 5.12421 1.70495 5.15326 1.8C5.37235 2.51689 5.59031 3.23008 5.7986 3.94811C5.86067 4.16538 5.95379 4.24608 6.18348 4.23987C6.92842 4.22746 7.67336 4.22746 8.41829 4.23987C8.80939 4.24608 9.08874 4.43232 9.23152 4.80479C9.34946 5.10897 9.28739 5.46902 9.00804 5.67388C8.83422 5.79804 8.59832 5.87874 8.38725 5.89115C8.03032 5.91265 7.6704 5.90734 7.31164 5.90205C7.15251 5.8997 6.99361 5.89736 6.8353 5.89736C6.73576 5.89212 6.63179 5.90015 6.50101 5.91024C6.49305 5.91086 6.48499 5.91148 6.47682 5.91211C6.47563 5.90835 6.47443 5.90459 6.47323 5.90082L6.42558 5.91598L6.42189 5.86612ZM19.6172 4.22125V4.27125H19.6175C19.6175 4.27125 19.6176 4.27125 19.6177 4.27125L19.6172 4.22125Z" fill="#00B9F2" stroke="#00B9F2" stroke-width="0.1"/>
<path d="M15.2991 8.97163L15.3317 8.98791L15.3572 8.96194L15.8538 8.456L16.3504 7.95006L16.3505 7.95C16.4047 7.89456 16.4589 7.83894 16.5131 7.78327C16.7325 7.55785 16.9528 7.33155 17.1812 7.11312L17.1814 7.11292C17.3665 6.93375 17.5742 6.84231 17.7734 6.83362C17.9722 6.82495 18.1668 6.89829 18.3281 7.05661C18.4898 7.21834 18.5691 7.41649 18.5655 7.61694C18.5619 7.81753 18.4751 8.02437 18.2969 8.20249L18.2967 8.20269C17.1981 9.31373 16.0933 10.4186 14.9822 11.5172C14.7907 11.7058 14.5871 11.7944 14.3878 11.7923C14.1883 11.7901 13.9844 11.6969 13.7925 11.505L13.7924 11.5049C12.6937 10.4124 11.595 9.31372 10.5025 8.21501L10.5024 8.21491C10.1468 7.85933 10.1397 7.37613 10.4524 7.06921L10.4524 7.0692C10.621 6.90354 10.8147 6.82473 11.0097 6.82977C11.2049 6.83481 11.4075 6.92416 11.5928 7.10642L11.5929 7.10653C11.9612 7.46655 12.3265 7.83463 12.6912 8.2021C12.8734 8.38565 13.0554 8.56904 13.2376 8.7512C13.2776 8.79121 13.3204 8.83151 13.3783 8.88588C13.411 8.91665 13.4485 8.95193 13.493 8.9942L13.5695 9.06688L13.5773 8.96165C13.581 8.91247 13.5846 8.86819 13.588 8.82756C13.596 8.73216 13.6023 8.65686 13.6023 8.58548V8.57119V8.55689V8.5426V8.5283V8.51401V8.49971V8.48542V8.47112V8.45683V8.44253V8.42824V8.41394V8.39965V8.38535V8.37106V8.35676V8.34247V8.32817V8.31388V8.29958V8.28529V8.27099V8.2567V8.2424V8.22811V8.21381V8.19952V8.18522V8.17093V8.15663V8.14234V8.12804V8.11375V8.09945V8.08516V8.07086V8.05657V8.04227V8.02798V8.01368V7.99939V7.98509V7.9708V7.9565V7.94221V7.92791V7.91362V7.89932V7.88503V7.87073V7.85643V7.84214V7.82784V7.81355V7.79925V7.78496V7.77066V7.75637V7.74207V7.72778V7.71348V7.69919V7.68489V7.67059V7.6563V7.642V7.62771V7.61341V7.59912V7.58482V7.57053V7.55623V7.54193V7.52764V7.51334V7.49905V7.48475V7.47046V7.45616V7.44186V7.42757V7.41327V7.39898V7.38468V7.37038V7.35609V7.34179V7.3275V7.3132V7.2989V7.28461V7.27031V7.25602V7.24172V7.22742V7.21313V7.19883V7.18454V7.17024V7.15594V7.14165V7.12735V7.11305V7.09876V7.08446V7.07016V7.05587V7.04157V7.02727V7.01298V6.99868V6.98438V6.97009V6.95579V6.94149V6.9272V6.9129V6.8986V6.88431V6.87001V6.85571V6.84142V6.82712V6.81282V6.79852V6.78423V6.76993V6.75563V6.74134V6.72704V6.71274V6.69844V6.68415V6.66985V6.65555V6.64125V6.62696V6.61266V6.59836V6.58406V6.56977V6.55547V6.54117V6.52687V6.51258V6.49828V6.48398V6.46968V6.45538V6.44109V6.42679V6.41249V6.39819V6.38389V6.3696V6.3553V6.341V6.3267V6.3124V6.2981V6.2838V6.26951V6.25521V6.24091V6.22661V6.21231V6.19801V6.18371V6.16941V6.15512V6.14082V6.12652V6.11222V6.09792V6.08362V6.06932V6.05502V6.04072V6.02642V6.01212V5.99782V5.98352V5.96923V5.95493V5.94063V5.92633V5.91203V5.89773V5.88343V5.86913V5.85483V5.84053V5.82623V5.81193V5.79763V5.78333V5.76903V5.75473V5.74043V5.72612V5.71182V5.69752V5.68322V5.66892V5.65462V5.64032V5.62602V5.61172V5.59742V5.58312V5.56882V5.55451V5.54021V5.52591V5.51161V5.49731V5.48301V5.46871V5.4544V5.4401V5.4258V5.4115V5.3972V5.3829V5.36859V5.35429V5.33999V5.32569V5.31139V5.29708V5.28278V5.26848V5.25418V5.23987V5.22557V5.21127V5.19697V5.18266V5.16836V5.15406V5.13975V5.12545V5.11115V5.09685V5.08254V5.06824V5.05394V5.03963V5.02533V5.01102V4.99672V4.98242V4.96811V4.95381V4.93951V4.9252V4.9109V4.89659V4.88229V4.86799V4.85368V4.83938V4.82507V4.81077V4.79646V4.78216V4.76785V4.75355V4.73924V4.72494V4.71063V4.69633V4.68202V4.66772V4.65341V4.63911V4.6248V4.6105V4.59619V4.58188V4.56758V4.55327V4.53897V4.52466V4.51035V4.49605V4.48174V4.46743V4.45313V4.43882V4.42452V4.41021V4.3959V4.38159V4.36729V4.35298V4.33867V4.32437V4.31006V4.29575V4.28144V4.26714V4.25283V4.23852V4.22421V4.20991V4.1956V4.18129V4.16698V4.15267V4.13836V4.12406V4.10975V4.09544V4.08113V4.06682V4.05251V4.0382V4.0239V4.00959V3.99528V3.98097V3.96666V3.95235V3.93804V3.92373V3.90942V3.89511V3.8808V3.86649V3.85218V3.83787V3.82356V3.80925V3.79494V3.78063V3.76632V3.75201V3.7377V3.72338V3.70907V3.69476V3.68045V3.66614V3.65183V3.63752V3.62321V3.60889V3.59458V3.58027V3.56596V3.55165V3.53733V3.52302V3.50871V3.4944V3.48008V3.46577V3.45146V3.43715V3.42283V3.40852V3.39421V3.37989V3.36558V3.35127V3.33695V3.32264V3.30833V3.29401V3.2797V3.26538V3.25107V3.23676V3.22244V3.20813V3.19381V3.1795V3.16518V3.15087V3.13655V3.12224V3.10792V3.09361V3.07929V3.06498V3.05066V3.03634V3.02203V3.00771V2.9934V2.97908V2.96476V2.95045V2.93613V2.92181V2.9075V2.89318V2.87886V2.86455V2.85023V2.83591V2.82159V2.80728V2.79296V2.77864V2.76432V2.75001V2.73569V2.72137V2.70705V2.69273V2.67841V2.6641V2.64978V2.63546V2.62114V2.60682V2.5925V2.57818V2.56386V2.54954V2.53522V2.5209V2.50658V2.49226V2.47794V2.46362V2.4493V2.43498V2.42066V2.40634V2.39202V2.3777V2.36338V2.34906V2.33473V2.32041V2.30609V2.29177V2.27745V2.26312V2.2488V2.23448V2.22016V2.20584V2.19151V2.17719V2.16287V2.14854V2.13422V2.1199V2.10557V2.09125V2.07693V2.0626V2.04828V2.03396V2.01963V2.00531V1.99098V1.97666V1.96233V1.94801V1.93368V1.91936V1.90503V1.89071V1.87638V1.86206V1.84773V1.83341V1.81908V1.80475V1.79043V1.7761V1.76178V1.74745V1.73312V1.7188V1.70447V1.69014V1.67581V1.66149V1.64716V1.63283V1.6185V1.60418V1.58985V1.57552V1.56119V1.54686V1.53253V1.51821V1.50388V1.48955V1.47522V1.46089V1.44656V1.43223V1.4179V1.40357V1.38924V1.37491V1.36058V1.34625V1.33192V1.31759V1.30326V1.28893V1.2746V1.26026C13.6023 1.21134 13.6016 1.16251 13.6009 1.11387C13.5995 1.01782 13.5982 0.922527 13.6022 0.828783C13.638 0.380834 13.9907 0.0442805 14.402 0.0500741L14.4021 0.0500742C14.8198 0.0558757 15.1538 0.398029 15.1598 0.851023C15.1639 1.54168 15.1625 2.22941 15.1611 2.91829C15.1605 3.26322 15.1598 3.60844 15.1598 3.95446V3.96344V3.97242V3.98141V3.99039V3.99938V4.00836V4.01734V4.02633V4.03531V4.04429V4.05328V4.06226V4.07124V4.08022V4.08921V4.09819V4.10717V4.11615V4.12513V4.13411V4.1431V4.15208V4.16106V4.17004V4.17902V4.188V4.19698V4.20596V4.21494V4.22392V4.2329V4.24189V4.25086V4.25985V4.26882V4.2778V4.28678V4.29576V4.30474V4.31372V4.3227V4.33168V4.34066V4.34964V4.35862V4.36759V4.37657V4.38555V4.39453V4.40351V4.41249V4.42146V4.43044V4.43942V4.4484V4.45737V4.46635V4.47533V4.4843V4.49328V4.50226V4.51123V4.52021V4.52919V4.53816V4.54714V4.55612V4.56509V4.57407V4.58304V4.59202V4.601V4.60997V4.61895V4.62792V4.6369V4.64587V4.65485V4.66382V4.6728V4.68177V4.69075V4.69972V4.70869V4.71767V4.72664V4.73562V4.74459V4.75357V4.76254V4.77151V4.78049V4.78946V4.79843V4.80741V4.81638V4.82535V4.83433V4.8433V4.85227V4.86125V4.87022V4.87919V4.88816V4.89714V4.90611V4.91508V4.92405V4.93303V4.942V4.95097V4.95994V4.96891V4.97789V4.98686V4.99583V5.0048V5.01377V5.02274V5.03171V5.04069V5.04966V5.05863V5.0676V5.07657V5.08554V5.09451V5.10348V5.11245V5.12142V5.13039V5.13936V5.14834V5.15731V5.16628V5.17525V5.18422V5.19319V5.20216V5.21113V5.2201V5.22907V5.23804V5.24701V5.25597V5.26494V5.27391V5.28288V5.29185V5.30082V5.30979V5.31876V5.32773V5.3367V5.34567V5.35464V5.36361V5.37257V5.38154V5.39051V5.39948V5.40845V5.41742V5.42639V5.43536V5.44432V5.45329V5.46226V5.47123V5.4802V5.48916V5.49813V5.5071V5.51607V5.52504V5.53401V5.54297V5.55194V5.56091V5.56988V5.57884V5.58781V5.59678V5.60575V5.61472V5.62368V5.63265V5.64162V5.65058V5.65955V5.66852V5.67749V5.68645V5.69542V5.70439V5.71336V5.72232V5.73129V5.74026V5.74922V5.75819V5.76716V5.77613V5.78509V5.79406V5.80303V5.81199V5.82096V5.82993V5.83889V5.84786V5.85683V5.86579V5.87476V5.88373V5.89269V5.90166V5.91063V5.91959V5.92856V5.93753V5.94649V5.95546V5.96443V5.97339V5.98236V5.99132V6.00029V6.00926V6.01822V6.02719V6.03616V6.04512V6.05409V6.06306V6.07202V6.08099V6.08995V6.09892V6.10789V6.11685V6.12582V6.13479V6.14375V6.15272V6.16168V6.17065V6.17962V6.18858V6.19755V6.20651V6.21548V6.22445V6.23341V6.24238V6.25135V6.26031V6.26928V6.27824V6.28721V6.29618V6.30514V6.31411V6.32307V6.33204V6.34101V6.34997V6.35894V6.36791V6.37687V6.38584V6.3948V6.40377V6.41274V6.4217V6.43067V6.43964V6.4486V6.45757V6.46654V6.4755V6.48447V6.49343V6.5024V6.51137V6.52033V6.5293V6.53827V6.54723V6.5562V6.56517V6.57413V6.5831V6.59206V6.60103V6.61V6.61896V6.62793V6.6369V6.64586V6.65483V6.6638V6.67276V6.68173V6.6907V6.69967V6.70863V6.7176V6.72657V6.73553V6.7445V6.75347V6.76243V6.7714V6.78037V6.78934V6.7983V6.80727V6.81624V6.8252V6.83417V6.84314V6.85211V6.86107V6.87004V6.87901V6.88798V6.89694V6.90591V6.91488V6.92385V6.93281V6.94178V6.95075V6.95972V6.96869V6.97765V6.98662V6.99559V7.00456V7.01353V7.02249V7.03146V7.04043V7.0494V7.05837V7.06734V7.0763V7.08527V7.09424V7.10321V7.11218V7.12115V7.13012V7.13909V7.14805V7.15702V7.16599V7.17496V7.18393V7.1929V7.20187V7.21084V7.21981V7.22878V7.23775V7.24672V7.25569V7.26466V7.27363V7.2826V7.29156V7.30054V7.3095V7.31848V7.32745V7.33642V7.34539V7.35436V7.36333V7.3723V7.38127V7.39024V7.39921V7.40818V7.41715V7.42612V7.43509V7.44406V7.45303V7.46201V7.47098V7.47995V7.48892V7.49789V7.50686V7.51583V7.52481V7.53378V7.54275V7.55172V7.56069V7.56967V7.57864V7.58761V7.59658V7.60556V7.61453V7.6235V7.63247V7.64145V7.65042V7.65939V7.66836V7.67734V7.68631V7.69528V7.70426V7.71323V7.7222V7.73118V7.74015V7.74913V7.7581V7.76707V7.77605V7.78502V7.794V7.80297V7.81195V7.82092V7.8299V7.83887V7.84784V7.85682V7.86579V7.87477V7.88375V7.89272V7.9017V7.91067V7.91965V7.92862V7.9376V7.94658V7.95555V7.96453V7.9735V7.98248V7.99146V8.00043V8.00941V8.01839V8.02736V8.03634V8.04532V8.0543V8.06327V8.07225V8.08123V8.09021V8.09918V8.10816V8.11714V8.12612V8.1351V8.14408V8.15305V8.16203V8.17101V8.17999V8.18897V8.19795V8.20693V8.21591V8.22489V8.23387V8.24285V8.25183V8.26081V8.26979V8.27877V8.28775V8.29673V8.30571V8.31469V8.32367V8.33265V8.34163V8.35061V8.3596V8.36858V8.37756V8.38654V8.39552V8.4045V8.41349V8.42247V8.43145V8.44043V8.44942V8.4584V8.46738V8.47637V8.48535V8.49433V8.50332V8.5123V8.52128V8.53027V8.53925V8.54824V8.54889V8.54955V8.5502V8.55085V8.55151V8.55216V8.55282V8.55347V8.55412V8.55478V8.55543V8.55608V8.55674V8.55739V8.55804V8.55869V8.55935V8.56V8.56065V8.5613V8.56195V8.56261V8.56326V8.56391V8.56456V8.56521V8.56586V8.56651V8.56717V8.56782V8.56847V8.56912V8.56977V8.57042V8.57107V8.57172V8.57237V8.57302V8.57367V8.57432V8.57497V8.57562V8.57627V8.57691V8.57756V8.57821V8.57886V8.57951V8.58016V8.58081V8.58145V8.5821V8.58275V8.5834V8.58405V8.58469V8.58534V8.58599V8.58664V8.58728V8.58793V8.58858V8.58922V8.58987V8.59052V8.59117V8.59181V8.59246V8.5931V8.59375V8.5944V8.59504V8.59569V8.59633V8.59698V8.59763V8.59827V8.59892V8.59956V8.60021V8.60085V8.6015V8.60214V8.60279V8.60343V8.60408V8.60472V8.60536V8.60601V8.60665V8.6073V8.60794V8.60859V8.60923V8.60987V8.61052V8.61116V8.6118V8.61245V8.61309V8.61373V8.61438V8.61502V8.61566V8.61631V8.61695V8.61759V8.61823V8.61888V8.61952V8.62016V8.6208V8.62145V8.62209V8.62273V8.62337V8.62401V8.62466V8.6253V8.62594V8.62658V8.62722V8.62786V8.62851V8.62915V8.62979V8.63043V8.63107V8.63171V8.63235V8.63299V8.63364V8.63428V8.63492V8.63556V8.6362V8.63684V8.63748V8.63812V8.63876V8.6394V8.64004V8.64068V8.64132V8.64196V8.6426V8.64324V8.64388V8.64452V8.64516V8.6458V8.64644V8.64708V8.64772V8.64836V8.649V8.64964V8.65027V8.65091V8.65155V8.65219V8.65283V8.65347V8.65411V8.65475V8.65539V8.65602V8.65666V8.6573V8.65794V8.65858V8.65922V8.65986V8.6605V8.66113V8.66177V8.66241V8.66305V8.66369V8.66432V8.66496V8.6656V8.66624V8.66688V8.66751V8.66815V8.66879V8.66943V8.67007V8.6707V8.67134V8.67198V8.67262V8.67325V8.67389V8.67453V8.67517V8.67581V8.67644V8.67708V8.67772V8.67836V8.67899V8.67963V8.68027V8.6809V8.68154V8.68218V8.68282V8.68345V8.68409V8.68473V8.68536V8.686V8.68664V8.68727V8.68791V8.68855V8.68919V8.68982V8.69046V8.6911V8.69173V8.69237V8.69301V8.69364V8.69428V8.69492V8.69555V8.69619V8.69683V8.69746V8.6981V8.69874V8.69938V8.70001V8.70065V8.70128V8.70192V8.70256V8.70319V8.70383V8.70447V8.7051V8.70574V8.70638V8.70701V8.70765V8.70829V8.70892V8.70956V8.7102V8.71083V8.71147V8.71211V8.71274V8.71338V8.71402V8.71465V8.71529V8.71593V8.71656V8.7172V8.71784V8.71847V8.71911V8.71974V8.72038V8.72102V8.72165V8.72229V8.72293V8.72357V8.7242V8.72484V8.72547V8.72611V8.72675V8.72738V8.72802V8.72866V8.72929V8.72993V8.73057V8.7312V8.73184V8.73248V8.73312V8.73375V8.73439V8.73503V8.73566V8.7363V8.73694V8.73757V8.73821V8.73885V8.73948V8.74012V8.74076V8.7414V8.74203V8.74267V8.74331V8.74394V8.74458V8.74522V8.74586V8.74649V8.74713V8.74777V8.74841V8.74904V8.74968V8.75032V8.75096V8.75159V8.75223V8.75287V8.75351V8.75414V8.75478V8.75542V8.75606V8.75669V8.75733V8.75797V8.75861V8.75925V8.75988V8.76052V8.76116V8.7618V8.76244V8.76308V8.76371V8.76435V8.76499V8.76563V8.76627V8.76691V8.76754V8.76818V8.76882V8.76946V8.7701V8.77074V8.77138V8.77202V8.77265V8.77329V8.77393V8.77457V8.77521V8.77585V8.77649V8.77713V8.77777V8.77841V8.77905V8.77969V8.78033V8.78097V8.78161V8.78225V8.78289V8.78353V8.78417V8.78481V8.78545V8.78609V8.78673V8.78737V8.78801V8.78865V8.78929V8.78993V8.79057V8.79121V8.79185V8.79249V8.79313V8.79377V8.79441V8.79506V8.7957V8.79634V8.79698V8.79762V8.79826V8.7989V8.79955V8.80019V8.80083V8.80147V8.80211V8.80276V8.8034V8.80404V8.80468V8.80532V8.80597V8.80661V8.80725V8.80789V8.80854V8.80918V8.80982V8.81047V8.81111V8.81175V8.8124V8.81304V8.81368V8.81433V8.81497V8.81561V8.81626V8.8169V8.81754V8.81819V8.81883V8.81948V8.82012V8.82077V8.82141V8.82205V8.8227V8.82334V8.82399V8.82463V8.82528V8.82592V8.82657V8.82722V8.82786V8.82851V8.82915V8.8298V8.83044V8.83109V8.83174V8.83238V8.83303V8.83367V8.83432V8.83497V8.83561V8.83626V8.83691V8.83755V8.8382V8.83885V8.8395V8.84014V8.84079V8.84144V8.84209V8.84274V8.84338V8.84403V8.84468V8.84533V8.84598V8.84663V8.84727V8.84792V8.84857V8.84922V8.84987V8.85052V8.85117V8.85182V8.85247V8.85312V8.85377V8.85442V8.85507V8.85572V8.85637V8.85702V8.85767V8.85832V8.85897V8.85962V8.86027V8.86092V8.86158V8.86223V8.86288V8.86353V8.86418V8.86483V8.86549V8.86614V8.86679V8.86744V8.8681V8.86875V8.8694V8.87006V8.87071V8.87136V8.87202V8.87267V8.87332V8.87398V8.87463V8.87529V8.87594V8.8766V8.87725V8.91329L15.194 8.92468C15.2272 8.93577 15.2612 8.95267 15.2991 8.97163Z" fill="#00B9F2" stroke="#00B9F2" stroke-width="0.1"/>
</svg>
