<svg width="26" height="18" viewBox="0 0 26 18" fill="none" xmlns="http://www.w3.org/2000/svg">
<path d="M0.00659692 1.951C0.0461784 1.81737 0.0725661 1.67706 0.118744 1.54343C0.415606 0.628062 1.26001 0.00668151 2.23635 0.00668151C3.846 0 5.46225 0 7.07189 0C12.3692 0 17.6665 0 22.9705 0C24.0721 0 24.9429 0.648107 25.2068 1.67038C25.2596 1.88419 25.286 2.11136 25.286 2.33853C25.2926 6.78174 25.2926 11.2183 25.286 15.6615C25.286 17.0379 24.3294 18 22.9639 18C16.1031 18 9.24228 18 2.38149 18C1.14786 18 0.349637 17.3653 0.0395815 16.1425C0.0329846 16.1091 0.0131938 16.0824 0 16.049C0.00659692 11.3519 0.00659692 6.65479 0.00659692 1.951ZM8.90584 16.5033C9.00479 16.5033 9.09055 16.5033 9.16971 16.5033C13.7546 16.5033 18.3328 16.5033 22.9177 16.5033C23.5246 16.5033 23.8017 16.2227 23.8017 15.6013C23.8017 12.9955 23.8017 10.3831 23.8017 7.77728C23.8017 7.69042 23.8017 7.60356 23.8017 7.51002C23.7291 7.50334 23.6829 7.50334 23.6433 7.50334C20.2261 7.50334 16.8155 7.50334 13.3983 7.49666C13.2466 7.49666 13.1872 7.55011 13.1345 7.68374C12.798 8.44543 12.2241 8.91314 11.4127 9.06013C11.1554 9.1069 10.8849 9.09354 10.5946 9.11359C10.9641 9.66815 11.3203 10.216 11.6765 10.7639C11.947 11.1849 11.881 11.6392 11.5116 11.8797C11.1488 12.1203 10.72 12.0067 10.4495 11.5991C10.0405 10.9844 9.6381 10.363 9.22909 9.74833C9.13013 9.60134 9.03118 9.44766 8.89924 9.2539C8.90584 11.6993 8.90584 14.0846 8.90584 16.5033ZM8.90584 5.34521C9.21589 5.13808 9.48637 4.94432 9.76344 4.7706C10.9641 4.00891 12.5473 4.47661 13.1213 5.77951C13.2004 5.96659 13.2928 6.01336 13.4841 6.01336C16.8353 6.00668 20.18 6.00668 23.5312 6.00668C23.617 6.00668 23.7093 6.00668 23.8083 6.00668C23.8083 5.8931 23.8083 5.81292 23.8083 5.73274C23.8083 4.62361 23.8083 3.51448 23.8083 2.40535C23.8083 1.78396 23.5312 1.50334 22.9177 1.50334C18.3328 1.50334 13.7546 1.50334 9.16971 1.50334C9.08395 1.50334 8.99819 1.50334 8.90584 1.50334C8.90584 2.79287 8.90584 4.04232 8.90584 5.34521ZM5.72612 9.09354C4.4925 9.18708 3.62171 8.72606 3.12694 7.60356C3.10715 7.56347 3.04778 7.51002 3.00819 7.51002C2.50683 7.50334 2.01206 7.50334 1.4975 7.50334C1.4975 7.61693 1.4975 7.6971 1.4975 7.77728C1.4975 10.3964 1.4975 13.0089 1.4975 15.6281C1.4975 16.216 1.78117 16.5033 2.3617 16.5033C3.96475 16.5033 5.5678 16.5033 7.17744 16.5033C7.25661 16.5033 7.33577 16.4967 7.41493 16.49C7.41493 14.0846 7.41493 11.6993 7.41493 9.26726C7.34237 9.36748 7.29619 9.4343 7.25001 9.49443C6.78163 10.2027 6.31985 10.9109 5.85146 11.6125C5.64696 11.9198 5.3501 12.0468 5.05324 11.98C4.53208 11.8597 4.30119 11.2918 4.59805 10.8241C4.94769 10.2561 5.33031 9.69488 5.72612 9.09354ZM1.4909 6C1.96588 6 2.42107 5.99332 2.86966 6.00668C3.03458 6.01336 3.10715 5.95991 3.17312 5.80624C3.60851 4.78396 4.68381 4.2294 5.75911 4.44321C6.2077 4.53007 6.57713 4.78396 6.94655 5.03118C7.09168 5.1314 7.23682 5.22494 7.40174 5.33185C7.40174 4.02895 7.40174 2.77283 7.40174 1.52339C7.37535 1.51002 7.36216 1.50334 7.34896 1.50334C5.62717 1.50334 3.91197 1.49666 2.19018 1.50334C1.80755 1.50334 1.4975 1.82405 1.4975 2.21158C1.48431 3.46771 1.4909 4.71715 1.4909 6ZM6.82121 6.75501C6.4188 6.48775 6.06916 6.23385 5.69974 6.01336C5.3435 5.79955 4.89491 5.89978 4.63763 6.22049C4.38695 6.53452 4.38695 6.98886 4.64423 7.3029C4.90811 7.62361 5.3501 7.71715 5.71293 7.49666C6.07576 7.26949 6.4254 7.02227 6.82121 6.75501ZM9.48637 6.75501C9.89537 7.02895 10.2516 7.28285 10.6276 7.51002C10.9707 7.71047 11.3995 7.61693 11.6568 7.30958C11.9206 7.00223 11.9272 6.54788 11.6765 6.22717C11.4325 5.91314 10.9971 5.79287 10.6606 5.98664C10.2714 6.20713 9.90197 6.47439 9.48637 6.75501Z" fill="white"/>
<path d="M18.5704 12.0064C17.6072 12.0064 16.6441 12.0064 15.6875 12.0064C15.1598 12.0064 14.8233 11.7124 14.8233 11.2648C14.8167 10.8104 15.1598 10.5098 15.6809 10.5098C17.627 10.5098 19.5797 10.5098 21.5258 10.5098C22.1063 10.5098 22.4758 11.0176 22.2779 11.532C22.1591 11.8327 21.8952 12.0064 21.539 12.0064C20.5495 12.0064 19.5599 12.0064 18.5704 12.0064Z" fill="white"/>
<path d="M18.5703 13.5029C19.54 13.5029 20.5098 13.5029 21.4795 13.5029C21.9809 13.5029 22.3173 13.7969 22.3239 14.2446C22.3305 14.6989 21.9875 15.0063 21.4729 15.0063C19.5268 15.0063 17.5742 15.0063 15.6281 15.0063C15.0475 15.0063 14.6715 14.4985 14.8694 13.984C14.9882 13.6833 15.252 13.5096 15.6083 13.5029C16.5978 13.5029 17.5873 13.5029 18.5703 13.5029Z" fill="white"/>
</svg>
