<svg width="170" height="169" viewBox="0 0 170 169" fill="none" xmlns="http://www.w3.org/2000/svg">
<g clip-path="url(#clip0_3229_4837)">
<path d="M132.855 52.4554C143.494 52.4554 152.119 43.8468 152.119 33.2275C152.119 22.6082 143.494 13.9995 132.855 13.9995C122.215 13.9995 113.59 22.6082 113.59 33.2275C113.59 43.8468 122.215 52.4554 132.855 52.4554Z" fill="white"/>
<path d="M168.469 70.3818C168.469 70.3818 154.75 70.3818 141.415 70.3818H119.849H115.382L83.2142 102.489H115.382V126.04C115.382 126.04 90.2328 144.453 60.605 125.474L36.0342 149.998C36.0342 149.998 86.3096 193.264 141.427 149.263C179.649 115.571 168.469 70.3818 168.469 70.3818Z" fill="white"/>
<path d="M101.197 1.33543C62.9068 -5.29646 29.2198 13.2298 10.6018 46.842C-2.8005 71.0269 -4.51263 102.228 11.3274 125.599L12.9488 123.98L18.346 118.616L31.2381 105.805L34.3448 102.726L38.5968 98.5051C38.5968 98.5051 29.2991 69.035 55.1852 47.6455C55.1852 47.6455 74.0414 28.5081 103.703 37.7995C103.703 37.7995 103.091 34.212 103.828 29.2663C103.975 28.2591 104.179 27.1953 104.463 26.0975C105.087 23.6077 106.084 20.9255 107.638 18.2886C109.928 14.3955 113.42 10.5816 118.738 7.53727C119.237 7.25434 119.759 6.97141 120.292 6.6998C120.303 6.67716 112.729 3.32726 101.197 1.33543Z" fill="white"/>
</g>
<defs>
<clipPath id="clip0_3229_4837">
<rect width="170" height="169" fill="white"/>
</clipPath>
</defs>
</svg>
