<svg width="65" height="64" viewBox="0 0 65 64" fill="none" xmlns="http://www.w3.org/2000/svg">
<g clip-path="url(#clip0_3229_4196)">
<path d="M50.7974 19.8647C54.8654 19.8647 58.1632 16.6046 58.1632 12.5831C58.1632 8.56159 54.8654 5.30151 50.7974 5.30151C46.7294 5.30151 43.4316 8.56159 43.4316 12.5831C43.4316 16.6046 46.7294 19.8647 50.7974 19.8647Z" fill="white"/>
<path d="M64.4148 26.6533C64.4148 26.6533 59.169 26.6533 54.0706 26.6533H45.8248H44.1167L31.8172 38.8122H44.1167V47.7309C44.1167 47.7309 34.5008 54.704 23.1725 47.5166L13.7778 56.804C13.7778 56.804 33.0008 73.1887 54.075 56.5254C68.6894 43.7666 64.4148 26.6533 64.4148 26.6533Z" fill="white"/>
<path d="M38.6931 0.505634C24.0526 -2.00585 11.1722 5.01002 4.05358 17.7389C-1.07081 26.8977 -1.72545 38.7136 4.33105 47.5638L4.951 46.951L7.01463 44.9195L11.9439 40.0679L13.1318 38.9022L14.7576 37.3036C14.7576 37.3036 11.2026 26.1434 21.1002 18.0432C21.1002 18.0432 28.3099 10.7959 39.6512 14.3145C39.6512 14.3145 39.4171 12.9559 39.6989 11.083C39.7552 10.7016 39.8333 10.2987 39.9417 9.88299C40.1801 8.94011 40.5616 7.92437 41.1556 6.92578C42.0313 5.45146 43.3666 4.00714 45.3999 2.85426C45.5906 2.74711 45.7901 2.63997 45.9938 2.53711C45.9982 2.52854 43.1021 1.25994 38.6931 0.505634Z" fill="white"/>
</g>
<defs>
<clipPath id="clip0_3229_4196">
<rect width="65" height="64" fill="white"/>
</clipPath>
</defs>
</svg>
