<svg width="285" height="565" viewBox="0 0 285 565" fill="none" xmlns="http://www.w3.org/2000/svg">
<path d="M282.714 128.163H280.812V32.6712C280.811 24.0062 277.369 15.6962 271.242 9.56916C265.115 3.44212 256.805 -1.7819e-10 248.14 0H35.4785C26.8136 -1.78082e-10 18.5035 3.44212 12.3764 9.56916C6.24934 15.6962 2.80717 24.0062 2.80711 32.6712V74.5098H2.08647C1.57756 74.5099 1.0895 74.712 0.729646 75.0719C0.369788 75.4317 0.167619 75.9198 0.167599 76.4287V95.1401C0.167617 95.649 0.369788 96.137 0.729646 96.4969C1.0895 96.8568 1.57755 97.0589 2.08647 97.059H2.80711V115.787H1.9189C1.6669 115.787 1.41737 115.837 1.18455 115.933C0.951724 116.03 0.740161 116.171 0.56197 116.349C0.38378 116.527 0.24244 116.739 0.146016 116.972C0.0495918 117.204 -2.53041e-05 117.454 9.6811e-09 117.706V153.117C1.77875e-05 153.626 0.202189 154.114 0.562047 154.474C0.921905 154.834 1.40998 155.036 1.9189 155.036H2.80711V168.77H2.0027C1.75073 168.77 1.5012 168.82 1.2684 168.916C1.03559 169.012 0.824059 169.154 0.645872 169.332C0.467684 169.51 0.326335 169.722 0.229892 169.954C0.133449 170.187 0.0838137 170.437 0.0837994 170.689V206.436C0.0838217 206.944 0.28599 207.433 0.645846 207.792C1.0057 208.152 1.49378 208.354 2.0027 208.354H2.80711V532.328C2.80709 540.993 6.24923 549.304 12.3763 555.431C18.5034 561.558 26.8135 565 35.4785 565H248.14C256.805 565 265.115 561.558 271.242 555.431C277.369 549.304 280.812 540.993 280.812 532.328V196.649H282.714C283.223 196.649 283.711 196.446 284.071 196.087C284.43 195.727 284.633 195.239 284.633 194.73V130.082C284.633 129.573 284.43 129.085 284.071 128.725C283.711 128.365 283.223 128.163 282.714 128.163Z" fill="#3F3D56"/>
<path d="M150.57 25.1715H118.234C117.263 25.1705 116.332 24.7845 115.646 24.0982C114.959 23.4118 114.573 22.4812 114.572 21.5104V20.1103C114.573 19.1396 114.959 18.2089 115.646 17.5226C116.332 16.8362 117.263 16.4502 118.234 16.4492H150.57C151.541 16.4502 152.471 16.8362 153.158 17.5226C153.844 18.2089 154.23 19.1396 154.232 20.1103V21.5104C154.23 22.4812 153.844 23.4118 153.158 24.0982C152.471 24.7845 151.541 25.1705 150.57 25.1715V25.1715Z" fill="white"/>
<path d="M164.153 25.2891C166.625 25.2891 168.628 23.2857 168.628 20.8145C168.628 18.3432 166.625 16.3398 164.153 16.3398C161.682 16.3398 159.679 18.3432 159.679 20.8145C159.679 23.2857 161.682 25.2891 164.153 25.2891Z" fill="white"/>
<g opacity="0.1">
<path opacity="0.1" d="M277.396 193.707C277.396 192.556 277.396 191.4 277.396 190.238C277.35 191.134 277.35 192.032 277.396 192.928C277.388 193.187 277.396 193.447 277.396 193.707Z" fill="black"/>
</g>
<path fill-rule="evenodd" clip-rule="evenodd" d="M206.58 15H229.166C233.802 15 238.392 15.9395 242.675 17.7649C246.958 19.5902 250.849 22.2657 254.127 25.6386C257.405 29.0114 260.005 33.0156 261.779 37.4224C263.553 41.8293 264.466 46.5525 264.466 51.3224V511.678C264.466 521.311 260.747 530.55 254.127 537.361C247.507 544.173 238.528 548 229.166 548H55.3002C50.6645 548 46.0742 547.06 41.7914 545.235C37.5086 543.41 33.6171 540.734 30.3392 537.361C27.0613 533.989 24.4611 529.984 22.6871 525.578C20.9131 521.171 20 516.448 20 511.678V51.3223C20 41.689 23.7192 32.4503 30.3392 25.6385C36.9593 18.8268 45.9381 15 55.3003 15H76.396C75.3574 17.6203 74.9609 20.4632 75.2415 23.2783C75.5221 26.0934 76.4713 28.7942 78.0053 31.143C79.5394 33.4917 81.6112 35.4162 84.0384 36.747C86.4656 38.0777 89.1735 38.7739 91.9237 38.7741H191.052C193.802 38.7739 196.51 38.0777 198.937 36.747C201.364 35.4162 203.436 33.4917 204.97 31.143C206.504 28.7943 207.453 26.0934 207.734 23.2783C208.015 20.4632 207.618 17.6203 206.58 15Z" fill="white"/>
<path fill-rule="evenodd" clip-rule="evenodd" d="M52.0112 79H232.761C237.008 79 241.08 80.7358 244.083 83.8254C247.086 86.915 248.773 91.1055 248.773 95.4749V186.09C248.773 190.46 247.086 194.65 244.083 197.74C241.08 200.829 237.008 202.565 232.761 202.565H52.0112C47.7648 202.565 43.6923 200.829 40.6896 197.74C37.6869 194.65 36 190.46 36 186.09V95.4749C36 91.1054 37.6869 86.915 40.6896 83.8254C43.6923 80.7357 47.7648 79 52.0112 79Z" fill="#00B9F2"/>
<path d="M220.677 128.548V166.901C220.676 167.406 220.475 167.89 220.118 168.247C219.76 168.605 219.276 168.806 218.771 168.807H177.503C176.997 168.806 176.513 168.605 176.156 168.247C175.799 167.89 175.597 167.406 175.596 166.901V128.548C175.597 128.043 175.798 127.558 176.155 127.2C176.512 126.843 176.997 126.642 177.503 126.642H218.771C219.276 126.642 219.761 126.843 220.119 127.2C220.476 127.558 220.677 128.043 220.677 128.548Z" fill="white"/>
<path d="M201.052 169H195.221C194.722 169.006 194.241 168.813 193.884 168.465C193.526 168.117 193.322 167.642 193.314 167.143V127.359C193.322 126.86 193.526 126.384 193.884 126.036C194.241 125.688 194.722 125.495 195.221 125.501H201.052C201.551 125.495 202.032 125.688 202.389 126.036C202.747 126.384 202.951 126.86 202.959 127.359V167.143C202.951 167.642 202.747 168.117 202.389 168.465C202.032 168.813 201.551 169.006 201.052 169Z" fill="#3F3D56"/>
<path d="M196.936 114.636C199.933 117.231 198.986 123.234 198.986 123.234C198.986 123.234 193.181 125.031 190.184 122.437C187.187 119.843 188.133 113.84 188.133 113.84C188.133 113.84 193.939 112.042 196.936 114.636Z" fill="#3F3D56"/>
<path d="M206.891 121.94C204.306 124.945 198.3 124.018 198.3 124.018C198.3 124.018 196.484 118.218 199.069 115.213C201.654 112.208 207.66 113.135 207.66 113.135C207.66 113.135 209.475 118.935 206.891 121.94Z" fill="#3F3D56"/>
<path opacity="0.2" d="M220.677 128.548V135.005L175.596 134.815V128.548C175.597 128.043 175.798 127.558 176.155 127.2C176.512 126.843 176.997 126.642 177.503 126.642H218.771C219.276 126.642 219.761 126.843 220.119 127.2C220.476 127.558 220.677 128.042 220.677 128.548Z" fill="black"/>
<path d="M225.532 132.473C225.353 132.708 225.123 132.898 224.858 133.028C224.594 133.159 224.303 133.226 224.008 133.224L173.769 133.014C173.519 133.013 173.271 132.962 173.04 132.866C172.809 132.769 172.6 132.627 172.423 132.45C172.247 132.272 172.108 132.061 172.013 131.829C171.918 131.598 171.87 131.35 171.871 131.099L171.894 125.492C171.896 124.987 172.099 124.503 172.458 124.147C172.817 123.791 173.303 123.592 173.808 123.594H173.809L224.048 123.805C224.298 123.806 224.546 123.856 224.777 123.953C225.008 124.05 225.217 124.191 225.393 124.369C225.57 124.546 225.709 124.757 225.804 124.989C225.899 125.221 225.947 125.469 225.946 125.719L225.923 131.326C225.921 131.741 225.784 132.144 225.532 132.473Z" fill="white"/>
<path d="M193.435 123.229L193.395 133.321L203.039 133.36L203.079 123.267L193.435 123.229Z" fill="#3F3D56"/>
<path d="M113.768 126.086H58V130.538H113.768V126.086Z" fill="#E5E5E5"/>
<path d="M144.119 142.327H58V146.779H144.119V142.327Z" fill="#6C63FF"/>
<path d="M128.185 157.627H58V162.079H128.185V157.627Z" fill="#E5E5E5"/>
<path d="M76.3837 296.706H41.3219C39.911 296.704 38.5583 296.143 37.5606 295.145C36.5629 294.147 36.0017 292.795 36 291.384V256.322C36.0017 254.911 36.5629 253.558 37.5606 252.561C38.5583 251.563 39.911 251.002 41.3219 251H76.3837C77.7947 251.002 79.1473 251.563 80.145 252.561C81.1427 253.558 81.7039 254.911 81.7056 256.322V291.384C81.7039 292.795 81.1427 294.147 80.145 295.145C79.1473 296.143 77.7947 296.704 76.3837 296.706Z" fill="#6C63FF"/>
<path d="M239.631 333.965H40.5301C39.4508 333.965 38.4156 333.536 37.6524 332.773C36.8892 332.009 36.4604 330.974 36.4604 329.895C36.4604 328.816 36.8892 327.78 37.6524 327.017C38.4156 326.254 39.4508 325.825 40.5301 325.825H239.631C240.711 325.825 241.746 326.254 242.509 327.017C243.272 327.78 243.701 328.816 243.701 329.895C243.701 330.974 243.272 332.009 242.509 332.773C241.746 333.536 240.711 333.965 239.631 333.965Z" fill="#CCCCCC"/>
<path d="M239.765 314.242H40.6639C39.5846 314.242 38.5494 313.814 37.7862 313.05C37.023 312.287 36.5942 311.252 36.5942 310.173C36.5942 309.093 37.023 308.058 37.7862 307.295C38.5494 306.532 39.5846 306.103 40.6639 306.103H239.765C240.844 306.103 241.88 306.532 242.643 307.295C243.406 308.058 243.835 309.093 243.835 310.173C243.835 311.252 243.406 312.287 242.643 313.05C241.88 313.814 240.844 314.242 239.765 314.242Z" fill="#CCCCCC"/>
<path d="M141.467 287.314H112.04C110.961 287.314 109.926 286.885 109.163 286.122C108.399 285.358 107.971 284.323 107.971 283.244C107.971 282.165 108.399 281.13 109.163 280.366C109.926 279.603 110.961 279.174 112.04 279.174H141.467C142.547 279.174 143.582 279.603 144.345 280.366C145.108 281.13 145.537 282.165 145.537 283.244C145.537 284.323 145.108 285.358 144.345 286.122C143.582 286.885 142.547 287.314 141.467 287.314Z" fill="#CCCCCC"/>
<path d="M239.766 267.284H112.04C110.961 267.284 109.926 266.856 109.163 266.092C108.399 265.329 107.971 264.294 107.971 263.215C107.971 262.135 108.399 261.1 109.163 260.337C109.926 259.574 110.961 259.145 112.04 259.145H239.766C240.845 259.145 241.88 259.574 242.643 260.337C243.407 261.1 243.835 262.135 243.835 263.215C243.835 264.294 243.407 265.329 242.643 266.092C241.88 266.856 240.845 267.284 239.766 267.284Z" fill="#CCCCCC"/>
<path d="M136.458 354H40.5301C39.4508 354 38.4156 353.571 37.6524 352.808C36.8892 352.045 36.4604 351.01 36.4604 349.931C36.4604 348.851 36.8892 347.816 37.6524 347.053C38.4156 346.29 39.4508 345.861 40.5301 345.861H136.458C137.537 345.861 138.572 346.29 139.335 347.053C140.099 347.816 140.527 348.851 140.527 349.931C140.527 351.01 140.099 352.045 139.335 352.808C138.572 353.571 137.537 354 136.458 354Z" fill="#CCCCCC"/>
</svg>
