<svg width="293" height="573" viewBox="0 0 293 573" fill="none" xmlns="http://www.w3.org/2000/svg">
<g filter="url(#filter0_d_4462_4560)">
<path d="M286.714 128.163H284.812V32.6712C284.811 24.0062 281.369 15.6962 275.242 9.56916C269.115 3.44212 260.805 -1.7819e-10 252.14 0H39.4785C30.8136 -1.78082e-10 22.5035 3.44212 16.3764 9.56916C10.2493 15.6962 6.80717 24.0062 6.80711 32.6712V74.5098H6.08647C5.57756 74.5099 5.0895 74.712 4.72965 75.0719C4.36979 75.4317 4.16762 75.9198 4.1676 76.4287V95.1401C4.16762 95.649 4.36979 96.137 4.72965 96.4969C5.0895 96.8568 5.57755 97.0589 6.08647 97.059H6.80711V115.787H5.9189C5.6669 115.787 5.41737 115.837 5.18455 115.933C4.95172 116.03 4.74016 116.171 4.56197 116.349C4.38378 116.527 4.24244 116.739 4.14602 116.972C4.04959 117.204 3.99997 117.454 4 117.706V153.117C4.00002 153.626 4.20219 154.114 4.56205 154.474C4.9219 154.834 5.40998 155.036 5.9189 155.036H6.80711V168.77H6.0027C5.75073 168.77 5.5012 168.82 5.2684 168.916C5.03559 169.012 4.82406 169.154 4.64587 169.332C4.46768 169.51 4.32634 169.722 4.22989 169.954C4.13345 170.187 4.08381 170.437 4.0838 170.689V206.436C4.08382 206.945 4.28599 207.433 4.64585 207.792C5.0057 208.152 5.49378 208.354 6.0027 208.354H6.80711V532.328C6.80709 540.993 10.2492 549.304 16.3763 555.431C22.5034 561.558 30.8135 565 39.4785 565H252.14C260.805 565 269.115 561.558 275.242 555.431C281.369 549.304 284.812 540.993 284.812 532.328V196.649H286.714C287.223 196.649 287.711 196.446 288.071 196.087C288.43 195.727 288.633 195.239 288.633 194.73V130.082C288.633 129.573 288.43 129.085 288.071 128.725C287.711 128.365 287.223 128.163 286.714 128.163Z" fill="#3F3D56"/>
<path d="M154.57 25.1715H122.234C121.263 25.1705 120.333 24.7845 119.646 24.0982C118.96 23.4118 118.573 22.4812 118.572 21.5104V20.1103C118.573 19.1396 118.96 18.2089 119.646 17.5226C120.333 16.8362 121.263 16.4502 122.234 16.4492H154.57C155.541 16.4502 156.472 16.8362 157.158 17.5226C157.845 18.2089 158.231 19.1396 158.232 20.1103V21.5104C158.231 22.4812 157.845 23.4118 157.158 24.0982C156.472 24.7845 155.541 25.1705 154.57 25.1715Z" fill="white"/>
<path d="M168.153 25.2891C170.625 25.2891 172.628 23.2857 172.628 20.8145C172.628 18.3432 170.625 16.3398 168.153 16.3398C165.682 16.3398 163.679 18.3432 163.679 20.8145C163.679 23.2857 165.682 25.2891 168.153 25.2891Z" fill="white"/>
<path d="M245.586 15H213.744V18.8294C213.744 23.6519 211.828 28.2769 208.418 31.687C205.008 35.097 200.383 37.0128 195.561 37.0128H94.1191C91.7323 37.0139 89.3687 36.5448 87.1632 35.6325C84.9576 34.7201 82.9535 33.3823 81.265 31.6954C79.5765 30.0084 78.2368 28.0054 77.3224 25.8008C76.408 23.5961 75.9368 21.2329 75.9357 18.8462V15H46.0798C40.2239 15 34.6078 17.3263 30.467 21.467C26.3263 25.6078 24 31.2239 24 37.0798V528.483C24 534.339 26.3263 539.955 30.467 544.096C34.6078 548.237 40.2239 550.563 46.0798 550.563H245.586C251.439 550.563 257.053 548.238 261.193 544.098C265.332 539.959 267.657 534.345 267.657 528.492V37.0798C267.658 34.1813 267.088 31.311 265.98 28.6328C264.872 25.9545 263.247 23.5208 261.198 21.4705C259.15 19.4202 256.717 17.7935 254.04 16.6833C251.362 15.5731 248.493 15.0011 245.594 15H245.586Z" fill="white"/>
<path d="M172.637 409H119.363C115.554 409 111.9 407.472 109.207 404.753C106.513 402.034 105 398.346 105 394.5C105 390.654 106.513 386.966 109.207 384.247C111.9 381.528 115.554 380 119.363 380H172.637C176.446 380 180.1 381.528 182.793 384.247C185.487 386.966 187 390.654 187 394.5C187 398.346 185.487 402.034 182.793 404.753C180.1 407.472 176.446 409 172.637 409Z" fill="#00B9F2"/>
<path d="M222.467 255.921H69.9605C67.8492 255.921 65.8245 255.082 64.3316 253.589C62.8387 252.096 62 250.072 62 247.96C62 245.849 62.8387 243.824 64.3316 242.332C65.8245 240.839 67.8492 240 69.9605 240H222.467C224.578 240 226.603 240.839 228.095 242.332C229.588 243.824 230.427 245.849 230.427 247.96C230.427 250.072 229.588 252.096 228.095 253.589C226.603 255.082 224.578 255.921 222.467 255.921Z" fill="#E6E6E6"/>
<path d="M222.467 279.383H69.9605C67.8492 279.383 65.8245 278.545 64.3316 277.052C62.8387 275.559 62 273.534 62 271.423C62 269.312 62.8387 267.287 64.3316 265.794C65.8245 264.301 67.8492 263.462 69.9605 263.462H222.467C224.578 263.462 226.603 264.301 228.095 265.794C229.588 267.287 230.427 269.312 230.427 271.423C230.427 273.534 229.588 275.559 228.095 277.052C226.603 278.545 224.578 279.383 222.467 279.383Z" fill="#E6E6E6"/>
<path d="M222.467 302.846H69.9605C67.8492 302.846 65.8245 302.007 64.3316 300.514C62.8387 299.021 62 296.997 62 294.885C62 292.774 62.8387 290.749 64.3316 289.256C65.8245 287.763 67.8492 286.925 69.9605 286.925H222.467C224.578 286.925 226.603 287.763 228.095 289.256C229.588 290.749 230.427 292.774 230.427 294.885C230.427 296.997 229.588 299.021 228.095 300.514C226.603 302.007 224.578 302.846 222.467 302.846Z" fill="#E6E6E6"/>
<path d="M222.467 326.308H69.9605C67.8492 326.308 65.8245 325.469 64.3316 323.977C62.8387 322.484 62 320.459 62 318.348C62 316.236 62.8387 314.212 64.3316 312.719C65.8245 311.226 67.8492 310.387 69.9605 310.387H222.467C224.578 310.387 226.603 311.226 228.095 312.719C229.588 314.212 230.427 316.236 230.427 318.348C230.427 320.459 229.588 322.484 228.095 323.977C226.603 325.469 224.578 326.308 222.467 326.308Z" fill="#E6E6E6"/>
<path d="M118.562 349.771H69.9605C67.8492 349.771 65.8245 348.932 64.3316 347.439C62.8387 345.946 62 343.921 62 341.81C62 339.699 62.8387 337.674 64.3316 336.181C65.8245 334.688 67.8492 333.85 69.9605 333.85H118.562C120.673 333.85 122.698 334.688 124.19 336.181C125.683 337.674 126.522 339.699 126.522 341.81C126.522 343.921 125.683 345.946 124.19 347.439C122.698 348.932 120.673 349.771 118.562 349.771H118.562Z" fill="#E6E6E6"/>
<path d="M179.749 170.604H112.251C111.654 170.604 111.082 170.54 110.66 170.427C110.238 170.314 110.001 170.161 110 170.002V156.602C110.001 156.442 110.238 156.289 110.66 156.177C111.082 156.064 111.654 156 112.251 156H179.749C180.346 156 180.918 156.064 181.34 156.177C181.762 156.289 181.999 156.442 182 156.602V170.002C181.999 170.161 181.762 170.314 181.34 170.427C180.918 170.54 180.346 170.604 179.749 170.604Z" fill="#00B9F2"/>
<path d="M179.749 192H112.251C111.654 192 111.082 191.936 110.66 191.823C110.238 191.71 110.001 191.557 110 191.398V177.998C110.001 177.838 110.238 177.685 110.66 177.573C111.082 177.46 111.654 177.396 112.251 177.396H179.749C180.346 177.396 180.918 177.46 181.34 177.573C181.762 177.685 181.999 177.838 182 177.998V191.398C181.999 191.557 181.762 191.71 181.34 191.823C180.918 191.936 180.346 192 179.749 192Z" fill="#00B9F2"/>
<g opacity="0.1">
<path opacity="0.1" d="M281.396 193.707C281.396 192.556 281.396 191.4 281.396 190.238C281.35 191.134 281.35 192.032 281.396 192.928C281.388 193.187 281.396 193.447 281.396 193.707Z" fill="black"/>
</g>
</g>
<defs>
<filter id="filter0_d_4462_4560" x="0" y="0" width="292.632" height="573" filterUnits="userSpaceOnUse" color-interpolation-filters="sRGB">
<feFlood flood-opacity="0" result="BackgroundImageFix"/>
<feColorMatrix in="SourceAlpha" type="matrix" values="0 0 0 0 0 0 0 0 0 0 0 0 0 0 0 0 0 0 127 0" result="hardAlpha"/>
<feOffset dy="4"/>
<feGaussianBlur stdDeviation="2"/>
<feComposite in2="hardAlpha" operator="out"/>
<feColorMatrix type="matrix" values="0 0 0 0 0 0 0 0 0 0 0 0 0 0 0 0 0 0 0.25 0"/>
<feBlend mode="normal" in2="BackgroundImageFix" result="effect1_dropShadow_4462_4560"/>
<feBlend mode="normal" in="SourceGraphic" in2="effect1_dropShadow_4462_4560" result="shape"/>
</filter>
</defs>
</svg>
