<svg width="285" height="629" viewBox="0 0 285 629" fill="none" xmlns="http://www.w3.org/2000/svg">
<path d="M282.123 142.53H280.225V36.3335C280.225 26.6972 276.79 17.4556 270.676 10.6418C264.561 3.82797 256.269 -1.98164e-10 247.622 0H35.4044C26.7576 -1.98045e-10 18.4648 3.82797 12.3506 10.6418C6.23629 17.4556 2.80131 26.6972 2.80125 36.3335V82.862H2.08211C1.57426 82.862 1.08723 83.0869 0.728122 83.487C0.369016 83.8872 0.167269 84.43 0.167249 84.996V105.805C0.167267 106.371 0.369016 106.913 0.728122 107.314C1.08723 107.714 1.57426 107.939 2.08211 107.939H2.80125V128.766H1.91489C1.66342 128.766 1.41441 128.821 1.18207 128.929C0.949736 129.036 0.738615 129.193 0.560796 129.391C0.382978 129.589 0.241934 129.825 0.145711 130.083C0.0494883 130.342 -2.52513e-05 130.62 9.66089e-09 130.9V170.281C1.77503e-05 170.847 0.201767 171.39 0.560873 171.79C0.919979 172.19 1.40704 172.415 1.91489 172.415H2.80125V187.688H1.99851C1.74707 187.688 1.49806 187.743 1.26575 187.851C1.03343 187.958 0.822338 188.115 0.644523 188.313C0.466708 188.511 0.325654 188.747 0.229412 189.005C0.133171 189.264 0.0836387 189.542 0.0836244 189.822V229.576C0.0836466 230.142 0.285392 230.685 0.644497 231.085C1.0036 231.485 1.49066 231.71 1.99851 231.71H2.80125V592C2.80123 601.636 6.23618 610.878 12.3505 617.691C18.4647 624.505 26.7575 628.333 35.4044 628.333H247.622C256.269 628.333 264.561 624.505 270.676 617.691C276.79 610.878 280.225 601.636 280.225 592V218.692H282.123C282.631 218.692 283.118 218.467 283.477 218.067C283.836 217.667 284.038 217.124 284.038 216.558V144.664C284.038 144.098 283.836 143.555 283.477 143.155C283.118 142.754 282.631 142.53 282.123 142.53Z" fill="#3F3D56"/>
<path d="M150.255 27.9935H117.987C117.018 27.9924 116.089 27.5631 115.404 26.7998C114.719 26.0365 114.334 25.0016 114.333 23.922V22.3649C114.334 21.2854 114.719 20.2504 115.404 19.4871C116.089 18.7238 117.018 18.2946 117.987 18.2935H150.255C151.224 18.2946 152.153 18.7238 152.838 19.4871C153.523 20.2504 153.908 21.2854 153.91 22.3649V23.922C153.908 25.0016 153.523 26.0365 152.838 26.7998C152.153 27.5631 151.224 27.9924 150.255 27.9935Z" fill="white"/>
<path d="M163.81 28.124C166.276 28.124 168.275 25.8961 168.275 23.1478C168.275 20.3996 166.276 18.1716 163.81 18.1716C161.344 18.1716 159.345 20.3996 159.345 23.1478C159.345 25.8961 161.344 28.124 163.81 28.124Z" fill="white"/>
<path d="M241.081 16.364H209.306V20.6227C209.306 25.9858 207.394 31.1292 203.991 34.9215C200.588 38.7138 195.973 40.8443 191.161 40.8443H89.9311C87.5493 40.8455 85.1906 40.3239 82.9897 39.3093C80.7888 38.2947 78.7888 36.8069 77.1039 34.9308C75.4189 33.0548 74.082 30.8273 73.1696 28.3755C72.2571 25.9237 71.7868 23.2956 71.7857 20.6413V16.364H41.9922C36.1485 16.364 30.5441 18.951 26.412 23.5559C22.2799 28.1609 19.9585 34.4065 19.9585 40.9188V587.406C19.9585 593.918 22.2799 600.164 26.412 604.769C30.5441 609.374 36.1485 611.961 41.9922 611.961H241.081C246.923 611.961 252.525 609.375 256.656 604.772C260.786 600.168 263.107 593.925 263.107 587.415V40.9188C263.108 37.6955 262.539 34.5034 261.433 31.525C260.327 28.5465 258.706 25.8399 256.662 23.5598C254.617 21.2797 252.19 19.4706 249.518 18.236C246.846 17.0013 243.982 16.3652 241.09 16.364H241.081Z" fill="white"/>
<g filter="url(#filter0_d_3229_4758)">
<path d="M30.9355 162.995C30.9355 165.756 33.1741 167.995 35.9355 167.995H131.429C134.191 167.995 136.429 165.756 136.429 162.995V80.6226C136.429 77.8611 134.191 75.6226 131.429 75.6226H35.9355C33.1741 75.6226 30.9355 77.8611 30.9355 80.6226V162.995Z" fill="white"/>
</g>
<path d="M115.18 141.011L99.3952 111.961C99.2966 111.779 99.1547 111.629 98.9838 111.524C98.8129 111.419 98.6191 111.364 98.4217 111.364C98.2244 111.364 98.0306 111.419 97.8597 111.524C97.6888 111.629 97.5469 111.779 97.4483 111.961L87.8153 129.689L73.4546 103.26C73.3281 103.027 73.1462 102.834 72.9271 102.7C72.708 102.565 72.4595 102.494 72.2065 102.494C71.9535 102.494 71.705 102.565 71.4859 102.7C71.2668 102.834 71.0848 103.027 70.9583 103.26L50.7204 140.505C50.5939 140.738 50.5273 141.002 50.5273 141.271C50.5273 141.54 50.5939 141.804 50.7204 142.037C50.8469 142.269 51.0289 142.463 51.248 142.597C51.467 142.731 51.7156 142.802 51.9686 142.802H114.206C114.404 142.802 114.598 142.747 114.768 142.642C114.939 142.537 115.081 142.387 115.18 142.205C115.279 142.023 115.331 141.817 115.331 141.608C115.331 141.398 115.279 141.192 115.18 141.011Z" fill="#6C63FF"/>
<g filter="url(#filter1_d_3229_4758)">
<path d="M146.978 162.995C146.978 165.756 149.217 167.995 151.978 167.995H247.472C250.233 167.995 252.472 165.756 252.472 162.995V80.6226C252.472 77.8611 250.233 75.6226 247.472 75.6226H151.978C149.217 75.6226 146.978 77.8611 146.978 80.6226V162.995Z" fill="white"/>
</g>
<path d="M231.222 141.011L215.438 111.961C215.339 111.779 215.197 111.629 215.026 111.524C214.855 111.419 214.662 111.364 214.464 111.364C214.267 111.364 214.073 111.419 213.902 111.524C213.731 111.629 213.589 111.779 213.491 111.961L203.858 129.689L189.497 103.26C189.371 103.027 189.189 102.834 188.97 102.7C188.75 102.565 188.502 102.494 188.249 102.494C187.996 102.494 187.747 102.565 187.528 102.7C187.309 102.834 187.127 103.027 187.001 103.26L166.763 140.505C166.636 140.738 166.57 141.002 166.57 141.271C166.57 141.54 166.636 141.804 166.763 142.037C166.889 142.269 167.071 142.463 167.29 142.597C167.51 142.731 167.758 142.802 168.011 142.802H230.249C230.446 142.802 230.64 142.747 230.811 142.642C230.982 142.537 231.124 142.387 231.222 142.205C231.321 142.023 231.373 141.817 231.373 141.608C231.373 141.398 231.321 141.192 231.222 141.011Z" fill="#6C63FF"/>
<g filter="url(#filter2_d_3229_4758)">
<path d="M30.9355 266.419C30.9355 269.181 33.1741 271.419 35.9355 271.419H131.429C134.191 271.419 136.429 269.181 136.429 266.419V184.047C136.429 181.286 134.191 179.047 131.429 179.047H35.9355C33.1741 179.047 30.9355 181.286 30.9355 184.047V266.419Z" fill="white"/>
</g>
<path d="M115.18 244.435L99.3952 215.386C99.2966 215.204 99.1547 215.053 98.9838 214.948C98.8129 214.844 98.6191 214.788 98.4217 214.788C98.2244 214.788 98.0306 214.844 97.8597 214.948C97.6888 215.053 97.5469 215.204 97.4483 215.386L87.8153 233.114L73.4546 206.685C73.3281 206.452 73.1462 206.259 72.9271 206.124C72.708 205.99 72.4595 205.919 72.2065 205.919C71.9535 205.919 71.705 205.99 71.4859 206.124C71.2668 206.259 71.0848 206.452 70.9583 206.685L50.7204 243.93C50.5939 244.163 50.5273 244.427 50.5273 244.695C50.5273 244.964 50.5939 245.228 50.7204 245.461C50.8469 245.694 51.0289 245.887 51.248 246.022C51.467 246.156 51.7156 246.227 51.9686 246.227H114.206C114.404 246.227 114.598 246.172 114.768 246.067C114.939 245.962 115.081 245.811 115.18 245.63C115.279 245.448 115.331 245.242 115.331 245.032C115.331 244.823 115.279 244.617 115.18 244.435Z" fill="#6C63FF"/>
<g filter="url(#filter3_d_3229_4758)">
<path d="M146.978 266.419C146.978 269.181 149.217 271.419 151.978 271.419H247.472C250.233 271.419 252.472 269.181 252.472 266.419V184.047C252.472 181.286 250.233 179.047 247.472 179.047H151.978C149.217 179.047 146.978 181.286 146.978 184.047V266.419Z" fill="white"/>
</g>
<path d="M231.222 244.435L215.438 215.386C215.339 215.204 215.197 215.053 215.026 214.948C214.855 214.844 214.662 214.788 214.464 214.788C214.267 214.788 214.073 214.844 213.902 214.948C213.731 215.053 213.589 215.204 213.491 215.386L203.858 233.114L189.497 206.685C189.371 206.452 189.189 206.259 188.97 206.124C188.75 205.99 188.502 205.919 188.249 205.919C187.996 205.919 187.747 205.99 187.528 206.124C187.309 206.259 187.127 206.452 187.001 206.685L166.763 243.93C166.636 244.163 166.57 244.427 166.57 244.695C166.57 244.964 166.636 245.228 166.763 245.461C166.889 245.694 167.071 245.887 167.29 246.022C167.51 246.156 167.758 246.227 168.011 246.227H230.249C230.446 246.227 230.64 246.172 230.811 246.067C230.982 245.962 231.124 245.811 231.222 245.63C231.321 245.448 231.373 245.242 231.373 245.032C231.373 244.823 231.321 244.617 231.222 244.435Z" fill="#6C63FF"/>
<g filter="url(#filter4_d_3229_4758)">
<path d="M30.9355 369.844C30.9355 372.605 33.1741 374.844 35.9355 374.844H131.429C134.191 374.844 136.429 372.605 136.429 369.844V287.472C136.429 284.711 134.191 282.472 131.429 282.472H35.9355C33.1741 282.472 30.9355 284.711 30.9355 287.472V369.844Z" fill="white"/>
</g>
<path d="M115.18 347.86L99.3952 318.81C99.2966 318.629 99.1547 318.478 98.9838 318.373C98.8129 318.268 98.6191 318.213 98.4217 318.213C98.2244 318.213 98.0306 318.268 97.8597 318.373C97.6888 318.478 97.5469 318.629 97.4483 318.81L87.8153 336.538L73.4546 310.109C73.3281 309.877 73.1462 309.683 72.9271 309.549C72.708 309.415 72.4595 309.344 72.2065 309.344C71.9535 309.344 71.705 309.415 71.4859 309.549C71.2668 309.683 71.0848 309.877 70.9583 310.109L50.7204 347.355C50.5939 347.587 50.5273 347.851 50.5273 348.12C50.5273 348.389 50.5939 348.653 50.7204 348.886C50.8469 349.119 51.0289 349.312 51.248 349.446C51.467 349.581 51.7156 349.652 51.9686 349.652H114.206C114.404 349.652 114.598 349.596 114.768 349.492C114.939 349.387 115.081 349.236 115.18 349.054C115.279 348.873 115.331 348.667 115.331 348.457C115.331 348.248 115.279 348.042 115.18 347.86Z" fill="#6C63FF"/>
<g filter="url(#filter5_d_3229_4758)">
<path d="M146.978 369.844C146.978 372.605 149.217 374.844 151.978 374.844H247.472C250.233 374.844 252.472 372.605 252.472 369.844V287.472C252.472 284.711 250.233 282.472 247.472 282.472H151.978C149.217 282.472 146.978 284.711 146.978 287.472V369.844Z" fill="white"/>
</g>
<path d="M231.222 347.86L215.438 318.81C215.339 318.629 215.197 318.478 215.026 318.373C214.855 318.268 214.662 318.213 214.464 318.213C214.267 318.213 214.073 318.268 213.902 318.373C213.731 318.478 213.589 318.629 213.491 318.81L203.858 336.538L189.497 310.109C189.371 309.877 189.189 309.683 188.97 309.549C188.75 309.415 188.502 309.344 188.249 309.344C187.996 309.344 187.747 309.415 187.528 309.549C187.309 309.683 187.127 309.877 187.001 310.109L166.763 347.355C166.636 347.587 166.57 347.851 166.57 348.12C166.57 348.389 166.636 348.653 166.763 348.886C166.889 349.119 167.071 349.312 167.29 349.446C167.51 349.581 167.758 349.652 168.011 349.652H230.249C230.446 349.652 230.64 349.596 230.811 349.492C230.982 349.387 231.124 349.236 231.222 349.054C231.321 348.873 231.373 348.667 231.373 348.457C231.373 348.248 231.321 348.042 231.222 347.86Z" fill="#6C63FF"/>
<g filter="url(#filter6_d_3229_4758)">
<path d="M30.9355 473.269C30.9355 476.03 33.1741 478.269 35.9355 478.269H131.429C134.191 478.269 136.429 476.03 136.429 473.269V390.896C136.429 388.135 134.191 385.896 131.429 385.896H35.9355C33.1741 385.896 30.9355 388.135 30.9355 390.896V473.269Z" fill="white"/>
</g>
<path d="M115.18 451.284L99.3952 422.235C99.2966 422.053 99.1547 421.902 98.9838 421.798C98.8129 421.693 98.6191 421.637 98.4217 421.637C98.2244 421.637 98.0306 421.693 97.8597 421.798C97.6888 421.902 97.5469 422.053 97.4483 422.235L87.8153 439.963L73.4546 413.534C73.3281 413.301 73.1462 413.108 72.9271 412.973C72.708 412.839 72.4595 412.768 72.2065 412.768C71.9535 412.768 71.705 412.839 71.4859 412.973C71.2668 413.108 71.0848 413.301 70.9583 413.534L50.7204 450.779C50.5939 451.012 50.5273 451.276 50.5273 451.545C50.5273 451.813 50.5939 452.077 50.7204 452.31C50.8469 452.543 51.0289 452.736 51.248 452.871C51.467 453.005 51.7156 453.076 51.9686 453.076H114.206C114.404 453.076 114.598 453.021 114.768 452.916C114.939 452.811 115.081 452.66 115.18 452.479C115.279 452.297 115.331 452.091 115.331 451.881C115.331 451.672 115.279 451.466 115.18 451.284Z" fill="#6C63FF"/>
<g filter="url(#filter7_d_3229_4758)">
<path d="M146.978 473.269C146.978 476.03 149.217 478.269 151.978 478.269H247.472C250.233 478.269 252.472 476.03 252.472 473.269V390.896C252.472 388.135 250.233 385.896 247.472 385.896H151.978C149.217 385.896 146.978 388.135 146.978 390.896V473.269Z" fill="white"/>
</g>
<path d="M231.222 451.284L215.438 422.235C215.339 422.053 215.197 421.902 215.026 421.798C214.855 421.693 214.662 421.637 214.464 421.637C214.267 421.637 214.073 421.693 213.902 421.798C213.731 421.902 213.589 422.053 213.491 422.235L203.858 439.963L189.497 413.534C189.371 413.301 189.189 413.108 188.97 412.973C188.75 412.839 188.502 412.768 188.249 412.768C187.996 412.768 187.747 412.839 187.528 412.973C187.309 413.108 187.127 413.301 187.001 413.534L166.763 450.779C166.636 451.012 166.57 451.276 166.57 451.545C166.57 451.813 166.636 452.077 166.763 452.31C166.889 452.543 167.071 452.736 167.29 452.871C167.51 453.005 167.758 453.076 168.011 453.076H230.249C230.446 453.076 230.64 453.021 230.811 452.916C230.982 452.811 231.124 452.66 231.222 452.479C231.321 452.297 231.373 452.091 231.373 451.881C231.373 451.672 231.321 451.466 231.222 451.284Z" fill="#6C63FF"/>
<g filter="url(#filter8_d_3229_4758)">
<path d="M30.9355 576.694C30.9355 579.455 33.1741 581.694 35.9355 581.694H131.429C134.191 581.694 136.429 579.455 136.429 576.694V494.322C136.429 491.561 134.191 489.322 131.429 489.322H35.9355C33.1741 489.322 30.9355 491.561 30.9355 494.322V576.694Z" fill="white"/>
</g>
<path d="M115.18 554.71L99.3952 525.66C99.2966 525.479 99.1547 525.328 98.9838 525.223C98.8129 525.118 98.6191 525.063 98.4217 525.063C98.2244 525.063 98.0306 525.118 97.8597 525.223C97.6888 525.328 97.5469 525.479 97.4483 525.66L87.8153 543.389L73.4546 516.96C73.3281 516.727 73.1462 516.533 72.9271 516.399C72.708 516.265 72.4595 516.194 72.2065 516.194C71.9535 516.194 71.705 516.265 71.4859 516.399C71.2668 516.533 71.0848 516.727 70.9583 516.96L50.7204 554.205C50.5939 554.437 50.5273 554.702 50.5273 554.97C50.5273 555.239 50.5939 555.503 50.7204 555.736C50.8469 555.969 51.0289 556.162 51.248 556.296C51.467 556.431 51.7156 556.502 51.9686 556.502H114.206C114.404 556.502 114.598 556.446 114.768 556.342C114.939 556.237 115.081 556.086 115.18 555.904C115.279 555.723 115.331 555.517 115.331 555.307C115.331 555.098 115.279 554.892 115.18 554.71Z" fill="#6C63FF"/>
<g filter="url(#filter9_d_3229_4758)">
<path d="M146.978 576.694C146.978 579.455 149.217 581.694 151.978 581.694H247.472C250.233 581.694 252.472 579.455 252.472 576.694V494.322C252.472 491.561 250.233 489.322 247.472 489.322H151.978C149.217 489.322 146.978 491.561 146.978 494.322V576.694Z" fill="white"/>
</g>
<path d="M231.222 554.71L215.438 525.66C215.339 525.479 215.197 525.328 215.026 525.223C214.855 525.118 214.662 525.063 214.464 525.063C214.267 525.063 214.073 525.118 213.902 525.223C213.731 525.328 213.589 525.479 213.491 525.66L203.858 543.389L189.497 516.96C189.371 516.727 189.189 516.533 188.97 516.399C188.75 516.265 188.502 516.194 188.249 516.194C187.996 516.194 187.747 516.265 187.528 516.399C187.309 516.533 187.127 516.727 187.001 516.96L166.763 554.205C166.636 554.437 166.57 554.702 166.57 554.97C166.57 555.239 166.636 555.503 166.763 555.736C166.889 555.969 167.071 556.162 167.29 556.296C167.51 556.431 167.758 556.502 168.011 556.502H230.249C230.446 556.502 230.64 556.446 230.811 556.342C230.982 556.237 231.124 556.086 231.222 555.904C231.321 555.723 231.373 555.517 231.373 555.307C231.373 555.098 231.321 554.892 231.222 554.71Z" fill="#6C63FF"/>
<defs>
<filter id="filter0_d_3229_4758" x="26.9355" y="75.6226" width="113.494" height="100.372" filterUnits="userSpaceOnUse" color-interpolation-filters="sRGB">
<feFlood flood-opacity="0" result="BackgroundImageFix"/>
<feColorMatrix in="SourceAlpha" type="matrix" values="0 0 0 0 0 0 0 0 0 0 0 0 0 0 0 0 0 0 127 0" result="hardAlpha"/>
<feOffset dy="4"/>
<feGaussianBlur stdDeviation="2"/>
<feComposite in2="hardAlpha" operator="out"/>
<feColorMatrix type="matrix" values="0 0 0 0 0 0 0 0 0 0 0 0 0 0 0 0 0 0 0.15 0"/>
<feBlend mode="normal" in2="BackgroundImageFix" result="effect1_dropShadow_3229_4758"/>
<feBlend mode="normal" in="SourceGraphic" in2="effect1_dropShadow_3229_4758" result="shape"/>
</filter>
<filter id="filter1_d_3229_4758" x="142.978" y="75.6226" width="113.494" height="100.372" filterUnits="userSpaceOnUse" color-interpolation-filters="sRGB">
<feFlood flood-opacity="0" result="BackgroundImageFix"/>
<feColorMatrix in="SourceAlpha" type="matrix" values="0 0 0 0 0 0 0 0 0 0 0 0 0 0 0 0 0 0 127 0" result="hardAlpha"/>
<feOffset dy="4"/>
<feGaussianBlur stdDeviation="2"/>
<feComposite in2="hardAlpha" operator="out"/>
<feColorMatrix type="matrix" values="0 0 0 0 0 0 0 0 0 0 0 0 0 0 0 0 0 0 0.15 0"/>
<feBlend mode="normal" in2="BackgroundImageFix" result="effect1_dropShadow_3229_4758"/>
<feBlend mode="normal" in="SourceGraphic" in2="effect1_dropShadow_3229_4758" result="shape"/>
</filter>
<filter id="filter2_d_3229_4758" x="26.9355" y="179.047" width="113.494" height="100.372" filterUnits="userSpaceOnUse" color-interpolation-filters="sRGB">
<feFlood flood-opacity="0" result="BackgroundImageFix"/>
<feColorMatrix in="SourceAlpha" type="matrix" values="0 0 0 0 0 0 0 0 0 0 0 0 0 0 0 0 0 0 127 0" result="hardAlpha"/>
<feOffset dy="4"/>
<feGaussianBlur stdDeviation="2"/>
<feComposite in2="hardAlpha" operator="out"/>
<feColorMatrix type="matrix" values="0 0 0 0 0 0 0 0 0 0 0 0 0 0 0 0 0 0 0.15 0"/>
<feBlend mode="normal" in2="BackgroundImageFix" result="effect1_dropShadow_3229_4758"/>
<feBlend mode="normal" in="SourceGraphic" in2="effect1_dropShadow_3229_4758" result="shape"/>
</filter>
<filter id="filter3_d_3229_4758" x="142.978" y="179.047" width="113.494" height="100.372" filterUnits="userSpaceOnUse" color-interpolation-filters="sRGB">
<feFlood flood-opacity="0" result="BackgroundImageFix"/>
<feColorMatrix in="SourceAlpha" type="matrix" values="0 0 0 0 0 0 0 0 0 0 0 0 0 0 0 0 0 0 127 0" result="hardAlpha"/>
<feOffset dy="4"/>
<feGaussianBlur stdDeviation="2"/>
<feComposite in2="hardAlpha" operator="out"/>
<feColorMatrix type="matrix" values="0 0 0 0 0 0 0 0 0 0 0 0 0 0 0 0 0 0 0.15 0"/>
<feBlend mode="normal" in2="BackgroundImageFix" result="effect1_dropShadow_3229_4758"/>
<feBlend mode="normal" in="SourceGraphic" in2="effect1_dropShadow_3229_4758" result="shape"/>
</filter>
<filter id="filter4_d_3229_4758" x="26.9355" y="282.472" width="113.494" height="100.372" filterUnits="userSpaceOnUse" color-interpolation-filters="sRGB">
<feFlood flood-opacity="0" result="BackgroundImageFix"/>
<feColorMatrix in="SourceAlpha" type="matrix" values="0 0 0 0 0 0 0 0 0 0 0 0 0 0 0 0 0 0 127 0" result="hardAlpha"/>
<feOffset dy="4"/>
<feGaussianBlur stdDeviation="2"/>
<feComposite in2="hardAlpha" operator="out"/>
<feColorMatrix type="matrix" values="0 0 0 0 0 0 0 0 0 0 0 0 0 0 0 0 0 0 0.15 0"/>
<feBlend mode="normal" in2="BackgroundImageFix" result="effect1_dropShadow_3229_4758"/>
<feBlend mode="normal" in="SourceGraphic" in2="effect1_dropShadow_3229_4758" result="shape"/>
</filter>
<filter id="filter5_d_3229_4758" x="142.978" y="282.472" width="113.494" height="100.372" filterUnits="userSpaceOnUse" color-interpolation-filters="sRGB">
<feFlood flood-opacity="0" result="BackgroundImageFix"/>
<feColorMatrix in="SourceAlpha" type="matrix" values="0 0 0 0 0 0 0 0 0 0 0 0 0 0 0 0 0 0 127 0" result="hardAlpha"/>
<feOffset dy="4"/>
<feGaussianBlur stdDeviation="2"/>
<feComposite in2="hardAlpha" operator="out"/>
<feColorMatrix type="matrix" values="0 0 0 0 0 0 0 0 0 0 0 0 0 0 0 0 0 0 0.15 0"/>
<feBlend mode="normal" in2="BackgroundImageFix" result="effect1_dropShadow_3229_4758"/>
<feBlend mode="normal" in="SourceGraphic" in2="effect1_dropShadow_3229_4758" result="shape"/>
</filter>
<filter id="filter6_d_3229_4758" x="26.9355" y="385.896" width="113.494" height="100.372" filterUnits="userSpaceOnUse" color-interpolation-filters="sRGB">
<feFlood flood-opacity="0" result="BackgroundImageFix"/>
<feColorMatrix in="SourceAlpha" type="matrix" values="0 0 0 0 0 0 0 0 0 0 0 0 0 0 0 0 0 0 127 0" result="hardAlpha"/>
<feOffset dy="4"/>
<feGaussianBlur stdDeviation="2"/>
<feComposite in2="hardAlpha" operator="out"/>
<feColorMatrix type="matrix" values="0 0 0 0 0 0 0 0 0 0 0 0 0 0 0 0 0 0 0.15 0"/>
<feBlend mode="normal" in2="BackgroundImageFix" result="effect1_dropShadow_3229_4758"/>
<feBlend mode="normal" in="SourceGraphic" in2="effect1_dropShadow_3229_4758" result="shape"/>
</filter>
<filter id="filter7_d_3229_4758" x="142.978" y="385.896" width="113.494" height="100.372" filterUnits="userSpaceOnUse" color-interpolation-filters="sRGB">
<feFlood flood-opacity="0" result="BackgroundImageFix"/>
<feColorMatrix in="SourceAlpha" type="matrix" values="0 0 0 0 0 0 0 0 0 0 0 0 0 0 0 0 0 0 127 0" result="hardAlpha"/>
<feOffset dy="4"/>
<feGaussianBlur stdDeviation="2"/>
<feComposite in2="hardAlpha" operator="out"/>
<feColorMatrix type="matrix" values="0 0 0 0 0 0 0 0 0 0 0 0 0 0 0 0 0 0 0.15 0"/>
<feBlend mode="normal" in2="BackgroundImageFix" result="effect1_dropShadow_3229_4758"/>
<feBlend mode="normal" in="SourceGraphic" in2="effect1_dropShadow_3229_4758" result="shape"/>
</filter>
<filter id="filter8_d_3229_4758" x="26.9355" y="489.322" width="113.494" height="100.372" filterUnits="userSpaceOnUse" color-interpolation-filters="sRGB">
<feFlood flood-opacity="0" result="BackgroundImageFix"/>
<feColorMatrix in="SourceAlpha" type="matrix" values="0 0 0 0 0 0 0 0 0 0 0 0 0 0 0 0 0 0 127 0" result="hardAlpha"/>
<feOffset dy="4"/>
<feGaussianBlur stdDeviation="2"/>
<feComposite in2="hardAlpha" operator="out"/>
<feColorMatrix type="matrix" values="0 0 0 0 0 0 0 0 0 0 0 0 0 0 0 0 0 0 0.15 0"/>
<feBlend mode="normal" in2="BackgroundImageFix" result="effect1_dropShadow_3229_4758"/>
<feBlend mode="normal" in="SourceGraphic" in2="effect1_dropShadow_3229_4758" result="shape"/>
</filter>
<filter id="filter9_d_3229_4758" x="142.978" y="489.322" width="113.494" height="100.372" filterUnits="userSpaceOnUse" color-interpolation-filters="sRGB">
<feFlood flood-opacity="0" result="BackgroundImageFix"/>
<feColorMatrix in="SourceAlpha" type="matrix" values="0 0 0 0 0 0 0 0 0 0 0 0 0 0 0 0 0 0 127 0" result="hardAlpha"/>
<feOffset dy="4"/>
<feGaussianBlur stdDeviation="2"/>
<feComposite in2="hardAlpha" operator="out"/>
<feColorMatrix type="matrix" values="0 0 0 0 0 0 0 0 0 0 0 0 0 0 0 0 0 0 0.15 0"/>
<feBlend mode="normal" in2="BackgroundImageFix" result="effect1_dropShadow_3229_4758"/>
<feBlend mode="normal" in="SourceGraphic" in2="effect1_dropShadow_3229_4758" result="shape"/>
</filter>
</defs>
</svg>
