<svg width="285" height="565" viewBox="0 0 285 565" fill="none" xmlns="http://www.w3.org/2000/svg">
<path d="M282.714 128.163H280.812V32.6712C280.811 24.0062 277.369 15.6962 271.242 9.56916C265.115 3.44212 256.805 -1.7819e-10 248.14 0H35.4785C26.8136 -1.78082e-10 18.5035 3.44212 12.3764 9.56916C6.24934 15.6962 2.80717 24.0062 2.80711 32.6712V74.5098H2.08647C1.57756 74.5099 1.0895 74.712 0.729646 75.0719C0.369788 75.4317 0.167619 75.9198 0.167599 76.4287V95.1401C0.167617 95.649 0.369788 96.137 0.729646 96.4969C1.0895 96.8568 1.57755 97.0589 2.08647 97.059H2.80711V115.787H1.9189C1.6669 115.787 1.41737 115.837 1.18455 115.933C0.951724 116.03 0.740161 116.171 0.56197 116.349C0.38378 116.527 0.24244 116.739 0.146016 116.972C0.0495918 117.204 -2.53041e-05 117.454 9.6811e-09 117.706V153.117C1.77875e-05 153.626 0.202189 154.114 0.562047 154.474C0.921905 154.834 1.40998 155.036 1.9189 155.036H2.80711V168.77H2.0027C1.75073 168.77 1.5012 168.82 1.2684 168.916C1.03559 169.012 0.824059 169.154 0.645872 169.332C0.467684 169.51 0.326335 169.722 0.229892 169.954C0.133449 170.187 0.0838137 170.437 0.0837994 170.689V206.436C0.0838217 206.944 0.28599 207.433 0.645846 207.792C1.0057 208.152 1.49378 208.354 2.0027 208.354H2.80711V532.328C2.80709 540.993 6.24923 549.304 12.3763 555.431C18.5034 561.558 26.8135 565 35.4785 565H248.14C256.805 565 265.115 561.558 271.242 555.431C277.369 549.304 280.812 540.993 280.812 532.328V196.649H282.714C283.223 196.649 283.711 196.446 284.071 196.087C284.43 195.727 284.633 195.239 284.633 194.73V130.082C284.633 129.573 284.43 129.085 284.071 128.725C283.711 128.365 283.223 128.163 282.714 128.163Z" fill="#3F3D56"/>
<path d="M150.57 25.1715H118.234C117.263 25.1705 116.332 24.7845 115.646 24.0982C114.959 23.4118 114.573 22.4812 114.572 21.5104V20.1103C114.573 19.1396 114.959 18.2089 115.646 17.5226C116.332 16.8362 117.263 16.4502 118.234 16.4492H150.57C151.541 16.4502 152.471 16.8362 153.158 17.5226C153.844 18.2089 154.23 19.1396 154.232 20.1103V21.5104C154.23 22.4812 153.844 23.4118 153.158 24.0982C152.471 24.7845 151.541 25.1705 150.57 25.1715Z" fill="white"/>
<path d="M164.153 25.2891C166.625 25.2891 168.628 23.2857 168.628 20.8145C168.628 18.3432 166.625 16.3398 164.153 16.3398C161.682 16.3398 159.679 18.3432 159.679 20.8145C159.679 23.2857 161.682 25.2891 164.153 25.2891Z" fill="white"/>
<g opacity="0.1">
<path opacity="0.1" d="M277.396 193.707C277.396 192.556 277.396 191.4 277.396 190.238C277.35 191.134 277.35 192.032 277.396 192.928C277.388 193.187 277.396 193.447 277.396 193.707Z" fill="black"/>
</g>
<path fill-rule="evenodd" clip-rule="evenodd" d="M206.58 15H229.166C233.802 15 238.392 15.9395 242.675 17.7649C246.958 19.5902 250.849 22.2657 254.127 25.6386C257.405 29.0114 260.005 33.0156 261.779 37.4224C263.553 41.8293 264.466 46.5525 264.466 51.3224V511.678C264.466 521.311 260.747 530.55 254.127 537.361C247.507 544.173 238.528 548 229.166 548H55.3002C50.6645 548 46.0742 547.06 41.7914 545.235C37.5086 543.41 33.6171 540.734 30.3392 537.361C27.0613 533.989 24.4611 529.984 22.6871 525.578C20.9131 521.171 20 516.448 20 511.678V51.3223C20 41.689 23.7192 32.4503 30.3392 25.6385C36.9593 18.8268 45.9381 15 55.3003 15H76.396C75.3574 17.6203 74.9609 20.4632 75.2415 23.2783C75.5221 26.0934 76.4713 28.7942 78.0053 31.143C79.5394 33.4917 81.6112 35.4162 84.0384 36.747C86.4656 38.0777 89.1735 38.7739 91.9237 38.7741H191.052C193.802 38.7739 196.51 38.0777 198.937 36.747C201.364 35.4162 203.436 33.4917 204.97 31.143C206.504 28.7943 207.453 26.0934 207.734 23.2783C208.015 20.4632 207.618 17.6203 206.58 15Z" fill="white"/>
<path d="M112.342 99.4662H67.218C64.504 99.4662 61.9011 98.3881 59.982 96.469C58.063 94.5499 56.9849 91.9471 56.9849 89.2331C56.9849 86.5191 58.063 83.9163 59.982 81.9972C61.9011 80.0781 64.504 79 67.218 79H112.342C115.056 79 117.658 80.0781 119.578 81.9972C121.497 83.9163 122.575 86.5191 122.575 89.2331C122.575 91.9471 121.497 94.5499 119.578 96.469C117.658 98.3881 115.056 99.4662 112.342 99.4662V99.4662Z" fill="#6C63FF"/>
<path d="M211.542 122H61.4579C60.2756 122 59.1417 121.421 58.3057 120.389C57.4697 119.358 57 117.959 57 116.5C57 115.041 57.4697 113.642 58.3057 112.611C59.1417 111.579 60.2756 111 61.4579 111H211.542C212.724 111 213.858 111.579 214.694 112.611C215.53 113.642 216 115.041 216 116.5C216 117.959 215.53 119.358 214.694 120.389C213.858 121.421 212.724 122 211.542 122Z" fill="#E6E6E6"/>
<path d="M116.545 144H61.4547C60.2733 144 59.1402 143.421 58.3048 142.389C57.4694 141.358 57 139.959 57 138.5C57 137.041 57.4694 135.642 58.3048 134.611C59.1402 133.579 60.2733 133 61.4547 133H116.545C117.727 133 118.86 133.579 119.695 134.611C120.531 135.642 121 137.041 121 138.5C121 139.959 120.531 141.358 119.695 142.389C118.86 143.421 117.727 144 116.545 144Z" fill="#E6E6E6"/>
<path d="M112.342 346.922H67.218C64.504 346.922 61.9011 345.844 59.982 343.925C58.063 342.006 56.9849 339.403 56.9849 336.689C56.9849 333.975 58.063 331.372 59.982 329.453C61.9011 327.534 64.504 326.456 67.218 326.456H112.342C115.056 326.456 117.658 327.534 119.578 329.453C121.497 331.372 122.575 333.975 122.575 336.689C122.575 339.403 121.497 342.006 119.578 343.925C117.658 345.844 115.056 346.922 112.342 346.922V346.922Z" fill="#6C63FF"/>
<path d="M211.542 369H61.4579C60.2756 369 59.1417 368.421 58.3057 367.389C57.4697 366.358 57 364.959 57 363.5C57 362.041 57.4697 360.642 58.3057 359.611C59.1417 358.579 60.2756 358 61.4579 358H211.542C212.724 358 213.858 358.579 214.694 359.611C215.53 360.642 216 362.041 216 363.5C216 364.959 215.53 366.358 214.694 367.389C213.858 368.421 212.724 369 211.542 369Z" fill="#E6E6E6"/>
<path d="M116.545 392H61.4547C60.2733 392 59.1402 391.368 58.3048 390.243C57.4694 389.117 57 387.591 57 386C57 384.409 57.4694 382.883 58.3048 381.757C59.1402 380.632 60.2733 380 61.4547 380H116.545C117.727 380 118.86 380.632 119.695 381.757C120.531 382.883 121 384.409 121 386C121 387.591 120.531 389.117 119.695 390.243C118.86 391.368 117.727 392 116.545 392Z" fill="#E6E6E6"/>
<path d="M112.342 461.347H67.218C64.504 461.347 61.9011 460.269 59.982 458.349C58.063 456.43 56.9849 453.827 56.9849 451.113C56.9849 448.4 58.063 445.797 59.982 443.878C61.9011 441.958 64.504 440.88 67.218 440.88H112.342C115.056 440.88 117.658 441.958 119.578 443.878C121.497 445.797 122.575 448.4 122.575 451.113C122.575 453.827 121.497 456.43 119.578 458.349C117.658 460.269 115.056 461.347 112.342 461.347V461.347Z" fill="#6C63FF"/>
<path d="M211.542 484H61.4579C60.2756 484 59.1417 483.421 58.3057 482.389C57.4697 481.358 57 479.959 57 478.5C57 477.041 57.4697 475.642 58.3057 474.611C59.1417 473.579 60.2756 473 61.4579 473H211.542C212.724 473 213.858 473.579 214.694 474.611C215.53 475.642 216 477.041 216 478.5C216 479.959 215.53 481.358 214.694 482.389C213.858 483.421 212.724 484 211.542 484Z" fill="#E6E6E6"/>
<path d="M116.545 506H61.4547C60.2733 506 59.1402 505.421 58.3048 504.389C57.4694 503.358 57 501.959 57 500.5C57 499.041 57.4694 497.642 58.3048 496.611C59.1402 495.579 60.2733 495 61.4547 495H116.545C117.727 495 118.86 495.579 119.695 496.611C120.531 497.642 121 499.041 121 500.5C121 501.959 120.531 503.358 119.695 504.389C118.86 505.421 117.727 506 116.545 506Z" fill="#E6E6E6"/>
<path d="M237.655 277H40.3449C39.193 276.998 38.0886 276.248 37.2741 274.916C36.4595 273.584 36.0013 271.778 36 269.893V182.107C36.0013 180.222 36.4595 178.416 37.274 177.084C38.0886 175.752 39.193 175.002 40.3449 175H237.655C238.807 175.002 239.911 175.752 240.726 177.084C241.54 178.416 241.999 180.222 242 182.107V269.893C241.999 271.778 241.54 273.584 240.726 274.916C239.911 276.248 238.807 276.998 237.655 277Z" fill="#6C63FF"/>
<path d="M110.477 215H62.5231C59.4777 215 57 211.411 57 207C57 202.589 59.4777 199 62.5232 199H110.477C113.522 199 116 202.589 116 207C116 211.411 113.522 215 110.477 215Z" fill="white"/>
<path d="M212.345 235H60.6552C59.6858 235 58.7561 234.421 58.0706 233.389C57.3851 232.358 57 230.959 57 229.5C57 228.041 57.3851 226.642 58.0706 225.611C58.7561 224.579 59.6858 224 60.6552 224H212.345C213.314 224 214.244 224.579 214.929 225.611C215.615 226.642 216 228.041 216 229.5C216 230.959 215.615 232.358 214.929 233.389C214.244 234.421 213.314 235 212.345 235Z" fill="#E6E6E6"/>
<path d="M134.351 256H60.6486C59.681 256 58.7529 255.421 58.0687 254.389C57.3844 253.358 57 251.959 57 250.5C57 249.041 57.3844 247.642 58.0687 246.611C58.7529 245.579 59.681 245 60.6486 245H134.351C135.319 245 136.247 245.579 136.931 246.611C137.616 247.642 138 249.041 138 250.5C138 251.959 137.616 253.358 136.931 254.389C136.247 255.421 135.319 256 134.351 256Z" fill="#E6E6E6"/>
</svg>
