<svg width="285" height="565" viewBox="0 0 285 565" fill="none" xmlns="http://www.w3.org/2000/svg">
<path d="M282.714 128.163H280.812V32.6712C280.811 24.0062 277.369 15.6962 271.242 9.56916C265.115 3.44212 256.805 -1.7819e-10 248.14 0H35.4785C26.8136 -1.78082e-10 18.5035 3.44212 12.3764 9.56916C6.24934 15.6962 2.80717 24.0062 2.80711 32.6712V74.5098H2.08647C1.57756 74.5099 1.0895 74.712 0.729646 75.0719C0.369788 75.4317 0.167619 75.9198 0.167599 76.4287V95.1401C0.167617 95.649 0.369788 96.137 0.729646 96.4969C1.0895 96.8568 1.57755 97.0589 2.08647 97.059H2.80711V115.787H1.9189C1.6669 115.787 1.41737 115.837 1.18455 115.933C0.951724 116.03 0.740161 116.171 0.56197 116.349C0.38378 116.527 0.24244 116.739 0.146016 116.972C0.0495918 117.204 -2.53041e-05 117.454 9.6811e-09 117.706V153.117C1.77875e-05 153.626 0.202189 154.114 0.562047 154.474C0.921905 154.834 1.40998 155.036 1.9189 155.036H2.80711V168.77H2.0027C1.75073 168.77 1.5012 168.82 1.2684 168.916C1.03559 169.012 0.824059 169.154 0.645872 169.332C0.467684 169.51 0.326335 169.722 0.229892 169.954C0.133449 170.187 0.0838137 170.437 0.0837994 170.689V206.436C0.0838217 206.944 0.28599 207.433 0.645846 207.792C1.0057 208.152 1.49378 208.354 2.0027 208.354H2.80711V532.328C2.80709 540.993 6.24923 549.304 12.3763 555.431C18.5034 561.558 26.8135 565 35.4785 565H248.14C256.805 565 265.115 561.558 271.242 555.431C277.369 549.304 280.812 540.993 280.812 532.328V196.649H282.714C283.223 196.649 283.711 196.446 284.071 196.087C284.43 195.727 284.633 195.239 284.633 194.73V130.082C284.633 129.573 284.43 129.085 284.071 128.725C283.711 128.365 283.223 128.163 282.714 128.163Z" fill="#3F3D56"/>
<path d="M150.57 25.1715H118.234C117.263 25.1705 116.332 24.7845 115.646 24.0982C114.959 23.4118 114.573 22.4812 114.572 21.5104V20.1103C114.573 19.1396 114.959 18.2089 115.646 17.5226C116.332 16.8362 117.263 16.4502 118.234 16.4492H150.57C151.541 16.4502 152.471 16.8362 153.158 17.5226C153.844 18.2089 154.23 19.1396 154.232 20.1103V21.5104C154.23 22.4812 153.844 23.4118 153.158 24.0982C152.471 24.7845 151.541 25.1705 150.57 25.1715Z" fill="white"/>
<path d="M164.153 25.2891C166.625 25.2891 168.628 23.2857 168.628 20.8145C168.628 18.3432 166.625 16.3398 164.153 16.3398C161.682 16.3398 159.679 18.3432 159.679 20.8145C159.679 23.2857 161.682 25.2891 164.153 25.2891Z" fill="white"/>
<g opacity="0.1">
<path opacity="0.1" d="M277.396 193.707C277.396 192.556 277.396 191.4 277.396 190.238C277.35 191.134 277.35 192.032 277.396 192.928C277.388 193.187 277.396 193.447 277.396 193.707Z" fill="black"/>
</g>
<path fill-rule="evenodd" clip-rule="evenodd" d="M206.58 15H229.166C233.802 15 238.392 15.9395 242.675 17.7649C246.958 19.5902 250.849 22.2657 254.127 25.6386C257.405 29.0114 260.005 33.0156 261.779 37.4224C263.553 41.8293 264.466 46.5525 264.466 51.3224V511.678C264.466 521.311 260.747 530.55 254.127 537.361C247.507 544.173 238.528 548 229.166 548H55.3002C50.6645 548 46.0742 547.06 41.7914 545.235C37.5086 543.41 33.6171 540.734 30.3392 537.361C27.0613 533.989 24.4611 529.984 22.6871 525.578C20.9131 521.171 20 516.448 20 511.678V51.3223C20 41.689 23.7192 32.4503 30.3392 25.6385C36.9593 18.8268 45.9381 15 55.3003 15H76.396C75.3574 17.6203 74.9609 20.4632 75.2415 23.2783C75.5221 26.0934 76.4713 28.7942 78.0053 31.143C79.5394 33.4917 81.6112 35.4162 84.0384 36.747C86.4656 38.0777 89.1735 38.7739 91.9237 38.7741H191.052C193.802 38.7739 196.51 38.0777 198.937 36.747C201.364 35.4162 203.436 33.4917 204.97 31.143C206.504 28.7943 207.453 26.0934 207.734 23.2783C208.015 20.4632 207.618 17.6203 206.58 15Z" fill="white"/>
<path d="M245.564 99H36V187H245.564V99Z" fill="#CBCBCB"/>
<path d="M40.3838 182.616H241.18V103.384H40.3838V182.616Z" fill="white"/>
<path d="M210.237 131.89V165.678C210.236 166.123 210.058 166.549 209.744 166.864C209.429 167.179 209.002 167.356 208.557 167.357H172.201C171.756 167.356 171.33 167.179 171.015 166.864C170.7 166.549 170.523 166.123 170.522 165.678V131.89C170.522 131.445 170.699 131.018 171.014 130.703C171.329 130.388 171.756 130.211 172.201 130.211H208.557C209.003 130.211 209.43 130.388 209.744 130.703C210.059 131.018 210.236 131.445 210.237 131.89Z" fill="#6C63FF"/>
<path d="M192.948 167.527H187.81C187.371 167.532 186.947 167.363 186.632 167.056C186.318 166.749 186.137 166.33 186.131 165.891V130.843C186.137 130.403 186.318 129.984 186.632 129.677C186.947 129.371 187.371 129.201 187.81 129.206H192.948C193.387 129.201 193.811 129.371 194.125 129.677C194.44 129.984 194.621 130.403 194.627 130.843V165.891C194.621 166.33 194.44 166.749 194.125 167.056C193.811 167.363 193.387 167.532 192.948 167.527Z" fill="#3F3D56"/>
<path d="M189.321 119.635C191.962 121.92 191.128 127.209 191.128 127.209C191.128 127.209 186.014 128.792 183.373 126.507C180.733 124.222 181.567 118.933 181.567 118.933C181.567 118.933 186.681 117.35 189.321 119.635Z" fill="#3F3D56"/>
<path d="M198.091 126.069C195.814 128.717 190.523 127.899 190.523 127.899C190.523 127.899 188.923 122.79 191.2 120.142C193.477 117.495 198.769 118.312 198.769 118.312C198.769 118.312 200.368 123.422 198.091 126.069Z" fill="#3F3D56"/>
<path opacity="0.2" d="M210.237 131.89V137.579L170.522 137.411V131.89C170.522 131.445 170.699 131.018 171.014 130.703C171.329 130.388 171.756 130.211 172.201 130.211H208.557C209.002 130.211 209.43 130.388 209.744 130.703C210.059 131.018 210.236 131.445 210.237 131.89Z" fill="black"/>
<path d="M214.513 135.349C214.356 135.555 214.153 135.723 213.92 135.837C213.687 135.952 213.431 136.011 213.171 136.01L168.912 135.825C168.692 135.824 168.473 135.779 168.27 135.694C168.067 135.609 167.882 135.484 167.727 135.328C167.571 135.171 167.448 134.985 167.365 134.781C167.281 134.577 167.239 134.359 167.24 134.138L167.261 129.198C167.262 128.753 167.441 128.327 167.757 128.013C168.073 127.699 168.501 127.524 168.947 127.526H168.947L213.206 127.712C213.426 127.713 213.644 127.757 213.848 127.842C214.051 127.927 214.236 128.052 214.391 128.209C214.546 128.365 214.669 128.551 214.753 128.755C214.837 128.959 214.879 129.178 214.878 129.398L214.857 134.338C214.856 134.703 214.735 135.058 214.513 135.349Z" fill="#6C63FF"/>
<path d="M186.237 127.204L186.202 136.095L194.698 136.13L194.733 127.238L186.237 127.204Z" fill="#3F3D56"/>
<path d="M116.054 129.721H66.9248V133.644H116.054V129.721Z" fill="#E5E5E5"/>
<path d="M142.792 144.029H66.9248V147.951H142.792V144.029Z" fill="#6C63FF"/>
<path d="M128.755 157.508H66.9248V161.43H128.755V157.508Z" fill="#E5E5E5"/>
<path d="M245.564 203H36V291H245.564V203Z" fill="#CBCBCB"/>
<path d="M40.3838 286.617H241.18V207.384H40.3838V286.617Z" fill="white"/>
<path d="M210.237 235.89V269.678C210.236 270.123 210.058 270.549 209.744 270.864C209.429 271.179 209.002 271.356 208.557 271.357H172.201C171.756 271.356 171.33 271.179 171.015 270.864C170.7 270.549 170.523 270.123 170.522 269.678V235.89C170.522 235.445 170.699 235.018 171.014 234.703C171.329 234.388 171.756 234.211 172.201 234.211H208.557C209.003 234.211 209.43 234.388 209.744 234.703C210.059 235.018 210.236 235.445 210.237 235.89Z" fill="#6C63FF"/>
<path d="M192.948 271.527H187.81C187.371 271.532 186.947 271.363 186.632 271.056C186.318 270.749 186.137 270.33 186.131 269.891V234.843C186.137 234.403 186.318 233.984 186.632 233.677C186.947 233.371 187.371 233.201 187.81 233.206H192.948C193.387 233.201 193.811 233.371 194.125 233.677C194.44 233.984 194.621 234.403 194.627 234.843V269.891C194.621 270.33 194.44 270.749 194.125 271.056C193.811 271.363 193.387 271.532 192.948 271.527Z" fill="#3F3D56"/>
<path d="M189.321 223.635C191.962 225.92 191.128 231.209 191.128 231.209C191.128 231.209 186.014 232.792 183.373 230.507C180.733 228.222 181.567 222.933 181.567 222.933C181.567 222.933 186.681 221.35 189.321 223.635Z" fill="#3F3D56"/>
<path d="M198.091 230.069C195.814 232.717 190.523 231.899 190.523 231.899C190.523 231.899 188.923 226.79 191.2 224.142C193.477 221.495 198.769 222.312 198.769 222.312C198.769 222.312 200.368 227.422 198.091 230.069Z" fill="#3F3D56"/>
<path opacity="0.2" d="M210.237 235.89V241.579L170.522 241.411V235.89C170.522 235.445 170.699 235.018 171.014 234.703C171.329 234.388 171.756 234.211 172.201 234.211H208.557C209.002 234.211 209.43 234.388 209.744 234.703C210.059 235.018 210.236 235.445 210.237 235.89Z" fill="black"/>
<path d="M214.513 239.349C214.356 239.555 214.153 239.723 213.92 239.837C213.687 239.952 213.431 240.011 213.171 240.01L168.912 239.825C168.692 239.824 168.473 239.779 168.27 239.694C168.067 239.609 167.882 239.484 167.727 239.328C167.571 239.171 167.448 238.985 167.365 238.781C167.281 238.577 167.239 238.359 167.24 238.138L167.261 233.198C167.262 232.753 167.441 232.327 167.757 232.013C168.073 231.699 168.501 231.524 168.947 231.526H168.947L213.206 231.712C213.426 231.713 213.644 231.757 213.848 231.842C214.051 231.927 214.236 232.052 214.391 232.209C214.546 232.365 214.669 232.551 214.753 232.755C214.837 232.959 214.879 233.178 214.878 233.398L214.857 238.338C214.856 238.703 214.735 239.058 214.513 239.349Z" fill="#6C63FF"/>
<path d="M186.237 231.204L186.202 240.095L194.698 240.13L194.733 231.238L186.237 231.204Z" fill="#3F3D56"/>
<path d="M116.054 233.721H66.9248V237.644H116.054V233.721Z" fill="#E5E5E5"/>
<path d="M142.792 248.029H66.9248V251.951H142.792V248.029Z" fill="#6C63FF"/>
<path d="M128.755 261.508H66.9248V265.43H128.755V261.508Z" fill="#E5E5E5"/>
<path d="M245.564 303H36V391H245.564V303Z" fill="#CBCBCB"/>
<path d="M40.3838 386.617H241.18V307.384H40.3838V386.617Z" fill="white"/>
<path d="M210.237 335.89V369.678C210.236 370.123 210.058 370.549 209.744 370.864C209.429 371.179 209.002 371.356 208.557 371.357H172.201C171.756 371.356 171.33 371.179 171.015 370.864C170.7 370.549 170.523 370.123 170.522 369.678V335.89C170.522 335.445 170.699 335.018 171.014 334.703C171.329 334.388 171.756 334.211 172.201 334.211H208.557C209.003 334.211 209.43 334.388 209.744 334.703C210.059 335.018 210.236 335.445 210.237 335.89Z" fill="#6C63FF"/>
<path d="M192.948 371.527H187.81C187.371 371.532 186.947 371.363 186.632 371.056C186.318 370.749 186.137 370.33 186.131 369.891V334.843C186.137 334.403 186.318 333.984 186.632 333.677C186.947 333.371 187.371 333.201 187.81 333.206H192.948C193.387 333.201 193.811 333.371 194.125 333.677C194.44 333.984 194.621 334.403 194.627 334.843V369.891C194.621 370.33 194.44 370.749 194.125 371.056C193.811 371.363 193.387 371.532 192.948 371.527Z" fill="#3F3D56"/>
<path d="M189.321 323.635C191.962 325.92 191.128 331.209 191.128 331.209C191.128 331.209 186.014 332.792 183.373 330.507C180.733 328.222 181.567 322.933 181.567 322.933C181.567 322.933 186.681 321.35 189.321 323.635Z" fill="#3F3D56"/>
<path d="M198.091 330.069C195.814 332.717 190.523 331.899 190.523 331.899C190.523 331.899 188.923 326.79 191.2 324.142C193.477 321.495 198.769 322.312 198.769 322.312C198.769 322.312 200.368 327.422 198.091 330.069Z" fill="#3F3D56"/>
<path opacity="0.2" d="M210.237 335.89V341.579L170.522 341.411V335.89C170.522 335.445 170.699 335.018 171.014 334.703C171.329 334.388 171.756 334.211 172.201 334.211H208.557C209.002 334.211 209.43 334.388 209.744 334.703C210.059 335.018 210.236 335.445 210.237 335.89Z" fill="black"/>
<path d="M214.513 339.349C214.356 339.555 214.153 339.723 213.92 339.837C213.687 339.952 213.431 340.011 213.171 340.01L168.912 339.825C168.692 339.824 168.473 339.779 168.27 339.694C168.067 339.609 167.882 339.484 167.727 339.328C167.571 339.171 167.448 338.985 167.365 338.781C167.281 338.577 167.239 338.359 167.24 338.138L167.261 333.198C167.262 332.753 167.441 332.327 167.757 332.013C168.073 331.699 168.501 331.524 168.947 331.526H168.947L213.206 331.712C213.426 331.713 213.644 331.757 213.848 331.842C214.051 331.927 214.236 332.052 214.391 332.209C214.546 332.365 214.669 332.551 214.753 332.755C214.837 332.959 214.879 333.178 214.878 333.398L214.857 338.338C214.856 338.703 214.735 339.058 214.513 339.349Z" fill="#6C63FF"/>
<path d="M186.237 331.204L186.202 340.095L194.698 340.13L194.733 331.238L186.237 331.204Z" fill="#3F3D56"/>
<path d="M116.054 333.721H66.9248V337.644H116.054V333.721Z" fill="#E5E5E5"/>
<path d="M142.792 348.029H66.9248V351.951H142.792V348.029Z" fill="#6C63FF"/>
<path d="M128.755 361.508H66.9248V365.43H128.755V361.508Z" fill="#E5E5E5"/>
<path d="M246.564 403H37V491H246.564V403Z" fill="#CBCBCB"/>
<path d="M41.3838 486.617H242.18V407.384H41.3838V486.617Z" fill="white"/>
<path d="M211.237 435.89V469.678C211.236 470.123 211.058 470.549 210.744 470.864C210.429 471.179 210.002 471.356 209.557 471.357H173.201C172.756 471.356 172.33 471.179 172.015 470.864C171.7 470.549 171.523 470.123 171.522 469.678V435.89C171.522 435.445 171.699 435.018 172.014 434.703C172.329 434.388 172.756 434.211 173.201 434.211H209.557C210.003 434.211 210.43 434.388 210.744 434.703C211.059 435.018 211.236 435.445 211.237 435.89Z" fill="#6C63FF"/>
<path d="M193.948 471.527H188.81C188.371 471.532 187.947 471.363 187.632 471.056C187.318 470.749 187.137 470.33 187.131 469.891V434.843C187.137 434.403 187.318 433.984 187.632 433.677C187.947 433.371 188.371 433.201 188.81 433.206H193.948C194.387 433.201 194.811 433.371 195.125 433.677C195.44 433.984 195.621 434.403 195.627 434.843V469.891C195.621 470.33 195.44 470.749 195.125 471.056C194.811 471.363 194.387 471.532 193.948 471.527Z" fill="#3F3D56"/>
<path d="M190.321 423.635C192.962 425.92 192.128 431.209 192.128 431.209C192.128 431.209 187.014 432.793 184.373 430.507C181.733 428.222 182.567 422.933 182.567 422.933C182.567 422.933 187.681 421.35 190.321 423.635Z" fill="#3F3D56"/>
<path d="M199.091 430.069C196.814 432.717 191.523 431.899 191.523 431.899C191.523 431.899 189.923 426.79 192.2 424.142C194.477 421.495 199.769 422.312 199.769 422.312C199.769 422.312 201.368 427.422 199.091 430.069Z" fill="#3F3D56"/>
<path opacity="0.2" d="M211.237 435.89V441.579L171.522 441.411V435.89C171.522 435.445 171.699 435.018 172.014 434.703C172.329 434.388 172.756 434.211 173.201 434.211H209.557C210.002 434.211 210.43 434.388 210.744 434.703C211.059 435.018 211.236 435.445 211.237 435.89Z" fill="black"/>
<path d="M215.513 439.349C215.356 439.555 215.153 439.723 214.92 439.837C214.687 439.952 214.431 440.011 214.171 440.01L169.912 439.825C169.692 439.824 169.473 439.779 169.27 439.694C169.067 439.609 168.882 439.484 168.727 439.328C168.571 439.171 168.448 438.985 168.365 438.781C168.281 438.577 168.239 438.359 168.24 438.138L168.261 433.198C168.262 432.753 168.441 432.327 168.757 432.013C169.073 431.699 169.501 431.524 169.947 431.526H169.947L214.206 431.712C214.426 431.713 214.644 431.757 214.848 431.842C215.051 431.927 215.236 432.052 215.391 432.209C215.546 432.365 215.669 432.551 215.753 432.755C215.837 432.959 215.879 433.178 215.878 433.398L215.857 438.338C215.856 438.703 215.735 439.058 215.513 439.349Z" fill="#6C63FF"/>
<path d="M187.237 431.204L187.202 440.095L195.698 440.13L195.733 431.238L187.237 431.204Z" fill="#3F3D56"/>
<path d="M117.054 433.721H67.9248V437.644H117.054V433.721Z" fill="#E5E5E5"/>
<path d="M143.792 448.029H67.9248V451.951H143.792V448.029Z" fill="#6C63FF"/>
<path d="M129.755 461.508H67.9248V465.43H129.755V461.508Z" fill="#E5E5E5"/>
</svg>
