<svg width="285" height="565" viewBox="0 0 285 565" fill="none" xmlns="http://www.w3.org/2000/svg">
<path d="M282.714 128.163H280.812V32.6712C280.811 24.0062 277.369 15.6962 271.242 9.56916C265.115 3.44212 256.805 -1.7819e-10 248.14 0H35.4785C26.8136 -1.78082e-10 18.5035 3.44212 12.3764 9.56916C6.24934 15.6962 2.80717 24.0062 2.80711 32.6712V74.5098H2.08647C1.57756 74.5099 1.0895 74.712 0.729646 75.0719C0.369788 75.4317 0.167619 75.9198 0.167599 76.4287V95.1401C0.167617 95.649 0.369788 96.137 0.729646 96.4969C1.0895 96.8568 1.57755 97.0589 2.08647 97.059H2.80711V115.787H1.9189C1.6669 115.787 1.41737 115.837 1.18455 115.933C0.951724 116.03 0.740161 116.171 0.56197 116.349C0.38378 116.527 0.24244 116.739 0.146016 116.972C0.0495918 117.204 -2.53041e-05 117.454 9.6811e-09 117.706V153.117C1.77875e-05 153.626 0.202189 154.114 0.562047 154.474C0.921905 154.834 1.40998 155.036 1.9189 155.036H2.80711V168.77H2.0027C1.75073 168.77 1.5012 168.82 1.2684 168.916C1.03559 169.012 0.824059 169.154 0.645872 169.332C0.467684 169.51 0.326335 169.722 0.229892 169.954C0.133449 170.187 0.0838137 170.437 0.0837994 170.689V206.436C0.0838217 206.944 0.28599 207.433 0.645846 207.792C1.0057 208.152 1.49378 208.354 2.0027 208.354H2.80711V532.328C2.80709 540.993 6.24923 549.304 12.3763 555.431C18.5034 561.558 26.8135 565 35.4785 565H248.14C256.805 565 265.115 561.558 271.242 555.431C277.369 549.304 280.812 540.993 280.812 532.328V196.649H282.714C283.223 196.649 283.711 196.446 284.071 196.087C284.43 195.727 284.633 195.239 284.633 194.73V130.082C284.633 129.573 284.43 129.085 284.071 128.725C283.711 128.365 283.223 128.163 282.714 128.163Z" fill="#3F3D56"/>
<path d="M150.57 25.1715H118.234C117.263 25.1705 116.332 24.7845 115.646 24.0982C114.959 23.4118 114.573 22.4812 114.572 21.5104V20.1103C114.573 19.1396 114.959 18.2089 115.646 17.5226C116.332 16.8362 117.263 16.4502 118.234 16.4492H150.57C151.541 16.4502 152.471 16.8362 153.158 17.5226C153.844 18.2089 154.23 19.1396 154.232 20.1103V21.5104C154.23 22.4812 153.844 23.4118 153.158 24.0982C152.471 24.7845 151.541 25.1705 150.57 25.1715Z" fill="white"/>
<path d="M164.153 25.2891C166.625 25.2891 168.628 23.2857 168.628 20.8145C168.628 18.3432 166.625 16.3398 164.153 16.3398C161.682 16.3398 159.679 18.3432 159.679 20.8145C159.679 23.2857 161.682 25.2891 164.153 25.2891Z" fill="white"/>
<g opacity="0.1">
<path opacity="0.1" d="M277.396 193.707C277.396 192.556 277.396 191.4 277.396 190.238C277.35 191.134 277.35 192.032 277.396 192.928C277.388 193.187 277.396 193.447 277.396 193.707Z" fill="black"/>
</g>
<path d="M229.039 15H206.452C207.491 17.6203 207.887 20.4632 207.607 23.2783C207.326 26.0934 206.377 28.7943 204.843 31.143C203.309 33.4917 201.237 35.4162 198.81 36.747C196.383 38.0777 193.675 38.7739 190.924 38.7741H91.7963C89.0461 38.7739 86.3381 38.0777 83.9109 36.747C81.4838 35.4162 79.4119 33.4917 77.8779 31.143C76.3438 28.7942 75.3947 26.0934 75.1141 23.2783C74.8334 20.4632 75.2299 17.6203 76.2686 15H55.1728C45.8106 15 36.8319 18.8268 30.2118 25.6385C23.5917 32.4503 19.8726 41.689 19.8726 51.3223V511.678C19.8726 516.448 20.7856 521.171 22.5596 525.578C24.3336 529.984 26.9338 533.989 30.2117 537.361C33.4897 540.734 37.3811 543.41 41.664 545.235C45.9468 547.06 50.5371 548 55.1728 548H229.039C238.401 548 247.379 544.173 254 537.361C260.62 530.55 264.339 521.311 264.339 511.678V51.3224C264.339 46.5525 263.426 41.8293 261.652 37.4224C259.878 33.0156 257.278 29.0114 254 25.6386C250.722 22.2657 246.83 19.5902 242.547 17.7649C238.265 15.9395 233.674 15 229.039 15ZM225.244 228.562C225.237 231.055 224.271 233.444 222.558 235.206C220.845 236.969 218.523 237.963 216.1 237.97H171.907C169.484 237.963 167.163 236.969 165.449 235.206C163.736 233.444 162.771 231.055 162.763 228.562V226.21C162.771 223.717 163.736 221.328 165.449 219.565C167.163 217.802 169.484 216.809 171.907 216.801H216.1C218.523 216.809 220.845 217.802 222.558 219.565C224.271 221.328 225.237 223.717 225.244 226.21V228.562ZM230.197 187.009C230.19 189.502 229.224 191.89 227.511 193.653C225.798 195.416 223.476 196.41 221.053 196.417H62.5662C60.1433 196.41 57.8218 195.416 56.1086 193.653C54.3954 191.89 53.4298 189.502 53.4227 187.009V184.657C53.4298 182.164 54.3954 179.775 56.1086 178.012C57.8218 176.249 60.1433 175.256 62.5662 175.248H221.053C223.476 175.256 225.798 176.249 227.511 178.012C229.224 179.775 230.19 182.164 230.197 184.657V187.009ZM230.197 145.456C230.19 147.948 229.224 150.337 227.511 152.1C225.798 153.863 223.476 154.856 221.053 154.864H62.5662C60.1433 154.856 57.8218 153.863 56.1086 152.1C54.3954 150.337 53.4298 147.948 53.4227 145.456V143.103C53.4298 140.61 54.3954 138.222 56.1086 136.459C57.8218 134.696 60.1433 133.702 62.5662 133.695H221.053C223.476 133.702 225.798 134.696 227.511 136.459C229.224 138.222 230.19 140.61 230.197 143.103V145.456ZM230.197 103.902C230.19 106.395 229.224 108.784 227.511 110.547C225.798 112.31 223.476 113.303 221.053 113.311H62.5662C60.1433 113.303 57.8218 112.31 56.1086 110.547C54.3954 108.784 53.4298 106.395 53.4227 103.902V101.55C53.4298 99.0574 54.3954 96.6686 56.1086 94.9057C57.8218 93.1429 60.1433 92.1494 62.5662 92.1421H221.053C223.476 92.1494 225.798 93.143 227.511 94.9058C229.224 96.6686 230.19 99.0574 230.197 101.55V103.902Z" fill="white"/>
<path d="M65.9948 191.713C68.9405 191.713 71.3285 189.256 71.3285 186.225C71.3285 183.194 68.9405 180.737 65.9948 180.737C63.0491 180.737 60.6611 183.194 60.6611 186.225C60.6611 189.256 63.0491 191.713 65.9948 191.713Z" fill="white"/>
<path d="M83.5202 191.713C86.4659 191.713 88.8539 189.256 88.8539 186.225C88.8539 183.194 86.4659 180.737 83.5202 180.737C80.5745 180.737 78.1865 183.194 78.1865 186.225C78.1865 189.256 80.5745 191.713 83.5202 191.713Z" fill="white"/>
<path d="M101.045 191.713C103.99 191.713 106.378 189.256 106.378 186.225C106.378 183.194 103.99 180.737 101.045 180.737C98.0989 180.737 95.7109 183.194 95.7109 186.225C95.7109 189.256 98.0989 191.713 101.045 191.713Z" fill="white"/>
<path d="M118.57 191.713C121.516 191.713 123.904 189.256 123.904 186.225C123.904 183.194 121.516 180.737 118.57 180.737C115.624 180.737 113.236 183.194 113.236 186.225C113.236 189.256 115.624 191.713 118.57 191.713Z" fill="white"/>
<path d="M224.013 381.919H214.291C213.597 381.919 212.931 382.203 212.44 382.708C211.95 383.213 211.674 383.898 211.674 384.612C211.674 385.326 211.95 386.011 212.44 386.516C212.931 387.022 213.597 387.305 214.291 387.305H224.013C224.707 387.305 225.373 387.022 225.864 386.516C226.354 386.011 226.63 385.326 226.63 384.612C226.63 383.898 226.354 383.213 225.864 382.708C225.373 382.203 224.707 381.919 224.013 381.919H224.013Z" fill="#3F3D56"/>
<path d="M231.423 298.887H50.6724C46.4259 298.887 42.3534 300.622 39.3507 303.712C36.348 306.802 34.6611 310.992 34.6611 315.362V405.977C34.6611 410.346 36.348 414.537 39.3507 417.626C42.3534 420.716 46.4259 422.452 50.6724 422.452H231.423C235.669 422.452 239.742 420.716 242.744 417.626C245.747 414.537 247.434 410.346 247.434 405.977V315.362C247.434 310.992 245.747 306.802 242.744 303.712C239.742 300.622 235.669 298.887 231.423 298.887H231.423ZM46.2004 310.125C46.5573 310.059 55.021 308.577 62.0294 312.916C69.0374 317.254 71.7301 325.644 71.841 325.998L72.1243 326.903L71.2149 327.069C69.9174 327.277 68.6056 327.377 67.2925 327.365C63.1269 327.447 59.0157 326.381 55.3854 324.277C48.3774 319.94 45.6852 311.55 45.5742 311.196L45.2909 310.291L46.2004 310.125ZM85.4365 394.256H53.1982C50.8469 394.256 48.5919 393.295 46.9293 391.584C45.2667 389.873 44.3326 387.553 44.3326 385.133C44.3326 382.714 45.2667 380.394 46.9293 378.683C48.5919 376.972 50.8469 376.011 53.1982 376.011H85.4365C87.7877 376.011 90.0427 376.972 91.7053 378.683C93.3679 380.394 94.302 382.714 94.302 385.133C94.302 387.553 93.3679 389.873 91.7053 391.584C90.0427 393.295 87.7877 394.256 85.4365 394.256ZM232.121 392.597C232.113 395.234 231.092 397.761 229.28 399.625C227.467 401.49 225.012 402.541 222.449 402.549H198.27C195.708 402.541 193.252 401.49 191.44 399.625C189.628 397.761 188.606 395.234 188.599 392.597V377.67C188.606 375.033 189.628 372.506 191.44 370.642C193.252 368.777 195.708 367.726 198.27 367.718H222.449C225.012 367.726 227.467 368.777 229.28 370.642C231.092 372.506 232.113 375.033 232.121 377.67L232.121 392.597Z" fill="#00B9F2"/>
<path d="M206.066 389.521H196.344C195.65 389.521 194.984 389.805 194.494 390.31C194.003 390.815 193.727 391.5 193.727 392.215C193.727 392.929 194.003 393.614 194.494 394.119C194.984 394.624 195.65 394.908 196.344 394.908H206.066C206.76 394.908 207.426 394.624 207.917 394.119C208.408 393.614 208.683 392.929 208.683 392.215C208.683 391.5 208.408 390.815 207.917 390.31C207.426 389.805 206.76 389.521 206.066 389.521Z" fill="#3F3D56"/>
<path d="M224.014 389.521H214.292C213.598 389.521 212.932 389.805 212.441 390.31C211.951 390.815 211.675 391.5 211.675 392.215C211.675 392.929 211.951 393.614 212.441 394.119C212.932 394.624 213.598 394.908 214.292 394.908H224.014C224.708 394.908 225.374 394.624 225.864 394.119C226.355 393.614 226.631 392.929 226.631 392.215C226.631 391.5 226.355 390.815 225.864 390.31C225.374 389.805 224.708 389.521 224.014 389.521Z" fill="#3F3D56"/>
<path d="M206.065 381.919H196.343C195.649 381.919 194.983 382.203 194.492 382.708C194.001 383.213 193.726 383.898 193.726 384.612C193.726 385.326 194.001 386.011 194.492 386.516C194.983 387.022 195.649 387.305 196.343 387.305H206.065C206.759 387.305 207.424 387.022 207.915 386.516C208.406 386.011 208.682 385.326 208.682 384.612C208.682 383.898 208.406 383.213 207.915 382.708C207.424 382.203 206.759 381.919 206.065 381.919Z" fill="#3F3D56"/>
<path d="M206.065 374.47H196.343C195.649 374.47 194.983 374.754 194.492 375.259C194.001 375.764 193.726 376.449 193.726 377.163C193.726 377.878 194.001 378.563 194.492 379.068C194.983 379.573 195.649 379.857 196.343 379.857H206.065C206.759 379.857 207.424 379.573 207.915 379.068C208.406 378.563 208.682 377.878 208.682 377.163C208.682 376.449 208.406 375.764 207.915 375.259C207.424 374.754 206.759 374.47 206.065 374.47Z" fill="#3F3D56"/>
<path d="M224.013 374.47H214.291C213.597 374.47 212.931 374.754 212.44 375.259C211.95 375.764 211.674 376.449 211.674 377.163C211.674 377.878 211.95 378.563 212.44 379.068C212.931 379.573 213.597 379.857 214.291 379.857H224.013C224.707 379.857 225.373 379.573 225.864 379.068C226.354 378.563 226.63 377.878 226.63 377.163C226.63 376.449 226.354 375.764 225.864 375.259C225.373 374.754 224.707 374.47 224.013 374.47H224.013Z" fill="#3F3D56"/>
</svg>
