<svg width="55" height="54" viewBox="0 0 55 54" fill="none" xmlns="http://www.w3.org/2000/svg">
<path d="M27.1109 50.4815C40.3767 50.4815 51.2218 39.9022 51.2218 26.7407C51.2218 13.5793 40.3767 3 27.1109 3C13.8451 3 3 13.5793 3 26.7407C3 39.9022 13.8451 50.4815 27.1109 50.4815Z" fill="#001B5C" stroke="#001B5C" stroke-width="6"/>
<ellipse cx="27.1109" cy="26.7407" rx="21.1109" ry="20.7407" fill="#00B9F2"/>
<rect x="26.0554" y="19.4814" width="2.11109" height="14.5185" rx="1" fill="#001B5C"/>
<path fill-rule="evenodd" clip-rule="evenodd" d="M20.7222 27.7778C20.1699 27.7778 19.7222 27.3301 19.7222 26.7778V26.7038C19.7222 26.1515 20.1699 25.7038 20.7222 25.7038H33.4998C34.0521 25.7038 34.4998 26.1515 34.4998 26.7038V26.7778C34.4998 27.3301 34.0521 27.7778 33.4998 27.7778H20.7222Z" fill="#001B5C"/>
</svg>
