<svg width="17" height="21" viewBox="0 0 17 21" fill="none" xmlns="http://www.w3.org/2000/svg">
<path fill-rule="evenodd" clip-rule="evenodd" d="M2.84131 5.53277C2.84131 2.47711 5.35192 0 8.44892 0C11.5459 0 14.0565 2.47711 14.0565 5.53277C14.0565 8.58844 11.5459 11.0655 8.44892 11.0655C5.35192 11.0655 2.84131 8.58844 2.84131 5.53277ZM12.5349 5.53277C12.5349 3.30624 10.7056 1.50129 8.44892 1.50129C6.19227 1.50129 4.3629 3.30624 4.3629 5.53277C4.3629 7.7593 6.19227 9.56426 8.44892 9.56426C10.7056 9.56426 12.5349 7.7593 12.5349 5.53277Z" fill="#00B9F2"/>
<path fill-rule="evenodd" clip-rule="evenodd" d="M3.68469 13.6393C4.50318 13.467 5.33296 13.3518 6.15388 13.2958C7.67785 13.1638 9.21061 13.1638 10.7346 13.2958L11.2212 13.3363C11.8867 13.4007 12.5475 13.5017 13.1979 13.6381C14.8554 13.9735 16.0591 14.5687 16.5919 15.6726C16.9877 16.4939 16.9877 17.4473 16.5917 18.269C16.0576 19.3757 14.8384 19.9758 13.2102 20.2914L12.7169 20.392C12.0576 20.5163 11.3927 20.6012 10.7323 20.6455C9.49296 20.7492 8.24786 20.7681 7.04682 20.7032C6.91443 20.7032 6.82557 20.7028 6.74727 20.701L6.595 20.6954C6.40988 20.6861 6.24026 20.667 6.16909 20.6465C5.3335 20.5907 4.50347 20.4719 3.70721 20.2954L3.43711 20.24C1.92933 19.9109 0.81271 19.3171 0.296205 18.2678C0.100592 17.8607 -0.000587244 17.4156 2.14223e-05 16.9688C-0.00169978 16.5189 0.100306 16.0744 0.303194 15.6592C0.841114 14.5977 2.10494 13.959 3.68469 13.6393ZM10.6148 14.7924L10.6014 14.7914C9.16606 14.667 7.7224 14.667 6.27304 14.7925C5.50954 14.8446 4.75073 14.9499 3.99635 15.1087C2.82801 15.3452 1.93474 15.7967 1.66901 16.3209C1.57116 16.5212 1.52075 16.7408 1.52161 16.967C1.5213 17.1945 1.57238 17.4192 1.66801 17.6183C1.94131 18.1735 2.78422 18.5884 4.01925 18.8262L4.39135 18.9036C5.01454 19.0249 5.65637 19.1086 6.36966 19.1615C6.45974 19.1793 6.55694 19.1902 6.67227 19.196L7.08774 19.203C8.25959 19.2653 9.43439 19.2474 10.6162 19.1487C11.3779 19.0974 12.1345 18.9895 12.8982 18.8221L13.1357 18.7727C14.2203 18.5311 14.9707 18.1357 15.2177 17.6239C15.4169 17.2105 15.4169 16.7306 15.2179 16.3177C14.9536 15.77 14.118 15.3568 12.8868 15.1076C12.1378 14.9506 11.3787 14.8452 10.6148 14.7924Z" fill="#00B9F2"/>
</svg>
