<svg xmlns="http://www.w3.org/2000/svg" viewBox="0 0 325 486.62"><defs><style>.cls-1{fill:#fff;}</style></defs><g id="Layer_2" data-name="Layer 2"><g id="Layer_1-2" data-name="Layer 1"><path class="cls-1" d="M6.29,5c72,.08,146.55.17,219.91.17,32.37,0,62.17,0,91.08,0h.43a10.54,10.54,0,0,1,2.23.18c.06.64.06,1.64.06,2.19-.07,79.26-.07,159.88-.07,237.84,0,76.39,0,155.34-.07,233l-2.06-2.29a12.21,12.21,0,0,0-17.64,0l-3.08,3.45a5.92,5.92,0,0,1-4.37,1.65,6.44,6.44,0,0,1-4.67-1.79,15.34,15.34,0,0,0-11.4-4.8,16.06,16.06,0,0,0-12.06,5.18,5.86,5.86,0,0,1-4.38,1.67,6.44,6.44,0,0,1-4.69-1.81,16.32,16.32,0,0,0-23.58-.05,6.22,6.22,0,0,1-4.58,1.73,6.15,6.15,0,0,1-4.57-1.73,15.6,15.6,0,0,0-11.66-5,16,16,0,0,0-12,5.1,6.28,6.28,0,0,1-4.58,1.77,5.75,5.75,0,0,1-4.25-1.62l-.07-.08-.11-.11a15.63,15.63,0,0,0-11.66-4.89,15.91,15.91,0,0,0-12.05,5.17,5.5,5.5,0,0,1-4.14,1.61,6.16,6.16,0,0,1-4.54-1.77,16.75,16.75,0,0,0-24,.2,5.48,5.48,0,0,1-4.1,1.56A6.44,6.44,0,0,1,125,479.7a15.65,15.65,0,0,0-11.69-4.93,16.13,16.13,0,0,0-12.11,5.16,5.71,5.71,0,0,1-4.24,1.61,6.35,6.35,0,0,1-4.68-1.83,16.31,16.31,0,0,0-23.74.17,5.9,5.9,0,0,1-4.46,1.74,5.84,5.84,0,0,1-4.44-1.74,15.6,15.6,0,0,0-11.95-5.22,15.75,15.75,0,0,0-11.76,5l-.17.2a5.87,5.87,0,0,1-4.32,1.67,5.76,5.76,0,0,1-4.28-1.66L23.64,476a11.24,11.24,0,0,0-8.35-3.58,11,11,0,0,0-8.46,3.77,1.33,1.33,0,0,1-1,.29,2.17,2.17,0,0,1-.88-.17V5.49A1.62,1.62,0,0,1,6.29,5m0-5C2.76,0,0,2.49,0,5.38V476.76c0,2.9,2.91,4.69,5.88,4.69a6.18,6.18,0,0,0,4.77-2.06,6,6,0,0,1,4.64-2,6.27,6.27,0,0,1,4.64,1.93l3.5,3.88a10.72,10.72,0,0,0,8,3.31,10.76,10.76,0,0,0,8-3.33,1.54,1.54,0,0,0,.17-.19,10.83,10.83,0,0,1,8.05-3.33,10.66,10.66,0,0,1,8.15,3.47,11.48,11.48,0,0,0,16.48,0A11.34,11.34,0,0,1,88.52,483a11.28,11.28,0,0,0,8.42,3.51,10.61,10.61,0,0,0,8-3.28,11.28,11.28,0,0,1,8.39-3.49,10.65,10.65,0,0,1,8,3.27,11.38,11.38,0,0,0,8.43,3.5,10.35,10.35,0,0,0,7.85-3.26,11.12,11.12,0,0,1,8.35-3.45,11,11,0,0,1,8.17,3.31,11.14,11.14,0,0,0,8.24,3.41,10.43,10.43,0,0,0,7.9-3.31,11,11,0,0,1,8.29-3.47,10.71,10.71,0,0,1,8,3.24l.19.21a10.66,10.66,0,0,0,7.94,3.25,11.18,11.18,0,0,0,8.3-3.43,11.08,11.08,0,0,1,8.24-3.44,10.56,10.56,0,0,1,7.93,3.3,11.86,11.86,0,0,0,16.59,0,11.34,11.34,0,0,1,16.14,0,11.29,11.29,0,0,0,8.42,3.48,10.83,10.83,0,0,0,8.12-3.34,11.12,11.12,0,0,1,8.32-3.51,10.34,10.34,0,0,1,7.7,3.16,11.3,11.3,0,0,0,8.37,3.43,10.84,10.84,0,0,0,8.1-3.32l3.07-3.44a7.22,7.22,0,0,1,10.2,0l4.67,5.18a3.7,3.7,0,0,0,2.77,1.16c1.7,0,3.34-1,3.34-2.67q.21-237.63.14-475.59C325,3,324.86.11,317.71.11h-.43q-45.54,0-91.08.05Q116.23.17,6.29,0Z"/></g></g></svg>