<svg width="375" height="568" viewBox="0 0 375 568" fill="none" xmlns="http://www.w3.org/2000/svg">
<g filter="url(#filter0_d_3821_6885)">
<path d="M65.6602 534.115C61.5846 538.602 53.2252 538.731 49.1936 534.218C48.1683 533.07 47.146 531.927 46.1173 530.778C43.5941 527.961 38.4475 527.968 35.9162 530.781C34.3937 532.473 32.8556 534.178 31.2508 535.96C29.3254 538.097 25.1433 537.101 25.1433 534.447C25.0003 376.036 25.1433 217.391 25.0003 58.8638C25.0003 54.3044 25.1433 51.3817 32.7214 51.4986C136.384 51.6155 240.046 51.4986 343.709 51.3817C347.243 51.3817 350 53.8762 350 56.7655C350 213.43 350 370.006 350 528.14C350 532.774 342.58 534.58 339.354 530.77C337.115 528.125 332.412 528.117 330.074 530.704C328.909 531.994 327.746 533.283 326.572 534.585C322.588 539 314.528 538.983 310.549 534.566C310.491 534.501 310.433 534.437 310.375 534.373C306.324 529.875 298.1 529.933 294.184 534.51C290.206 539.16 281.692 539.162 277.696 534.523C273.751 529.943 265.512 529.887 261.479 534.416C257.454 538.935 249.129 539.156 245.096 534.642C241.062 530.125 232.796 529.921 228.74 534.424C224.698 538.911 216.438 539.186 212.456 534.663C208.46 530.125 200.016 530.033 195.938 534.522C191.895 538.974 183.743 539.128 179.798 534.618C175.863 530.118 167.581 529.948 163.555 534.394C163.491 534.464 163.428 534.535 163.364 534.605C159.341 539.046 151.123 538.877 147.124 534.423C143.091 529.93 134.973 529.78 130.948 534.278C126.903 538.797 118.421 538.798 114.359 534.29C110.306 529.791 102.253 529.813 98.2177 534.322C94.1551 538.862 85.7292 539.007 81.6841 534.457C77.7175 529.995 69.6826 529.687 65.6602 534.115Z" fill="white"/>
<path d="M309.34 534.115C313.415 538.602 321.775 538.731 325.806 534.218C326.832 533.07 327.854 531.927 328.883 530.778C331.406 527.961 336.552 527.968 339.084 530.781C340.606 532.473 342.144 534.178 343.749 535.96C345.675 538.097 349.857 537.101 349.857 534.447C350 376.036 349.857 217.391 350 58.8638C350 54.3044 349.857 51.3817 342.279 51.4986C238.616 51.6155 134.954 51.4986 31.2913 51.3817C27.7575 51.3817 25 53.8762 25 56.7655C25 213.43 25 370.006 25 528.14C25 532.774 32.4199 534.58 35.6456 530.77C37.8848 528.125 42.5882 528.117 44.9259 530.704C46.0911 531.994 47.254 533.283 48.4284 534.585C52.4119 539 60.4716 538.983 64.4511 534.566C64.5089 534.501 64.5667 534.437 64.6245 534.373C68.6764 529.875 76.9 529.933 80.816 534.51C84.7937 539.16 93.3077 539.162 97.3037 534.523C101.249 529.943 109.488 529.887 113.521 534.416C117.546 538.935 125.871 539.156 129.904 534.642C133.938 530.125 142.204 529.921 146.26 534.424C150.302 538.911 158.562 539.186 162.544 534.663C166.539 530.125 174.984 530.033 179.062 534.522C183.105 538.974 191.257 539.128 195.202 534.618C199.136 530.118 207.419 529.948 211.445 534.394C211.509 534.464 211.572 534.535 211.636 534.605C215.659 539.046 223.877 538.877 227.876 534.423C231.909 529.93 240.027 529.78 244.052 534.278C248.096 538.797 256.579 538.798 260.641 534.29C264.694 529.791 272.747 529.813 276.782 534.322C280.845 538.862 289.271 539.007 293.316 534.457C297.283 529.995 305.317 529.687 309.34 534.115Z" fill="white"/>
<path d="M25.0003 42.029C25.0003 34.281 32.6821 28 42.1582 28H332.413C341.889 28 349.571 34.281 349.571 42.029V108.667C349.571 116.415 341.889 122.696 332.413 122.696H42.1582C32.6821 122.696 25.0003 116.415 25.0003 108.667V42.029Z" fill="white"/>
</g>
<defs>
<filter id="filter0_d_3821_6885" x="-3" y="0" width="383" height="568" filterUnits="userSpaceOnUse" color-interpolation-filters="sRGB">
<feFlood flood-opacity="0" result="BackgroundImageFix"/>
<feColorMatrix in="SourceAlpha" type="matrix" values="0 0 0 0 0 0 0 0 0 0 0 0 0 0 0 0 0 0 127 0" result="hardAlpha"/>
<feOffset dx="1" dy="1"/>
<feGaussianBlur stdDeviation="14.5"/>
<feComposite in2="hardAlpha" operator="out"/>
<feColorMatrix type="matrix" values="0 0 0 0 0 0 0 0 0 0 0 0 0 0 0 0 0 0 0.1 0"/>
<feBlend mode="normal" in2="BackgroundImageFix" result="effect1_dropShadow_3821_6885"/>
<feBlend mode="normal" in="SourceGraphic" in2="effect1_dropShadow_3821_6885" result="shape"/>
</filter>
</defs>
</svg>
