<svg width="372" height="263" viewBox="0 0 372 263" fill="none" xmlns="http://www.w3.org/2000/svg">
<g filter="url(#filter0_d_2560_1760)">
<rect x="46.2537" y="79" width="276.493" height="156" rx="20" fill="white" fill-opacity="0.14" shape-rendering="crispEdges"/>
</g>
<g filter="url(#filter1_d_2560_1760)">
<rect x="31.7014" y="53" width="305.597" height="172" rx="20" fill="white" fill-opacity="0.14" shape-rendering="crispEdges"/>
</g>
<g filter="url(#filter2_d_2560_1760)">
<rect x="22" y="22" width="325" height="193" rx="20" fill="#5456B7"/>
</g>
<g opacity="0.25">
<mask id="mask0_2560_1760" style="mask-type:alpha" maskUnits="userSpaceOnUse" x="22" y="22" width="325" height="193">
<rect x="22" y="22" width="325" height="193" rx="20" fill="#5456B7"/>
</mask>
<g mask="url(#mask0_2560_1760)">
<g opacity="0.25">
<path d="M162.44 81.0375L170.146 82.6847L164.952 88.7125L162.44 81.0375Z" fill="#FCDDEC"/>
<path d="M148.728 90.1328L155.083 82.646L158.184 92.1213L148.728 90.1328Z" fill="#FCDDEC"/>
<path d="M147.003 96.7485L157.349 98.9551L150.383 107.077L147.003 96.7485Z" fill="#FCDDEC"/>
<path d="M156.563 110.943L161.818 104.789L164.361 112.558L156.563 110.943Z" fill="#FCDDEC"/>
<path d="M170.249 103.018L175.959 104.198L172.11 108.703L170.249 103.018Z" fill="#FCDDEC"/>
<path d="M171.598 94.0003L176.028 88.766L178.168 95.304L171.598 94.0003Z" fill="#FCDDEC"/>
<path d="M164.191 72.9354L169.172 67.193L171.56 74.489L164.191 72.9354Z" fill="#FCDDEC"/>
<path d="M139.964 75.5558L150.403 77.7305L143.376 85.9787L139.964 75.5558Z" fill="#FCDDEC"/>
<path d="M132.53 107.586L141.176 97.4027L145.363 110.194L132.53 107.586Z" fill="#FCDDEC"/>
<path d="M155.242 119.107L162.61 120.66L157.661 126.497L155.242 119.107Z" fill="#FCDDEC"/>
<path d="M180.444 114.459L182.582 111.921L183.637 115.143L180.444 114.459Z" fill="#FCDDEC"/>
<path d="M184.64 86.2989L190.258 87.5112L186.47 91.8893L184.64 86.2989Z" fill="#FCDDEC"/>
<path d="M155.525 59.9076L163.323 61.5228L158.068 67.6773L155.525 59.9076Z" fill="#FCDDEC"/>
<path d="M142.088 68.9071L148.138 61.7377L151.084 70.7393L142.088 68.9071Z" fill="#FCDDEC"/>
<path d="M125.767 86.2974L134.199 76.3996L138.293 88.907L125.767 86.2974Z" fill="#FCDDEC"/>
<path d="M124.064 90.7942L138.249 93.7771L128.685 104.912L124.064 90.7942Z" fill="#FCDDEC"/>
<path d="M131.473 112.492L144.429 115.163L135.691 125.378L131.473 112.492Z" fill="#FCDDEC"/>
<path d="M141.192 128.109L147.761 120.336L150.986 130.191L141.192 128.109Z" fill="#FCDDEC"/>
<path d="M165.44 131.497L168.404 128.039L169.799 132.302L165.44 131.497Z" fill="#FCDDEC"/>
<path d="M178.642 125.534L181.067 126.062L179.417 127.902L178.642 125.534Z" fill="#FCDDEC"/>
<path d="M193.033 108.815L195.336 109.28L193.777 111.089L193.033 108.815Z" fill="#FCDDEC"/>
<path d="M194.344 97.805L196.941 94.7911L198.213 98.676L194.344 97.805Z" fill="#FCDDEC"/>
<path d="M186.417 77.0267L190.175 72.5538L192.005 78.1443L186.417 77.0267Z" fill="#FCDDEC"/>
<path d="M177.324 64.8857L183.771 66.1265L179.402 71.2342L177.324 64.8857Z" fill="#FCDDEC"/>
<path d="M170.962 44.1965L176.12 45.2525L172.637 49.3132L170.962 44.1965Z" fill="#FCDDEC"/>
<path d="M157.919 51.5817L162.135 46.6328L164.182 52.8865L157.919 51.5817Z" fill="#FCDDEC"/>
<path d="M134.064 55.339L142.2 57.0479L136.731 63.4878L134.064 55.339Z" fill="#FCDDEC"/>
<path d="M120.322 64.6559L126.983 56.8517L130.208 66.7061L120.322 64.6559Z" fill="#FCDDEC"/>
<path d="M117.765 70.2944L130.506 72.9348L121.889 82.8966L117.765 70.2944Z" fill="#FCDDEC"/>
<path d="M109.476 103.783L120.292 91.1562L125.502 107.075L109.476 103.783Z" fill="#FCDDEC"/>
<path d="M108.689 106.695L125.176 110.143L114.054 123.087L108.689 106.695Z" fill="#FCDDEC"/>
<path d="M117.036 124.689L127.118 112.95L131.956 127.732L117.036 124.689Z" fill="#FCDDEC"/>
<path d="M140.42 135.448L148.986 137.219L143.211 143.976L140.42 135.448Z" fill="#FCDDEC"/>
<path d="M150.681 148.344L154.104 144.409L155.747 149.431L150.681 148.344Z" fill="#FCDDEC"/>
<path d="M163.912 141.843L167.32 142.558L165.028 145.254L163.912 141.843Z" fill="#FCDDEC"/>
<path d="M188.83 135.077L189.136 134.76L189.291 135.234L188.83 135.077Z" fill="#FCDDEC"/>
<path d="M203.129 118.39L203.465 117.852L203.682 118.515L203.129 118.39Z" fill="#FCDDEC"/>
<path d="M206.839 91.5603L210.247 92.2749L207.956 94.9714L206.839 91.5603Z" fill="#FCDDEC"/>
<path d="M208.459 81.1819L211.331 77.7559L212.727 82.0198L208.459 81.1819Z" fill="#FCDDEC"/>
<path d="M199.493 70.0523L203.883 70.953L200.919 74.411L199.493 70.0523Z" fill="#FCDDEC"/>
<path d="M179.778 55.8008L183.23 51.6453L184.935 56.8567L179.778 55.8008Z" fill="#FCDDEC"/>
<path d="M174.118 34.1286L176.043 31.8762L176.973 34.7188L174.118 34.1286Z" fill="#FCDDEC"/>
<path d="M149.871 39.8165L154.722 40.8736L151.483 44.7437L149.871 39.8165Z" fill="#FCDDEC"/>
<path d="M136.98 47.043L140.861 42.633L142.691 48.2234L136.98 47.043Z" fill="#FCDDEC"/>
<path d="M112.541 50.5812L121.445 52.4453L115.456 59.4879L112.541 50.5812Z" fill="#FCDDEC"/>
<path d="M103.388 82.3647L113.195 70.7224L118.002 85.4092L103.388 82.3647Z" fill="#FCDDEC"/>
<path d="M101.773 85.5648L118.229 88.9186L107.107 101.862L101.773 85.5648Z" fill="#FCDDEC"/>
<path d="M94.6566 120.756L106.114 107.274L111.665 124.234L94.6566 120.756Z" fill="#FCDDEC"/>
<path d="M117.082 129.21L130.253 131.912L121.362 142.286L117.082 129.21Z" fill="#FCDDEC"/>
<path d="M126.832 144.922L133.462 137.024L136.718 146.973L126.832 144.922Z" fill="#FCDDEC"/>
<path d="M149.675 158.72L152.96 159.371L150.729 161.941L149.675 158.72Z" fill="#FCDDEC"/>
<path d="M174.011 152.051L174.957 150.878L175.454 152.394L174.011 152.051Z" fill="#FCDDEC"/>
<path d="M186.419 147.419L186.88 147.576L186.574 147.893L186.419 147.419Z" fill="#FCDDEC"/>
<path d="M215.079 113.919L215.539 114.075L215.234 114.392L215.079 113.919Z" fill="#FCDDEC"/>
<path d="M216.754 101.832L217.946 100.468L218.504 102.174L216.754 101.832Z" fill="#FCDDEC"/>
<path d="M221.108 74.7783L224.638 75.5557L222.255 78.2841L221.108 74.7783Z" fill="#FCDDEC"/>
<path d="M202.064 59.7654L204.295 57.1956L205.38 60.512L202.064 59.7654Z" fill="#FCDDEC"/>
<path d="M193.131 49.3631L196.324 50.0469L194.154 52.49L193.131 49.3631Z" fill="#FCDDEC"/>
<path d="M165.585 24.3257L167.274 24.7937L166.174 26.126L165.585 24.3257Z" fill="#FCDDEC"/>
<path d="M153.118 29.7166L154.737 27.7816L155.512 30.1504L153.118 29.7166Z" fill="#FCDDEC"/>
<path d="M129.148 35.9408L132.894 36.749L130.389 39.7309L129.148 35.9408Z" fill="#FCDDEC"/>
<path d="M115.888 42.6627L119.585 38.3166L121.353 43.7175L115.888 42.6627Z" fill="#FCDDEC"/>
<path d="M98.0959 60.5645L105.948 51.3962L109.732 62.9561L98.0959 60.5645Z" fill="#FCDDEC"/>
<path d="M95.6884 65.0958L110.302 68.1403L100.433 79.5931L95.6884 65.0958Z" fill="#FCDDEC"/>
<path d="M87.5261 99.5954L99.2281 85.9222L104.872 103.167L87.5261 99.5954Z" fill="#FCDDEC"/>
<path d="M87.0432 101.874L104.512 105.509L92.7494 119.308L87.0432 101.874Z" fill="#FCDDEC"/>
<path d="M94.2978 123.414L110.968 126.798L99.7249 139.996L94.2978 123.414Z" fill="#FCDDEC"/>
<path d="M103.227 141.311L112.698 130.207L117.288 144.231L103.227 141.311Z" fill="#FCDDEC"/>
<path d="M126.737 152.765L133.767 154.225L129.063 159.872L126.737 152.765Z" fill="#FCDDEC"/>
<path d="M137.057 164.901L139.623 161.793L140.894 165.678L137.057 164.901Z" fill="#FCDDEC"/>
<path d="M159.559 168.897L160.658 167.564L161.186 169.175L159.559 168.897Z" fill="#FCDDEC"/>
<path d="M171.874 163.981L172.98 164.23L172.216 165.023L171.874 163.981Z" fill="#FCDDEC"/>
<path d="M228.916 96.7589L230.451 97.0694L229.412 98.2749L228.916 96.7589Z" fill="#FCDDEC"/>
<path d="M230.563 85.2104L232.335 83.1167L233.203 85.7698L230.563 85.2104Z" fill="#FCDDEC"/>
<path d="M223.647 64.0803L225.419 61.9866L226.287 64.6396L223.647 64.0803Z" fill="#FCDDEC"/>
<path d="M214.776 54.1839L216.956 54.5868L215.49 56.3632L214.776 54.1839Z" fill="#FCDDEC"/>
<path d="M196.252 38.2518L197.138 37.205L197.572 38.5315L196.252 38.2518Z" fill="#FCDDEC"/>
<path d="M187.077 28.9888L188.182 29.2376L187.449 30.1258L187.077 28.9888Z" fill="#FCDDEC"/>
<path d="M132.454 25.0819L133.432 24.0031L133.866 25.3296L132.454 25.0819Z" fill="#FCDDEC"/>
<path d="M107.534 31.2149L112.047 32.1783L109.023 35.763L107.534 31.2149Z" fill="#FCDDEC"/>
<path d="M93.754 38.5397L98.4898 32.988L100.785 39.9998L93.754 38.5397Z" fill="#FCDDEC"/>
<path d="M90.4039 45.5093L101.272 47.7456L93.9082 56.2164L90.4039 45.5093Z" fill="#FCDDEC"/>
<path d="M81.07 78.3055L92.2526 65.2351L97.6487 81.7222L81.07 78.3055Z" fill="#FCDDEC"/>
<path d="M80.1276 80.744L97.5048 84.4107L85.8028 98.0839L80.1276 80.744Z" fill="#FCDDEC"/>
<path d="M73.074 116.441L84.9288 102.609L90.635 120.044L73.074 116.441Z" fill="#FCDDEC"/>
<path d="M72.6213 118.498L90.3363 122.259L78.4206 136.217L72.6213 118.498Z" fill="#FCDDEC"/>
<path d="M80.2656 137.475L91.8148 123.961L97.397 141.016L80.2656 137.475Z" fill="#FCDDEC"/>
<path d="M103.368 146.433L115.249 148.95L107.244 158.277L103.368 146.433Z" fill="#FCDDEC"/>
<path d="M113.452 161.29L118.921 154.85L121.588 162.999L113.452 161.29Z" fill="#FCDDEC"/>
<path d="M135.438 175.596L138.416 176.249L136.399 178.534L135.438 175.596Z" fill="#FCDDEC"/>
<path d="M144.8 185.744L146.419 183.809L147.225 186.272L144.8 185.744Z" fill="#FCDDEC"/>
<path d="M157.36 180.637L158.772 180.885L157.825 182.058L157.36 180.637Z" fill="#FCDDEC"/>
<path d="M181.478 172.989L181.783 172.672L181.907 173.051L181.478 172.989Z" fill="#FCDDEC"/>
<path d="M217.053 160.618L217.358 160.301L217.482 160.68L217.053 160.618Z" fill="#FCDDEC"/>
<path d="M228.941 156.273L229.371 156.335L229.065 156.652L228.941 156.273Z" fill="#FCDDEC"/>
<path d="M217.834 42.5667L218.262 41.9959L218.479 42.6592L217.834 42.5667Z" fill="#FCDDEC"/>
<path d="M85.6425 26.2687L91.6597 27.4479L87.5962 32.2381L85.6425 26.2687Z" fill="#FCDDEC"/>
<path d="M75.7172 56.632L84.9439 45.7193L89.4407 59.4585L75.7172 56.632Z" fill="#FCDDEC"/>
<path d="M73.4889 59.8344L90.2824 63.2818L78.978 76.6057L73.4889 59.8344Z" fill="#FCDDEC"/>
<path d="M66.0666 95.343L78.0433 81.2577L83.8425 98.9766L66.0666 95.343Z" fill="#FCDDEC"/>
<path d="M65.6138 97.4001L83.4816 101.002L71.413 115.119L65.6138 97.4001Z" fill="#FCDDEC"/>
<path d="M58.5302 133.319L70.6597 119.075L76.521 136.983L58.5302 133.319Z" fill="#FCDDEC"/>
<path d="M80.4606 140.573L96.0569 143.804L85.5465 156.113L80.4606 140.573Z" fill="#FCDDEC"/>
<path d="M89.5104 157.901L98.2177 147.591L102.466 160.572L89.5104 157.901Z" fill="#FCDDEC"/>
<path d="M113.053 170.083L118.672 171.295L114.914 175.768L113.053 170.083Z" fill="#FCDDEC"/>
<path d="M122.789 181.683L125.386 178.669L126.626 182.459L122.789 181.683Z" fill="#FCDDEC"/>
<path d="M71.8958 34.3207L77.3957 27.9755L80.0317 36.0295L71.8958 34.3207Z" fill="#FCDDEC"/>
<path d="M68.4504 40.3733L80.9766 42.9829L72.544 52.8807L68.4504 40.3733Z" fill="#FCDDEC"/>
<path d="M58.9361 74.1823L71.1575 59.9063L77.0808 78.0042L58.9361 74.1823Z" fill="#FCDDEC"/>
<path d="M58.4821 75.9233L76.8417 79.776L64.4984 94.3054L58.4821 75.9233Z" fill="#FCDDEC"/>
<path d="M51.7674 112.03L63.6832 98.0715L69.4514 115.696L51.7674 112.03Z" fill="#FCDDEC"/>
<path d="M51.3143 114.087L69.1212 117.816L57.1446 131.901L51.3143 114.087Z" fill="#FCDDEC"/>
<path d="M58.1071 135.154L76.2209 138.882L63.9994 153.157L58.1071 135.154Z" fill="#FCDDEC"/>
<path d="M66.3652 154.129L77.3949 141.217L82.729 157.515L66.3652 154.129Z" fill="#FCDDEC"/>
<path d="M89.4384 163.625L100.399 165.829L93.0048 174.521L89.4384 163.625Z" fill="#FCDDEC"/>
<path d="M99.7352 177.88L104.471 172.328L106.766 179.34L99.7352 177.88Z" fill="#FCDDEC"/>
<path d="M120.431 191.685L125.036 192.617L121.919 196.233L120.431 191.685Z" fill="#FCDDEC"/>
<path d="M64.4587 21.9204L70.2921 23.1635L66.3504 27.7003L64.4587 21.9204Z" fill="#FCDDEC"/>
<path d="M54.2265 52.285L63.7899 41.1496L68.3796 55.1731L54.2265 52.285Z" fill="#FCDDEC"/>
<path d="M52.0281 55.2659L69.2824 58.8697L57.6413 72.4162L52.0281 55.2659Z" fill="#FCDDEC"/>
<path d="M44.5761 90.996L56.8584 76.5933L62.7817 94.6912L44.5761 90.996Z" fill="#FCDDEC"/>
<path d="M44.5218 93.0201L62.0219 96.7495L50.259 110.549L44.5218 93.0201Z" fill="#FCDDEC"/>
<path d="M37.2234 128.908L49.4449 114.632L55.3372 132.635L37.2234 128.908Z" fill="#FCDDEC"/>
<path d="M36.6155 130.491L55.3129 134.438L42.7249 149.158L36.6155 130.491Z" fill="#FCDDEC"/>
<path d="M43.8633 150.134L56.3904 135.54L62.4377 154.017L43.8633 150.134Z" fill="#FCDDEC"/>
<path d="M66.4693 157.576L81.3291 160.746L71.3382 172.452L66.4693 157.576Z" fill="#FCDDEC"/>
<path d="M75.7628 174.396L83.8288 164.942L87.7363 176.881L75.7628 174.396Z" fill="#FCDDEC"/>
<path d="M98.6623 186.801L104.496 188.045L100.554 192.581L98.6623 186.801Z" fill="#FCDDEC"/>
<path d="M107.662 198.658L111.237 194.565L112.943 199.777L107.662 198.658Z" fill="#FCDDEC"/>
<path d="M51.7232 29.6208L55.9085 24.5771L57.9863 30.9255L51.7232 29.6208Z" fill="#FCDDEC"/>
<path d="M48.0364 36.8129L58.5668 38.9555L51.4787 47.3305L48.0364 36.8129Z" fill="#FCDDEC"/>
<path d="M38.3036 69.6423L49.7609 56.1598L55.312 73.1206L38.3036 69.6423Z" fill="#FCDDEC"/>
<path d="M37.4521 71.7326L55.351 75.4289L43.2824 89.5462L37.4521 71.7326Z" fill="#FCDDEC"/>
<path d="M30.8594 107.586L42.4086 94.0716L47.9597 111.032L30.8594 107.586Z" fill="#FCDDEC"/>
<path d="M30.1309 109.739L47.8149 113.405L35.8991 127.363L30.1309 109.739Z" fill="#FCDDEC"/>
<path d="M22.5878 145.818L35.1448 131.003L41.2542 149.669L22.5878 145.818Z" fill="#FCDDEC"/>
<path d="M44.147 152.251L61.4013 155.855L49.7912 169.496L44.147 152.251Z" fill="#FCDDEC"/>
<path d="M52.6487 170.719L62.9143 158.601L67.9072 173.856L52.6487 170.719Z" fill="#FCDDEC"/>
<path d="M76.0319 181.162L85.0273 182.994L78.9471 190.069L76.0319 181.162Z" fill="#FCDDEC"/>
<path d="M85.8349 194.534L90.1121 189.458L92.1899 195.807L85.8349 194.534Z" fill="#FCDDEC"/>
<path d="M34.9421 47.171L42.1221 38.7641L45.5955 49.3765L34.9421 47.171Z" fill="#FCDDEC"/>
<path d="M32.1366 52.0513L46.3208 55.0341L36.7884 66.2643L32.1366 52.0513Z" fill="#FCDDEC"/>
<path d="M24.1885 86.2655L35.432 73.0683L40.8901 89.7449L24.1885 86.2655Z" fill="#FCDDEC"/>
<path d="M23.7688 89.0498L40.2556 92.4984L29.1649 105.537L23.7688 89.0498Z" fill="#FCDDEC"/>
<path d="M16.2846 124.369L28.1395 110.537L33.8767 128.066L16.2846 124.369Z" fill="#FCDDEC"/>
<path d="M15.6167 126.395L33.7304 130.122L21.5089 144.398L15.6167 126.395Z" fill="#FCDDEC"/>
<path d="M22.5322 147.525L40.6459 151.253L28.4245 165.529L22.5322 147.525Z" fill="#FCDDEC"/>
<path d="M30.4227 166.628L41.88 153.145L47.4622 170.201L30.4227 166.628Z" fill="#FCDDEC"/>
<path d="M53.1251 175.303L65.7432 177.88L57.2187 187.81L53.1251 175.303Z" fill="#FCDDEC"/>
<path d="M63.0574 190.634L69.1986 183.433L72.1758 192.529L63.0574 190.634Z" fill="#FCDDEC"/>
<path d="M84.887 204.151L89.3692 205.019L86.3446 208.604L84.887 204.151Z" fill="#FCDDEC"/>
<path d="M32.2548 24.5707L34.3326 22.1596L35.325 25.1917L32.2548 24.5707Z" fill="#FCDDEC"/>
<path d="M28.7299 34.1338L34.993 35.4386L30.7456 40.2928L28.7299 34.1338Z" fill="#FCDDEC"/>
<path d="M19.3872 64.4004L28.0646 54.3119L32.2202 67.0088L19.3872 64.4004Z" fill="#FCDDEC"/>
<path d="M17.7456 68.7705L32.0528 71.8161L22.4285 83.0782L17.7456 68.7705Z" fill="#FCDDEC"/>
<path d="M10.5636 102.823L20.9211 90.6732L25.9451 106.023L10.5636 102.823Z" fill="#FCDDEC"/>
<path d="M9.53156 105.926L25.8034 109.344L14.8346 122.129L9.53156 105.926Z" fill="#FCDDEC"/>
<path d="M9.57537 162.057L20.6051 149.145L25.9392 165.443L9.57537 162.057Z" fill="#FCDDEC"/>
<path d="M30.8945 169.947L45.8462 173.085L35.7634 184.823L30.8945 169.947Z" fill="#FCDDEC"/>
<path d="M39.9122 186.863L48.2839 177.091L52.3464 189.504L39.9122 186.863Z" fill="#FCDDEC"/>
<path d="M63.1183 199.267L68.8287 200.447L64.948 204.858L63.1183 199.267Z" fill="#FCDDEC"/>
<path d="M73.0985 210.677L75.3899 207.981L76.5063 211.392L73.0985 210.677Z" fill="#FCDDEC"/>
<path d="M16.6079 41.8319L20.3048 37.4858L22.0725 42.8867L16.6079 41.8319Z" fill="#FCDDEC"/>
<path d="M13.4461 50.0025L21.8889 51.7102L16.2062 58.4355L13.4461 50.0025Z" fill="#FCDDEC"/>
<path d="M10.0186 165.913L24.0799 168.833L14.6084 179.937L10.0186 165.913Z" fill="#FCDDEC"/>
<path d="M17.8091 182.834L27.2806 171.731L31.8394 185.66L17.8091 182.834Z" fill="#FCDDEC"/>
<path d="M40.4882 193.628L49.2688 195.429L43.3413 202.345L40.4882 193.628Z" fill="#FCDDEC"/>
<path d="M50.9037 206.681L54.3869 202.62L56.0615 207.737L50.9037 206.681Z" fill="#FCDDEC"/>
<path d="M18.1348 188.209L29.4327 190.507L21.8252 199.485L18.1348 188.209Z" fill="#FCDDEC"/>
<path d="M27.7583 202.909L33.5329 196.152L36.324 204.68L27.7583 202.909Z" fill="#FCDDEC"/>
<path d="M27.9433 211.921L32.7943 212.978L29.5249 216.754L27.9433 211.921Z" fill="#FCDDEC"/>
</g>
</g>
</g>
<path d="M171.698 78.7217H290.684V95.9972H285.068V116.71H288.227V99.2533H293.843V75.556H245.143C252.426 74.5611 261.113 72.6617 267.255 69.0438C285.858 58.0996 272.52 36.573 257.34 43.3566C252.338 45.5274 247.863 49.9593 244.002 54.753C242.598 56.562 241.282 58.4614 240.054 60.2703C235.754 66.7826 232.77 73.0235 231.718 75.4656H230.752C229.612 73.0235 226.716 66.6921 222.416 60.2703C221.188 58.4614 219.872 56.562 218.468 54.753C214.519 49.9593 209.956 45.5274 204.954 43.3566C189.686 36.4826 176.436 58.0092 195.039 68.9533C201.181 72.5712 209.868 74.4706 217.151 75.4656H168.539V99.2533H174.155V159.22H177.314V96.0877H171.698V78.7217ZM274.451 56.0193C278.224 65.7877 253.128 72.6617 237.86 75.556H232.156C243.125 63.7978 270.239 45.0751 274.451 56.0193ZM187.844 56.0193C192.055 44.9847 219.257 63.7978 230.138 75.4656H224.434C209.166 72.6617 184.158 65.7877 187.844 56.0193Z" fill="white"/>
<rect x="22" y="155.964" width="155.314" height="3.25612" fill="white"/>
<rect x="288.227" y="114.358" width="45.2239" height="3.15892" transform="rotate(90 288.227 114.358)" fill="white"/>
<rect x="347" y="159.6" width="61.1194" height="3.6" transform="rotate(-180 347 159.6)" fill="white"/>
<path d="M221.575 105.202V106.63C221.575 109.735 220.509 112.319 218.379 114.382C216.248 116.422 213.426 117.442 209.913 117.442C206.286 117.442 203.283 116.252 200.903 113.872C198.545 111.469 197.367 108.545 197.367 105.1C197.367 101.655 198.545 98.742 200.903 96.362C203.283 93.9593 206.263 92.758 209.845 92.758C212.043 92.758 214.061 93.2907 215.897 94.356C217.733 95.3987 219.149 96.7813 220.147 98.504L217.427 100.102C216.747 98.81 215.715 97.7787 214.333 97.008C212.973 96.2147 211.465 95.818 209.811 95.818C207.091 95.818 204.858 96.7133 203.113 98.504C201.367 100.272 200.495 102.471 200.495 105.1C200.495 107.729 201.367 109.928 203.113 111.696C204.881 113.464 207.159 114.348 209.947 114.348C212.327 114.348 214.253 113.77 215.727 112.614C217.2 111.435 218.095 109.917 218.413 108.058H209.675V105.202H221.575ZM225.42 93.2H228.582V117H225.42V93.2ZM247.389 96.192H236.849V103.91H246.947V106.902H236.849V117H233.687V93.2H247.389V96.192ZM266.45 93.2V96.192H259.412V117H256.284V96.192H249.28V93.2H266.45ZM211.587 151.442C207.983 151.442 205.002 150.252 202.645 147.872C200.31 145.492 199.143 142.568 199.143 139.1C199.143 135.632 200.31 132.708 202.645 130.328C205.002 127.948 207.983 126.758 211.587 126.758C213.763 126.758 215.758 127.279 217.571 128.322C219.407 129.365 220.835 130.77 221.855 132.538L219.101 134.136C218.421 132.821 217.401 131.779 216.041 131.008C214.704 130.215 213.219 129.818 211.587 129.818C208.844 129.818 206.6 130.702 204.855 132.47C203.132 134.238 202.271 136.448 202.271 139.1C202.271 141.729 203.132 143.928 204.855 145.696C206.6 147.464 208.844 148.348 211.587 148.348C213.219 148.348 214.704 147.963 216.041 147.192C217.401 146.399 218.421 145.356 219.101 144.064L221.855 145.628C220.858 147.396 219.441 148.813 217.605 149.878C215.769 150.921 213.763 151.442 211.587 151.442ZM240.845 151L238.907 145.662H228.197L226.259 151H222.893L231.767 127.2H235.337L244.211 151H240.845ZM229.285 142.704H237.819L233.535 130.974L229.285 142.704ZM261.128 151L255.79 141.888H250.18V151H247.018V127.2H256.538C258.578 127.2 260.324 127.925 261.774 129.376C263.225 130.804 263.95 132.538 263.95 134.578C263.95 136.119 263.486 137.525 262.556 138.794C261.65 140.063 260.471 140.959 259.02 141.48L264.63 151H261.128ZM250.18 130.158V139.032H256.538C257.717 139.032 258.714 138.601 259.53 137.74C260.369 136.856 260.788 135.802 260.788 134.578C260.788 133.354 260.369 132.311 259.53 131.45C258.714 130.589 257.717 130.158 256.538 130.158H250.18ZM231.182 161.2C234.423 161.2 237.109 162.356 239.24 164.668C241.393 166.957 242.47 169.768 242.47 173.1C242.47 176.432 241.393 179.254 239.24 181.566C237.109 183.855 234.423 185 231.182 185H221.9V161.2H231.182ZM231.182 182.008C233.607 182.008 235.591 181.158 237.132 179.458C238.673 177.758 239.444 175.639 239.444 173.1C239.444 170.561 238.673 168.442 237.132 166.742C235.591 165.042 233.607 164.192 231.182 164.192H225.062V182.008H231.182Z" fill="white"/>
<path d="M39.9283 190.024C38.5727 190.024 37.5068 189.496 36.7307 188.44C35.9649 187.373 35.582 185.96 35.582 184.2C35.582 182.44 35.9649 181.032 36.7307 179.976C37.5068 178.909 38.5727 178.376 39.9283 178.376C41.2943 178.376 42.3601 178.909 43.1259 179.976C43.8917 181.032 44.2746 182.44 44.2746 184.2C44.2746 185.96 43.8917 187.373 43.1259 188.44C42.3601 189.496 41.2943 190.024 39.9283 190.024ZM38.2829 186.936C38.6555 187.555 39.2039 187.864 39.9283 187.864C40.6527 187.864 41.2011 187.549 41.5737 186.92C41.9566 186.291 42.148 185.384 42.148 184.2C42.148 183.005 41.9566 182.093 41.5737 181.464C41.2011 180.835 40.6527 180.52 39.9283 180.52C39.2039 180.52 38.6555 180.835 38.2829 181.464C37.9104 182.093 37.7241 183.005 37.7241 184.2C37.7241 185.395 37.9104 186.307 38.2829 186.936Z" fill="white"/>
<path d="M47.5397 178.6H49.4024V189.8H47.2603V180.936L45.2114 181.528L44.6836 179.64L47.5397 178.6Z" fill="white"/>
<path d="M51.9127 191.4H51.0279L57.2369 177H58.1216L51.9127 191.4Z" fill="white"/>
<path d="M59.0598 189.8V188.152L62.7696 184.216C63.5975 183.32 64.0114 182.573 64.0114 181.976C64.0114 181.539 63.8769 181.187 63.6078 180.92C63.3491 180.653 63.0128 180.52 62.5989 180.52C61.7814 180.52 61.176 180.957 60.7827 181.832L58.9822 180.744C59.3236 179.976 59.8152 179.389 60.4568 178.984C61.0984 178.579 61.8021 178.376 62.5678 178.376C63.5509 178.376 64.3943 178.696 65.098 179.336C65.8017 179.965 66.1535 180.819 66.1535 181.896C66.1535 183.059 65.5585 184.253 64.3684 185.48L62.2419 187.672H66.3242V189.8H59.0598Z" fill="white"/>
<path d="M71.1137 182.232C72.2417 182.264 73.1575 182.643 73.8612 183.368C74.5649 184.083 74.9167 185 74.9167 186.12C74.9167 187.261 74.5494 188.2 73.8146 188.936C73.0799 189.661 72.133 190.024 70.974 190.024C69.815 190.024 68.8682 189.661 68.1334 188.936C67.4091 188.211 67.0469 187.272 67.0469 186.12C67.0469 185.267 67.259 184.515 67.6833 183.864L71.0672 178.6H73.5197L71.1137 182.232ZM69.6857 187.448C70.0272 187.779 70.4566 187.944 70.974 187.944C71.4915 187.944 71.9209 187.779 72.2624 187.448C72.6142 187.117 72.7902 186.675 72.7902 186.12C72.7902 185.576 72.6142 185.139 72.2624 184.808C71.9209 184.477 71.4915 184.312 70.974 184.312C70.4566 184.312 70.0272 184.477 69.6857 184.808C69.3442 185.128 69.1734 185.565 69.1734 186.12C69.1734 186.675 69.3442 187.117 69.6857 187.448Z" fill="white"/>
<path d="M303.185 183.543C304.515 183.543 305.635 183.962 306.544 184.799C307.452 185.624 307.907 186.777 307.907 188.261C307.907 189.745 307.426 190.905 306.464 191.743C305.516 192.581 304.35 193 302.967 193C301.847 193 300.86 192.739 300.003 192.217C299.147 191.695 298.528 190.926 298.146 189.909L300.478 188.488C300.82 189.641 301.65 190.218 302.967 190.218C303.665 190.218 304.205 190.047 304.587 189.703C304.983 189.346 305.18 188.865 305.18 188.261C305.18 187.67 304.989 187.196 304.607 186.839C304.225 186.482 303.705 186.304 303.046 186.304H298.857L299.411 178.288H307.255V180.946H301.94L301.762 183.543H303.185Z" fill="white"/>
<path d="M314.469 193C312.744 193 311.387 192.32 310.399 190.96C309.424 189.587 308.937 187.766 308.937 185.5C308.937 183.234 309.424 181.42 310.399 180.06C311.387 178.687 312.744 178 314.469 178C316.208 178 317.565 178.687 318.54 180.06C319.515 181.42 320.002 183.234 320.002 185.5C320.002 187.766 319.515 189.587 318.54 190.96C317.565 192.32 316.208 193 314.469 193ZM312.375 189.023C312.849 189.82 313.547 190.218 314.469 190.218C315.392 190.218 316.09 189.813 316.564 189.003C317.051 188.192 317.295 187.025 317.295 185.5C317.295 183.962 317.051 182.787 316.564 181.977C316.09 181.166 315.392 180.761 314.469 180.761C313.547 180.761 312.849 181.166 312.375 181.977C311.901 182.787 311.664 183.962 311.664 185.5C311.664 187.038 311.901 188.213 312.375 189.023Z" fill="white"/>
<path d="M326.915 193C325.19 193 323.833 192.32 322.845 190.96C321.87 189.587 321.383 187.766 321.383 185.5C321.383 183.234 321.87 181.42 322.845 180.06C323.833 178.687 325.19 178 326.915 178C328.654 178 330.011 178.687 330.986 180.06C331.96 181.42 332.448 183.234 332.448 185.5C332.448 187.766 331.96 189.587 330.986 190.96C330.011 192.32 328.654 193 326.915 193ZM324.821 189.023C325.295 189.82 325.993 190.218 326.915 190.218C327.837 190.218 328.535 189.813 329.01 189.003C329.497 188.192 329.741 187.025 329.741 185.5C329.741 183.962 329.497 182.787 329.01 181.977C328.535 181.166 327.837 180.761 326.915 180.761C325.993 180.761 325.295 181.166 324.821 181.977C324.347 182.787 324.109 183.962 324.109 185.5C324.109 187.038 324.347 188.213 324.821 189.023Z" fill="white"/>
<path d="M282.945 192.727H279.81L274.881 185.826V192.727H272.16V178H274.881V184.501L279.613 178H282.748L277.641 185.153L282.945 192.727Z" fill="white"/>
<path d="M286.715 184.017C286.952 183.344 287.34 182.839 287.879 182.502C288.431 182.165 289.042 181.997 289.712 181.997V185.027C288.937 184.928 288.24 185.097 287.622 185.532C287.018 185.966 286.715 186.689 286.715 187.698V192.727H284.172V182.208H286.715V184.017Z" fill="white"/>
<path d="M292.456 192.474C292.127 192.825 291.733 193 291.273 193C290.813 193 290.419 192.825 290.09 192.474C289.761 192.123 289.597 191.703 289.597 191.212C289.597 190.721 289.761 190.3 290.09 189.95C290.419 189.599 290.813 189.424 291.273 189.424C291.733 189.424 292.127 189.599 292.456 189.95C292.785 190.3 292.949 190.721 292.949 191.212C292.949 191.703 292.785 192.123 292.456 192.474Z" fill="white"/>
<defs>
<filter id="filter0_d_2560_1760" x="24.2537" y="57" width="326.492" height="206" filterUnits="userSpaceOnUse" color-interpolation-filters="sRGB">
<feFlood flood-opacity="0" result="BackgroundImageFix"/>
<feColorMatrix in="SourceAlpha" type="matrix" values="0 0 0 0 0 0 0 0 0 0 0 0 0 0 0 0 0 0 127 0" result="hardAlpha"/>
<feOffset dx="3" dy="3"/>
<feGaussianBlur stdDeviation="12.5"/>
<feComposite in2="hardAlpha" operator="out"/>
<feColorMatrix type="matrix" values="0 0 0 0 0 0 0 0 0 0 0 0 0 0 0 0 0 0 0.17 0"/>
<feBlend mode="normal" in2="BackgroundImageFix" result="effect1_dropShadow_2560_1760"/>
<feBlend mode="normal" in="SourceGraphic" in2="effect1_dropShadow_2560_1760" result="shape"/>
</filter>
<filter id="filter1_d_2560_1760" x="9.70142" y="31" width="355.597" height="222" filterUnits="userSpaceOnUse" color-interpolation-filters="sRGB">
<feFlood flood-opacity="0" result="BackgroundImageFix"/>
<feColorMatrix in="SourceAlpha" type="matrix" values="0 0 0 0 0 0 0 0 0 0 0 0 0 0 0 0 0 0 127 0" result="hardAlpha"/>
<feOffset dx="3" dy="3"/>
<feGaussianBlur stdDeviation="12.5"/>
<feComposite in2="hardAlpha" operator="out"/>
<feColorMatrix type="matrix" values="0 0 0 0 0 0 0 0 0 0 0 0 0 0 0 0 0 0 0.17 0"/>
<feBlend mode="normal" in2="BackgroundImageFix" result="effect1_dropShadow_2560_1760"/>
<feBlend mode="normal" in="SourceGraphic" in2="effect1_dropShadow_2560_1760" result="shape"/>
</filter>
<filter id="filter2_d_2560_1760" x="0" y="0" width="375" height="243" filterUnits="userSpaceOnUse" color-interpolation-filters="sRGB">
<feFlood flood-opacity="0" result="BackgroundImageFix"/>
<feColorMatrix in="SourceAlpha" type="matrix" values="0 0 0 0 0 0 0 0 0 0 0 0 0 0 0 0 0 0 127 0" result="hardAlpha"/>
<feOffset dx="3" dy="3"/>
<feGaussianBlur stdDeviation="12.5"/>
<feComposite in2="hardAlpha" operator="out"/>
<feColorMatrix type="matrix" values="0 0 0 0 0 0 0 0 0 0 0 0 0 0 0 0 0 0 0.17 0"/>
<feBlend mode="normal" in2="BackgroundImageFix" result="effect1_dropShadow_2560_1760"/>
<feBlend mode="normal" in="SourceGraphic" in2="effect1_dropShadow_2560_1760" result="shape"/>
</filter>
</defs>
</svg>
