<svg width="40" height="40" viewBox="0 0 40 40" fill="none" xmlns="http://www.w3.org/2000/svg">
<rect opacity="0.2" x="1" y="1" width="38" height="38" rx="9" stroke="#BFBFBF" stroke-width="2"/>
<path fill-rule="evenodd" clip-rule="evenodd" d="M22.742 27.5029C22.7557 27.8918 22.6387 28.2655 22.4823 28.5712C22.1481 29.1837 21.501 29.5233 20.7667 29.539L19.4245 29.5203C18.7103 29.5131 18.0387 29.1185 17.6902 28.5147C17.5183 28.2171 17.4101 27.8374 17.4194 27.4692C17.4332 27.1665 17.3358 26.8825 17.1787 26.6104C16.6927 25.7686 15.5945 25.4615 14.756 25.9116C13.7991 26.4641 12.5986 26.1141 12.034 25.1362L11.3663 23.9797C10.7967 22.9933 11.0939 21.7786 12.0509 21.2261C12.8648 20.7335 13.1479 19.6289 12.6619 18.7871C12.4999 18.5064 12.3027 18.2802 12.0385 18.1492C11.7149 17.9732 11.4354 17.6811 11.2684 17.392C10.9149 16.7797 10.909 16.0008 11.2599 15.3787L11.9197 14.2155C12.2789 13.5886 12.9181 13.1968 13.6156 13.2136C13.9438 13.2056 14.3407 13.3165 14.6657 13.5144C14.9197 13.6852 15.1995 13.7278 15.5076 13.7427C16.4687 13.7547 17.2616 12.9567 17.2687 11.9889C17.2569 10.8732 18.1566 9.99097 19.2602 10.0001L20.571 10.0029C21.6796 10.0205 22.5796 10.9068 22.5879 12.0358C22.6156 13.0063 23.4367 13.8134 24.3944 13.8388C24.7059 13.8403 24.9997 13.7727 25.2395 13.6116C25.5542 13.4072 25.9161 13.323 26.259 13.3405C26.9566 13.3572 27.6183 13.7348 27.9934 14.346L28.6856 15.545C29.0489 16.1743 29.0284 16.9458 28.6942 17.5583C28.5329 17.8555 28.2839 18.1353 27.9447 18.2971C27.6853 18.4242 27.4798 18.6449 27.3254 18.9154C26.8685 19.7575 27.157 20.8721 27.9884 21.3898C28.9571 21.9531 29.2796 23.1842 28.7356 24.1445L28.0827 25.2811C27.5437 26.2499 26.3298 26.5879 25.3646 26.0114C24.5229 25.5336 23.4354 25.8213 22.9701 26.6682C22.824 26.9339 22.721 27.1975 22.742 27.5029ZM18.6231 17.352C17.3167 18.1063 16.9001 19.7868 17.6709 21.1218C18.4417 22.4569 20.0906 22.9108 21.397 22.1566C22.7034 21.4023 23.1431 19.7426 22.3723 18.4075C21.6015 17.0724 19.9295 16.5978 18.6231 17.352Z" fill="#5456B7"/>
</svg>
