<svg width="81" height="81" viewBox="0 0 81 81" fill="none" xmlns="http://www.w3.org/2000/svg">
<circle cx="40.5" cy="40.5" r="40.5" fill="#4AD395"/>
<path d="M33.5812 48.2992L33.9457 48.6923L34.3125 48.3014C34.638 47.9545 34.9053 47.6969 35.1589 47.4526C35.258 47.3572 35.355 47.2637 35.4525 47.1677L35.4597 47.1607L35.4665 47.1534L52.6998 28.786C52.7892 28.6907 52.8717 28.6 52.9499 28.5139C53.1947 28.2443 53.3984 28.0199 53.648 27.8421C54.0497 27.565 54.4058 27.474 54.7128 27.5062C55.0185 27.5384 55.3481 27.7005 55.6834 28.0693C55.9911 28.4086 56.1362 28.752 56.1644 29.0933C56.1929 29.4366 56.1064 29.8213 55.8766 30.2444C55.71 30.5179 55.4994 30.7403 55.2389 31.0151C55.1938 31.0627 55.1473 31.1118 55.0992 31.163L35.7887 51.7443C34.9514 52.6367 34.4487 52.9202 34.051 52.9223C33.656 52.9245 33.1617 52.6497 32.3379 51.7717L28.7604 47.9588L25.183 44.1459C24.6011 43.5258 24.3249 42.9519 24.2702 42.4644C24.2176 41.9952 24.363 41.5507 24.7447 41.1428C25.1246 40.75 25.5129 40.6237 25.9135 40.6844C26.3449 40.7497 26.8774 41.0452 27.4787 41.6858C28.4056 42.6865 29.3451 43.7069 30.3019 44.7459C31.3714 45.9075 32.4624 47.0923 33.5812 48.2992Z" fill="white" stroke="white"/>
</svg>
