<svg width="163" height="100" viewBox="0 0 163 100" fill="none" xmlns="http://www.w3.org/2000/svg">
<path opacity="0.5" d="M0 0H154.5C158.918 0 162.5 3.58172 162.5 8V92C162.5 96.4183 158.918 100 154.5 100H0V0Z" fill="#00B9F2"/>
<path d="M72.612 54L69.112 44.2H70.512L73.354 52.376L76.182 44.2H77.596L74.082 54H72.612ZM78.9619 45.726C78.7285 45.726 78.5325 45.6467 78.3739 45.488C78.2152 45.3293 78.1359 45.138 78.1359 44.914C78.1359 44.69 78.2152 44.4987 78.3739 44.34C78.5325 44.172 78.7285 44.088 78.9619 44.088C79.1859 44.088 79.3772 44.172 79.5359 44.34C79.6945 44.4987 79.7739 44.69 79.7739 44.914C79.7739 45.138 79.6945 45.3293 79.5359 45.488C79.3772 45.6467 79.1859 45.726 78.9619 45.726ZM78.3459 54V47H79.5639V54H78.3459ZM87.218 47H88.436V54H87.218V52.796C86.6114 53.72 85.7294 54.182 84.572 54.182C83.592 54.182 82.7567 53.8273 82.066 53.118C81.3754 52.3993 81.03 51.5267 81.03 50.5C81.03 49.4733 81.3754 48.6053 82.066 47.896C82.7567 47.1773 83.592 46.818 84.572 46.818C85.7294 46.818 86.6114 47.28 87.218 48.204V47ZM84.726 53.006C85.4354 53.006 86.028 52.768 86.504 52.292C86.98 51.8067 87.218 51.2093 87.218 50.5C87.218 49.7907 86.98 49.198 86.504 48.722C86.028 48.2367 85.4354 47.994 84.726 47.994C84.026 47.994 83.438 48.2367 82.962 48.722C82.486 49.198 82.248 49.7907 82.248 50.5C82.248 51.2093 82.486 51.8067 82.962 52.292C83.438 52.768 84.026 53.006 84.726 53.006ZM95.2094 52.768H99.7594V54H93.9074V44.2H99.6894V45.432H95.2094V48.442H99.3394V49.66H95.2094V52.768ZM108.765 46.818C109.549 46.818 110.184 47.0747 110.669 47.588C111.155 48.092 111.397 48.778 111.397 49.646V54H110.179V49.688C110.179 49.1467 110.039 48.7267 109.759 48.428C109.479 48.1293 109.106 47.98 108.639 47.98C108.117 47.98 107.697 48.1573 107.379 48.512C107.071 48.8573 106.917 49.3893 106.917 50.108V54H105.699V49.688C105.699 49.1467 105.564 48.7267 105.293 48.428C105.032 48.1293 104.673 47.98 104.215 47.98C103.702 47.98 103.273 48.1573 102.927 48.512C102.591 48.8667 102.423 49.3987 102.423 50.108V54H101.205V47H102.423V47.938C102.899 47.1913 103.595 46.818 104.509 46.818C105.452 46.818 106.138 47.2147 106.567 48.008C107.053 47.2147 107.785 46.818 108.765 46.818ZM118.882 47H120.1V54H118.882V52.796C118.275 53.72 117.393 54.182 116.236 54.182C115.256 54.182 114.421 53.8273 113.73 53.118C113.039 52.3993 112.694 51.5267 112.694 50.5C112.694 49.4733 113.039 48.6053 113.73 47.896C114.421 47.1773 115.256 46.818 116.236 46.818C117.393 46.818 118.275 47.28 118.882 48.204V47ZM116.39 53.006C117.099 53.006 117.692 52.768 118.168 52.292C118.644 51.8067 118.882 51.2093 118.882 50.5C118.882 49.7907 118.644 49.198 118.168 48.722C117.692 48.2367 117.099 47.994 116.39 47.994C115.69 47.994 115.102 48.2367 114.626 48.722C114.15 49.198 113.912 49.7907 113.912 50.5C113.912 51.2093 114.15 51.8067 114.626 52.292C115.102 52.768 115.69 53.006 116.39 53.006ZM122.561 45.726C122.328 45.726 122.132 45.6467 121.973 45.488C121.815 45.3293 121.735 45.138 121.735 44.914C121.735 44.69 121.815 44.4987 121.973 44.34C122.132 44.172 122.328 44.088 122.561 44.088C122.785 44.088 122.977 44.172 123.135 44.34C123.294 44.4987 123.373 44.69 123.373 44.914C123.373 45.138 123.294 45.3293 123.135 45.488C122.977 45.6467 122.785 45.726 122.561 45.726ZM121.945 54V47H123.163V54H121.945ZM125.022 54V43.78H126.24V54H125.022Z" fill="white"/>
<g clip-path="url(#clip0_3229_3127)">
<path d="M47.5099 41C50.8009 41 54.0821 41 57.3731 41C57.7149 41 58.0665 41.0097 58.3888 41.0877C59.3263 41.3215 60.0001 42.179 60.0001 43.1631C60.0099 48.0446 60.0099 52.9359 60.0001 57.8174C60.0001 58.9672 59.1505 59.8441 58.0079 59.961C57.8028 59.9805 57.588 59.9903 57.3731 59.9903C50.7813 59.9903 44.1993 59.9903 37.6075 59.9903C37.2657 59.9903 36.9142 59.9805 36.5919 59.8928C35.6446 59.6492 35.0099 58.8015 35.0099 57.7979C35.0001 52.9262 35.0001 48.0544 35.0099 43.1923C35.0099 42.0133 35.8497 41.1364 37.0216 41.0292C37.2462 41.0097 37.4708 41 37.7052 41C40.9669 41 44.2384 41 47.5099 41ZM37.881 42.4908C41.0548 45.7354 44.297 49.0482 47.4122 52.2441C50.7228 48.9508 53.9845 45.6867 57.1974 42.4908C50.7716 42.4908 44.2286 42.4908 37.881 42.4908ZM37.6954 58.48C44.2286 58.48 50.7813 58.48 57.3341 58.48C55.0196 56.1708 52.7345 53.8908 50.42 51.5815C49.7267 52.2831 49.004 53.0041 48.2813 53.7251C47.7149 54.2903 47.3731 54.2903 46.8067 53.7154C46.0743 52.9749 45.3614 52.2344 44.6778 51.5231C42.295 53.8908 40.0001 56.1805 37.6954 58.48ZM36.4845 57.3108C38.7892 55.0113 41.1036 52.7021 43.2325 50.5779C41.006 48.2979 38.7403 45.979 36.4845 43.6795C36.4845 48.22 36.4845 52.7897 36.4845 57.3108ZM58.5157 43.7282C56.2403 45.9985 53.9454 48.2882 51.7188 50.5097C53.9552 52.741 56.2501 55.0308 58.5157 57.2913C58.5157 52.7897 58.5157 48.22 58.5157 43.7282Z" fill="white"/>
</g>
<defs>
<clipPath id="clip0_3229_3127">
<rect width="25" height="19" fill="white" transform="translate(35 41)"/>
</clipPath>
</defs>
</svg>
