<svg width="163" height="100" viewBox="0 0 163 100" fill="none" xmlns="http://www.w3.org/2000/svg">
<path opacity="0.5" d="M0 8C0 3.58172 3.58172 0 8 0H162.5V100H8C3.58172 100 0 96.4183 0 92V8Z" fill="#00B9F2"/>
<path d="M61 50.5592C61 55.5616 61 60.564 61 65.5812C61 67.6828 59.7199 69 57.6918 69C52.9021 69 48.1123 69 43.3082 69C41.2801 69 40 67.668 40 65.5664C40 55.5024 40 45.4384 40 35.3892C40 33.3468 41.2945 32 43.2795 32C48.0979 32 52.9164 32 57.7349 32C59.7055 32 61 33.3468 61 35.3892C61 40.4508 61 45.4976 61 50.5592ZM44.6171 33.7908C42.8336 33.48 41.8267 33.8796 41.8411 36.0108C41.8986 45.69 41.8699 55.384 41.8699 65.078C41.8699 66.6616 42.3445 67.15 43.8836 67.15C48.2993 67.15 52.7007 67.15 57.1164 67.15C58.6555 67.15 59.1301 66.6616 59.1301 65.078C59.1301 55.31 59.1301 45.542 59.1301 35.7888C59.1301 35.5668 59.1445 35.3448 59.1158 35.1228C59.0438 34.368 58.5548 33.8352 57.8356 33.7612C57.3753 33.702 56.8863 33.7464 56.3829 33.7464C56.3541 34.0128 56.3253 34.22 56.2966 34.442C56.1959 35.1524 55.7932 35.552 55.0884 35.552C52.0247 35.5668 48.9466 35.5668 45.8829 35.552C45.1925 35.552 44.7897 35.1376 44.6747 34.4272C44.6603 34.2052 44.6459 33.998 44.6171 33.7908Z" fill="white"/>
<path d="M74.612 55L71.112 45.2H72.512L75.354 53.376L78.182 45.2H79.596L76.082 55H74.612ZM80.9619 46.726C80.7285 46.726 80.5325 46.6467 80.3739 46.488C80.2152 46.3293 80.1359 46.138 80.1359 45.914C80.1359 45.69 80.2152 45.4987 80.3739 45.34C80.5325 45.172 80.7285 45.088 80.9619 45.088C81.1859 45.088 81.3772 45.172 81.5359 45.34C81.6945 45.4987 81.7739 45.69 81.7739 45.914C81.7739 46.138 81.6945 46.3293 81.5359 46.488C81.3772 46.6467 81.1859 46.726 80.9619 46.726ZM80.3459 55V48H81.5639V55H80.3459ZM89.218 48H90.436V55H89.218V53.796C88.6114 54.72 87.7294 55.182 86.572 55.182C85.592 55.182 84.7567 54.8273 84.066 54.118C83.3754 53.3993 83.03 52.5267 83.03 51.5C83.03 50.4733 83.3754 49.6053 84.066 48.896C84.7567 48.1773 85.592 47.818 86.572 47.818C87.7294 47.818 88.6114 48.28 89.218 49.204V48ZM86.726 54.006C87.4354 54.006 88.028 53.768 88.504 53.292C88.98 52.8067 89.218 52.2093 89.218 51.5C89.218 50.7907 88.98 50.198 88.504 49.722C88.028 49.2367 87.4354 48.994 86.726 48.994C86.026 48.994 85.438 49.2367 84.962 49.722C84.486 50.198 84.248 50.7907 84.248 51.5C84.248 52.2093 84.486 52.8067 84.962 53.292C85.438 53.768 86.026 54.006 86.726 54.006ZM99.0714 55.182C98.1568 55.182 97.3728 54.9673 96.7194 54.538C96.0754 54.1087 95.6228 53.5207 95.3614 52.774L96.4814 52.13C96.8641 53.3153 97.7368 53.908 99.0994 53.908C99.7714 53.908 100.285 53.7727 100.639 53.502C100.994 53.222 101.171 52.8533 101.171 52.396C101.171 51.9293 100.994 51.5793 100.639 51.346C100.285 51.1127 99.6921 50.8653 98.8614 50.604C98.4508 50.4733 98.1381 50.3707 97.9234 50.296C97.7088 50.212 97.4381 50.0907 97.1114 49.932C96.7941 49.764 96.5561 49.596 96.3974 49.428C96.2388 49.2507 96.0941 49.022 95.9634 48.742C95.8421 48.462 95.7814 48.1447 95.7814 47.79C95.7814 46.9407 96.0801 46.2687 96.6774 45.774C97.2748 45.27 98.0028 45.018 98.8614 45.018C99.6361 45.018 100.308 45.214 100.877 45.606C101.456 45.998 101.89 46.516 102.179 47.16L101.087 47.79C100.667 46.782 99.9254 46.278 98.8614 46.278C98.3294 46.278 97.9001 46.4087 97.5734 46.67C97.2468 46.9313 97.0834 47.286 97.0834 47.734C97.0834 48.1633 97.2374 48.49 97.5454 48.714C97.8534 48.938 98.3854 49.1713 99.1414 49.414C99.4121 49.498 99.6034 49.5587 99.7154 49.596C99.8274 49.6333 100 49.6987 100.233 49.792C100.476 49.8853 100.653 49.96 100.765 50.016C100.877 50.072 101.027 50.1513 101.213 50.254C101.409 50.3567 101.554 50.4547 101.647 50.548C101.741 50.6413 101.848 50.758 101.969 50.898C102.1 51.0287 102.193 51.164 102.249 51.304C102.305 51.444 102.352 51.6073 102.389 51.794C102.436 51.9713 102.459 52.1627 102.459 52.368C102.459 53.2267 102.147 53.9127 101.521 54.426C100.896 54.93 100.079 55.182 99.0714 55.182ZM113.103 45.2V55H111.815V47.342L108.609 52.676H108.441L105.235 47.356V55H103.933V45.2H105.403L108.525 50.38L111.633 45.2H113.103ZM118.212 55.182C117.297 55.182 116.513 54.9673 115.86 54.538C115.216 54.1087 114.763 53.5207 114.502 52.774L115.622 52.13C116.005 53.3153 116.877 53.908 118.24 53.908C118.912 53.908 119.425 53.7727 119.78 53.502C120.135 53.222 120.312 52.8533 120.312 52.396C120.312 51.9293 120.135 51.5793 119.78 51.346C119.425 51.1127 118.833 50.8653 118.002 50.604C117.591 50.4733 117.279 50.3707 117.064 50.296C116.849 50.212 116.579 50.0907 116.252 49.932C115.935 49.764 115.697 49.596 115.538 49.428C115.379 49.2507 115.235 49.022 115.104 48.742C114.983 48.462 114.922 48.1447 114.922 47.79C114.922 46.9407 115.221 46.2687 115.818 45.774C116.415 45.27 117.143 45.018 118.002 45.018C118.777 45.018 119.449 45.214 120.018 45.606C120.597 45.998 121.031 46.516 121.32 47.16L120.228 47.79C119.808 46.782 119.066 46.278 118.002 46.278C117.47 46.278 117.041 46.4087 116.714 46.67C116.387 46.9313 116.224 47.286 116.224 47.734C116.224 48.1633 116.378 48.49 116.686 48.714C116.994 48.938 117.526 49.1713 118.282 49.414C118.553 49.498 118.744 49.5587 118.856 49.596C118.968 49.6333 119.141 49.6987 119.374 49.792C119.617 49.8853 119.794 49.96 119.906 50.016C120.018 50.072 120.167 50.1513 120.354 50.254C120.55 50.3567 120.695 50.4547 120.788 50.548C120.881 50.6413 120.989 50.758 121.11 50.898C121.241 51.0287 121.334 51.164 121.39 51.304C121.446 51.444 121.493 51.6073 121.53 51.794C121.577 51.9713 121.6 52.1627 121.6 52.368C121.6 53.2267 121.287 53.9127 120.662 54.426C120.037 54.93 119.22 55.182 118.212 55.182Z" fill="white"/>
</svg>
