<svg width="325" height="100" viewBox="0 0 325 100" fill="none" xmlns="http://www.w3.org/2000/svg">
<path opacity="0.5" d="M0 8C0 3.58172 3.58172 0 8 0H162.5V100H8C3.58172 100 0 96.4183 0 92V8Z" fill="#00B9F2"/>
<path d="M61 50.5592C61 55.5616 61 60.564 61 65.5812C61 67.6828 59.7199 69 57.6918 69C52.9021 69 48.1123 69 43.3082 69C41.2801 69 40 67.668 40 65.5664C40 55.5024 40 45.4384 40 35.3892C40 33.3468 41.2945 32 43.2795 32C48.0979 32 52.9164 32 57.7349 32C59.7055 32 61 33.3468 61 35.3892C61 40.4508 61 45.4976 61 50.5592ZM44.6171 33.7908C42.8336 33.48 41.8267 33.8796 41.8411 36.0108C41.8986 45.69 41.8699 55.384 41.8699 65.078C41.8699 66.6616 42.3445 67.15 43.8836 67.15C48.2993 67.15 52.7007 67.15 57.1164 67.15C58.6555 67.15 59.1301 66.6616 59.1301 65.078C59.1301 55.31 59.1301 45.542 59.1301 35.7888C59.1301 35.5668 59.1445 35.3448 59.1158 35.1228C59.0438 34.368 58.5548 33.8352 57.8356 33.7612C57.3753 33.702 56.8863 33.7464 56.3829 33.7464C56.3541 34.0128 56.3253 34.22 56.2966 34.442C56.1959 35.1524 55.7932 35.552 55.0884 35.552C52.0247 35.5668 48.9466 35.5668 45.8829 35.552C45.1925 35.552 44.7897 35.1376 44.6747 34.4272C44.6603 34.2052 44.6459 33.998 44.6171 33.7908Z" fill="white"/>
<path d="M74.612 55L71.112 45.2H72.512L75.354 53.376L78.182 45.2H79.596L76.082 55H74.612ZM80.9619 46.726C80.7285 46.726 80.5325 46.6467 80.3739 46.488C80.2152 46.3293 80.1359 46.138 80.1359 45.914C80.1359 45.69 80.2152 45.4987 80.3739 45.34C80.5325 45.172 80.7285 45.088 80.9619 45.088C81.1859 45.088 81.3772 45.172 81.5359 45.34C81.6945 45.4987 81.7739 45.69 81.7739 45.914C81.7739 46.138 81.6945 46.3293 81.5359 46.488C81.3772 46.6467 81.1859 46.726 80.9619 46.726ZM80.3459 55V48H81.5639V55H80.3459ZM89.218 48H90.436V55H89.218V53.796C88.6114 54.72 87.7294 55.182 86.572 55.182C85.592 55.182 84.7567 54.8273 84.066 54.118C83.3754 53.3993 83.03 52.5267 83.03 51.5C83.03 50.4733 83.3754 49.6053 84.066 48.896C84.7567 48.1773 85.592 47.818 86.572 47.818C87.7294 47.818 88.6114 48.28 89.218 49.204V48ZM86.726 54.006C87.4354 54.006 88.028 53.768 88.504 53.292C88.98 52.8067 89.218 52.2093 89.218 51.5C89.218 50.7907 88.98 50.198 88.504 49.722C88.028 49.2367 87.4354 48.994 86.726 48.994C86.026 48.994 85.438 49.2367 84.962 49.722C84.486 50.198 84.248 50.7907 84.248 51.5C84.248 52.2093 84.486 52.8067 84.962 53.292C85.438 53.768 86.026 54.006 86.726 54.006ZM99.0714 55.182C98.1568 55.182 97.3728 54.9673 96.7194 54.538C96.0754 54.1087 95.6228 53.5207 95.3614 52.774L96.4814 52.13C96.8641 53.3153 97.7368 53.908 99.0994 53.908C99.7714 53.908 100.285 53.7727 100.639 53.502C100.994 53.222 101.171 52.8533 101.171 52.396C101.171 51.9293 100.994 51.5793 100.639 51.346C100.285 51.1127 99.6921 50.8653 98.8614 50.604C98.4508 50.4733 98.1381 50.3707 97.9234 50.296C97.7088 50.212 97.4381 50.0907 97.1114 49.932C96.7941 49.764 96.5561 49.596 96.3974 49.428C96.2388 49.2507 96.0941 49.022 95.9634 48.742C95.8421 48.462 95.7814 48.1447 95.7814 47.79C95.7814 46.9407 96.0801 46.2687 96.6774 45.774C97.2748 45.27 98.0028 45.018 98.8614 45.018C99.6361 45.018 100.308 45.214 100.877 45.606C101.456 45.998 101.89 46.516 102.179 47.16L101.087 47.79C100.667 46.782 99.9254 46.278 98.8614 46.278C98.3294 46.278 97.9001 46.4087 97.5734 46.67C97.2468 46.9313 97.0834 47.286 97.0834 47.734C97.0834 48.1633 97.2374 48.49 97.5454 48.714C97.8534 48.938 98.3854 49.1713 99.1414 49.414C99.4121 49.498 99.6034 49.5587 99.7154 49.596C99.8274 49.6333 100 49.6987 100.233 49.792C100.476 49.8853 100.653 49.96 100.765 50.016C100.877 50.072 101.027 50.1513 101.213 50.254C101.409 50.3567 101.554 50.4547 101.647 50.548C101.741 50.6413 101.848 50.758 101.969 50.898C102.1 51.0287 102.193 51.164 102.249 51.304C102.305 51.444 102.352 51.6073 102.389 51.794C102.436 51.9713 102.459 52.1627 102.459 52.368C102.459 53.2267 102.147 53.9127 101.521 54.426C100.896 54.93 100.079 55.182 99.0714 55.182ZM113.103 45.2V55H111.815V47.342L108.609 52.676H108.441L105.235 47.356V55H103.933V45.2H105.403L108.525 50.38L111.633 45.2H113.103ZM118.212 55.182C117.297 55.182 116.513 54.9673 115.86 54.538C115.216 54.1087 114.763 53.5207 114.502 52.774L115.622 52.13C116.005 53.3153 116.877 53.908 118.24 53.908C118.912 53.908 119.425 53.7727 119.78 53.502C120.135 53.222 120.312 52.8533 120.312 52.396C120.312 51.9293 120.135 51.5793 119.78 51.346C119.425 51.1127 118.833 50.8653 118.002 50.604C117.591 50.4733 117.279 50.3707 117.064 50.296C116.849 50.212 116.579 50.0907 116.252 49.932C115.935 49.764 115.697 49.596 115.538 49.428C115.379 49.2507 115.235 49.022 115.104 48.742C114.983 48.462 114.922 48.1447 114.922 47.79C114.922 46.9407 115.221 46.2687 115.818 45.774C116.415 45.27 117.143 45.018 118.002 45.018C118.777 45.018 119.449 45.214 120.018 45.606C120.597 45.998 121.031 46.516 121.32 47.16L120.228 47.79C119.808 46.782 119.066 46.278 118.002 46.278C117.47 46.278 117.041 46.4087 116.714 46.67C116.387 46.9313 116.224 47.286 116.224 47.734C116.224 48.1633 116.378 48.49 116.686 48.714C116.994 48.938 117.526 49.1713 118.282 49.414C118.553 49.498 118.744 49.5587 118.856 49.596C118.968 49.6333 119.141 49.6987 119.374 49.792C119.617 49.8853 119.794 49.96 119.906 50.016C120.018 50.072 120.167 50.1513 120.354 50.254C120.55 50.3567 120.695 50.4547 120.788 50.548C120.881 50.6413 120.989 50.758 121.11 50.898C121.241 51.0287 121.334 51.164 121.39 51.304C121.446 51.444 121.493 51.6073 121.53 51.794C121.577 51.9713 121.6 52.1627 121.6 52.368C121.6 53.2267 121.287 53.9127 120.662 54.426C120.037 54.93 119.22 55.182 118.212 55.182Z" fill="white"/>
<path opacity="0.5" d="M162 0H316.5C320.918 0 324.5 3.58172 324.5 8V92C324.5 96.4183 320.918 100 316.5 100H162V0Z" fill="#EFF2F6" fill-opacity="0.6"/>
<path d="M234.612 54L231.112 44.2H232.512L235.354 52.376L238.182 44.2H239.596L236.082 54H234.612ZM240.962 45.726C240.729 45.726 240.533 45.6467 240.374 45.488C240.215 45.3293 240.136 45.138 240.136 44.914C240.136 44.69 240.215 44.4987 240.374 44.34C240.533 44.172 240.729 44.088 240.962 44.088C241.186 44.088 241.377 44.172 241.536 44.34C241.695 44.4987 241.774 44.69 241.774 44.914C241.774 45.138 241.695 45.3293 241.536 45.488C241.377 45.6467 241.186 45.726 240.962 45.726ZM240.346 54V47H241.564V54H240.346ZM249.218 47H250.436V54H249.218V52.796C248.611 53.72 247.729 54.182 246.572 54.182C245.592 54.182 244.757 53.8273 244.066 53.118C243.375 52.3993 243.03 51.5267 243.03 50.5C243.03 49.4733 243.375 48.6053 244.066 47.896C244.757 47.1773 245.592 46.818 246.572 46.818C247.729 46.818 248.611 47.28 249.218 48.204V47ZM246.726 53.006C247.435 53.006 248.028 52.768 248.504 52.292C248.98 51.8067 249.218 51.2093 249.218 50.5C249.218 49.7907 248.98 49.198 248.504 48.722C248.028 48.2367 247.435 47.994 246.726 47.994C246.026 47.994 245.438 48.2367 244.962 48.722C244.486 49.198 244.248 49.7907 244.248 50.5C244.248 51.2093 244.486 51.8067 244.962 52.292C245.438 52.768 246.026 53.006 246.726 53.006ZM257.209 52.768H261.759V54H255.907V44.2H261.689V45.432H257.209V48.442H261.339V49.66H257.209V52.768ZM270.765 46.818C271.549 46.818 272.184 47.0747 272.669 47.588C273.155 48.092 273.397 48.778 273.397 49.646V54H272.179V49.688C272.179 49.1467 272.039 48.7267 271.759 48.428C271.479 48.1293 271.106 47.98 270.639 47.98C270.117 47.98 269.697 48.1573 269.379 48.512C269.071 48.8573 268.917 49.3893 268.917 50.108V54H267.699V49.688C267.699 49.1467 267.564 48.7267 267.293 48.428C267.032 48.1293 266.673 47.98 266.215 47.98C265.702 47.98 265.273 48.1573 264.927 48.512C264.591 48.8667 264.423 49.3987 264.423 50.108V54H263.205V47H264.423V47.938C264.899 47.1913 265.595 46.818 266.509 46.818C267.452 46.818 268.138 47.2147 268.567 48.008C269.053 47.2147 269.785 46.818 270.765 46.818ZM280.882 47H282.1V54H280.882V52.796C280.275 53.72 279.393 54.182 278.236 54.182C277.256 54.182 276.421 53.8273 275.73 53.118C275.039 52.3993 274.694 51.5267 274.694 50.5C274.694 49.4733 275.039 48.6053 275.73 47.896C276.421 47.1773 277.256 46.818 278.236 46.818C279.393 46.818 280.275 47.28 280.882 48.204V47ZM278.39 53.006C279.099 53.006 279.692 52.768 280.168 52.292C280.644 51.8067 280.882 51.2093 280.882 50.5C280.882 49.7907 280.644 49.198 280.168 48.722C279.692 48.2367 279.099 47.994 278.39 47.994C277.69 47.994 277.102 48.2367 276.626 48.722C276.15 49.198 275.912 49.7907 275.912 50.5C275.912 51.2093 276.15 51.8067 276.626 52.292C277.102 52.768 277.69 53.006 278.39 53.006ZM284.561 45.726C284.328 45.726 284.132 45.6467 283.973 45.488C283.815 45.3293 283.735 45.138 283.735 44.914C283.735 44.69 283.815 44.4987 283.973 44.34C284.132 44.172 284.328 44.088 284.561 44.088C284.785 44.088 284.977 44.172 285.135 44.34C285.294 44.4987 285.373 44.69 285.373 44.914C285.373 45.138 285.294 45.3293 285.135 45.488C284.977 45.6467 284.785 45.726 284.561 45.726ZM283.945 54V47H285.163V54H283.945ZM287.022 54V43.78H288.24V54H287.022Z" fill="black"/>
<g clip-path="url(#clip0_3229_3168)">
<path d="M209.51 41C212.801 41 216.082 41 219.373 41C219.715 41 220.066 41.0097 220.389 41.0877C221.326 41.3215 222 42.179 222 43.1631C222.01 48.0446 222.01 52.9359 222 57.8174C222 58.9672 221.15 59.8441 220.008 59.961C219.803 59.9805 219.588 59.9903 219.373 59.9903C212.781 59.9903 206.199 59.9903 199.608 59.9903C199.266 59.9903 198.914 59.9805 198.592 59.8928C197.645 59.6492 197.01 58.8015 197.01 57.7979C197 52.9262 197 48.0544 197.01 43.1923C197.01 42.0133 197.85 41.1364 199.022 41.0292C199.246 41.0097 199.471 41 199.705 41C202.967 41 206.238 41 209.51 41ZM199.881 42.4908C203.055 45.7354 206.297 49.0482 209.412 52.2441C212.723 48.9508 215.984 45.6867 219.197 42.4908C212.772 42.4908 206.229 42.4908 199.881 42.4908ZM199.695 58.48C206.229 58.48 212.781 58.48 219.334 58.48C217.02 56.1708 214.734 53.8908 212.42 51.5815C211.727 52.2831 211.004 53.0041 210.281 53.7251C209.715 54.2903 209.373 54.2903 208.807 53.7154C208.074 52.9749 207.361 52.2344 206.678 51.5231C204.295 53.8908 202 56.1805 199.695 58.48ZM198.484 57.3108C200.789 55.0113 203.104 52.7021 205.233 50.5779C203.006 48.2979 200.74 45.979 198.484 43.6795C198.484 48.22 198.484 52.7897 198.484 57.3108ZM220.516 43.7282C218.24 45.9985 215.945 48.2882 213.719 50.5097C215.955 52.741 218.25 55.0308 220.516 57.2913C220.516 52.7897 220.516 48.22 220.516 43.7282Z" fill="#11AFD4"/>
</g>
<defs>
<clipPath id="clip0_3229_3168">
<rect width="25" height="19" fill="white" transform="translate(197 41)"/>
</clipPath>
</defs>
</svg>
